G04 #@! TF.GenerationSoftware,KiCad,Pcbnew,9.0.1*
G04 #@! TF.CreationDate,2025-04-29T10:04:21+02:00*
G04 #@! TF.ProjectId,ProtoHu_revA_layer1,50726f74-6f48-4755-9f72-6576415f6c61,rev?*
G04 #@! TF.SameCoordinates,Original*
G04 #@! TF.FileFunction,Legend,Bot*
G04 #@! TF.FilePolarity,Positive*
%FSLAX46Y46*%
G04 Gerber Fmt 4.6, Leading zero omitted, Abs format (unit mm)*
G04 Created by KiCad (PCBNEW 9.0.1) date 2025-04-29 10:04:21*
%MOMM*%
%LPD*%
G01*
G04 APERTURE LIST*
%ADD10C,0.100000*%
%ADD11C,0.150000*%
%ADD12C,0.300000*%
%ADD13C,0.120000*%
%ADD14C,0.200000*%
%ADD15C,0.600000*%
%ADD16C,0.850000*%
%ADD17C,0.354000*%
G04 APERTURE END LIST*
D10*
X152750000Y-66500000D02*
X153250000Y-66500000D01*
X153250000Y-67000000D02*
X152750000Y-66500000D01*
X154500000Y-67000000D02*
X153250000Y-67000000D01*
X152750000Y-66500000D02*
X152750000Y-67000000D01*
X157619047Y-66505038D02*
X157714285Y-66457419D01*
X157714285Y-66457419D02*
X157857142Y-66457419D01*
X157857142Y-66457419D02*
X157999999Y-66505038D01*
X157999999Y-66505038D02*
X158095237Y-66600276D01*
X158095237Y-66600276D02*
X158142856Y-66695514D01*
X158142856Y-66695514D02*
X158190475Y-66885990D01*
X158190475Y-66885990D02*
X158190475Y-67028847D01*
X158190475Y-67028847D02*
X158142856Y-67219323D01*
X158142856Y-67219323D02*
X158095237Y-67314561D01*
X158095237Y-67314561D02*
X157999999Y-67409800D01*
X157999999Y-67409800D02*
X157857142Y-67457419D01*
X157857142Y-67457419D02*
X157761904Y-67457419D01*
X157761904Y-67457419D02*
X157619047Y-67409800D01*
X157619047Y-67409800D02*
X157571428Y-67362180D01*
X157571428Y-67362180D02*
X157571428Y-67028847D01*
X157571428Y-67028847D02*
X157761904Y-67028847D01*
X156666666Y-67457419D02*
X157142856Y-67457419D01*
X157142856Y-67457419D02*
X157142856Y-66457419D01*
X156333332Y-66457419D02*
X156333332Y-67266942D01*
X156333332Y-67266942D02*
X156285713Y-67362180D01*
X156285713Y-67362180D02*
X156238094Y-67409800D01*
X156238094Y-67409800D02*
X156142856Y-67457419D01*
X156142856Y-67457419D02*
X155952380Y-67457419D01*
X155952380Y-67457419D02*
X155857142Y-67409800D01*
X155857142Y-67409800D02*
X155809523Y-67362180D01*
X155809523Y-67362180D02*
X155761904Y-67266942D01*
X155761904Y-67266942D02*
X155761904Y-66457419D01*
X155285713Y-66933609D02*
X154952380Y-66933609D01*
X154809523Y-67457419D02*
X155285713Y-67457419D01*
X155285713Y-67457419D02*
X155285713Y-66457419D01*
X155285713Y-66457419D02*
X154809523Y-66457419D01*
X169619047Y-145005038D02*
X169714285Y-144957419D01*
X169714285Y-144957419D02*
X169857142Y-144957419D01*
X169857142Y-144957419D02*
X169999999Y-145005038D01*
X169999999Y-145005038D02*
X170095237Y-145100276D01*
X170095237Y-145100276D02*
X170142856Y-145195514D01*
X170142856Y-145195514D02*
X170190475Y-145385990D01*
X170190475Y-145385990D02*
X170190475Y-145528847D01*
X170190475Y-145528847D02*
X170142856Y-145719323D01*
X170142856Y-145719323D02*
X170095237Y-145814561D01*
X170095237Y-145814561D02*
X169999999Y-145909800D01*
X169999999Y-145909800D02*
X169857142Y-145957419D01*
X169857142Y-145957419D02*
X169761904Y-145957419D01*
X169761904Y-145957419D02*
X169619047Y-145909800D01*
X169619047Y-145909800D02*
X169571428Y-145862180D01*
X169571428Y-145862180D02*
X169571428Y-145528847D01*
X169571428Y-145528847D02*
X169761904Y-145528847D01*
X168666666Y-145957419D02*
X169142856Y-145957419D01*
X169142856Y-145957419D02*
X169142856Y-144957419D01*
X168333332Y-144957419D02*
X168333332Y-145766942D01*
X168333332Y-145766942D02*
X168285713Y-145862180D01*
X168285713Y-145862180D02*
X168238094Y-145909800D01*
X168238094Y-145909800D02*
X168142856Y-145957419D01*
X168142856Y-145957419D02*
X167952380Y-145957419D01*
X167952380Y-145957419D02*
X167857142Y-145909800D01*
X167857142Y-145909800D02*
X167809523Y-145862180D01*
X167809523Y-145862180D02*
X167761904Y-145766942D01*
X167761904Y-145766942D02*
X167761904Y-144957419D01*
X167285713Y-145433609D02*
X166952380Y-145433609D01*
X166809523Y-145957419D02*
X167285713Y-145957419D01*
X167285713Y-145957419D02*
X167285713Y-144957419D01*
X167285713Y-144957419D02*
X166809523Y-144957419D01*
X151619047Y-86255038D02*
X151714285Y-86207419D01*
X151714285Y-86207419D02*
X151857142Y-86207419D01*
X151857142Y-86207419D02*
X151999999Y-86255038D01*
X151999999Y-86255038D02*
X152095237Y-86350276D01*
X152095237Y-86350276D02*
X152142856Y-86445514D01*
X152142856Y-86445514D02*
X152190475Y-86635990D01*
X152190475Y-86635990D02*
X152190475Y-86778847D01*
X152190475Y-86778847D02*
X152142856Y-86969323D01*
X152142856Y-86969323D02*
X152095237Y-87064561D01*
X152095237Y-87064561D02*
X151999999Y-87159800D01*
X151999999Y-87159800D02*
X151857142Y-87207419D01*
X151857142Y-87207419D02*
X151761904Y-87207419D01*
X151761904Y-87207419D02*
X151619047Y-87159800D01*
X151619047Y-87159800D02*
X151571428Y-87112180D01*
X151571428Y-87112180D02*
X151571428Y-86778847D01*
X151571428Y-86778847D02*
X151761904Y-86778847D01*
X150666666Y-87207419D02*
X151142856Y-87207419D01*
X151142856Y-87207419D02*
X151142856Y-86207419D01*
X150333332Y-86207419D02*
X150333332Y-87016942D01*
X150333332Y-87016942D02*
X150285713Y-87112180D01*
X150285713Y-87112180D02*
X150238094Y-87159800D01*
X150238094Y-87159800D02*
X150142856Y-87207419D01*
X150142856Y-87207419D02*
X149952380Y-87207419D01*
X149952380Y-87207419D02*
X149857142Y-87159800D01*
X149857142Y-87159800D02*
X149809523Y-87112180D01*
X149809523Y-87112180D02*
X149761904Y-87016942D01*
X149761904Y-87016942D02*
X149761904Y-86207419D01*
X149285713Y-86683609D02*
X148952380Y-86683609D01*
X148809523Y-87207419D02*
X149285713Y-87207419D01*
X149285713Y-87207419D02*
X149285713Y-86207419D01*
X149285713Y-86207419D02*
X148809523Y-86207419D01*
D11*
X153114048Y-145119819D02*
X153114048Y-145834104D01*
X153114048Y-145834104D02*
X153161667Y-145976961D01*
X153161667Y-145976961D02*
X153256905Y-146072200D01*
X153256905Y-146072200D02*
X153399762Y-146119819D01*
X153399762Y-146119819D02*
X153495000Y-146119819D01*
X152161667Y-146119819D02*
X152637857Y-146119819D01*
X152637857Y-146119819D02*
X152637857Y-145119819D01*
X151256905Y-146024580D02*
X151304524Y-146072200D01*
X151304524Y-146072200D02*
X151447381Y-146119819D01*
X151447381Y-146119819D02*
X151542619Y-146119819D01*
X151542619Y-146119819D02*
X151685476Y-146072200D01*
X151685476Y-146072200D02*
X151780714Y-145976961D01*
X151780714Y-145976961D02*
X151828333Y-145881723D01*
X151828333Y-145881723D02*
X151875952Y-145691247D01*
X151875952Y-145691247D02*
X151875952Y-145548390D01*
X151875952Y-145548390D02*
X151828333Y-145357914D01*
X151828333Y-145357914D02*
X151780714Y-145262676D01*
X151780714Y-145262676D02*
X151685476Y-145167438D01*
X151685476Y-145167438D02*
X151542619Y-145119819D01*
X151542619Y-145119819D02*
X151447381Y-145119819D01*
X151447381Y-145119819D02*
X151304524Y-145167438D01*
X151304524Y-145167438D02*
X151256905Y-145215057D01*
X150542619Y-145119819D02*
X150542619Y-145834104D01*
X150542619Y-145834104D02*
X150590238Y-145976961D01*
X150590238Y-145976961D02*
X150685476Y-146072200D01*
X150685476Y-146072200D02*
X150828333Y-146119819D01*
X150828333Y-146119819D02*
X150923571Y-146119819D01*
X149590238Y-146119819D02*
X150066428Y-146119819D01*
X150066428Y-146119819D02*
X150066428Y-145119819D01*
X148685476Y-146024580D02*
X148733095Y-146072200D01*
X148733095Y-146072200D02*
X148875952Y-146119819D01*
X148875952Y-146119819D02*
X148971190Y-146119819D01*
X148971190Y-146119819D02*
X149114047Y-146072200D01*
X149114047Y-146072200D02*
X149209285Y-145976961D01*
X149209285Y-145976961D02*
X149256904Y-145881723D01*
X149256904Y-145881723D02*
X149304523Y-145691247D01*
X149304523Y-145691247D02*
X149304523Y-145548390D01*
X149304523Y-145548390D02*
X149256904Y-145357914D01*
X149256904Y-145357914D02*
X149209285Y-145262676D01*
X149209285Y-145262676D02*
X149114047Y-145167438D01*
X149114047Y-145167438D02*
X148971190Y-145119819D01*
X148971190Y-145119819D02*
X148875952Y-145119819D01*
X148875952Y-145119819D02*
X148733095Y-145167438D01*
X148733095Y-145167438D02*
X148685476Y-145215057D01*
X147971190Y-145119819D02*
X147971190Y-145834104D01*
X147971190Y-145834104D02*
X148018809Y-145976961D01*
X148018809Y-145976961D02*
X148114047Y-146072200D01*
X148114047Y-146072200D02*
X148256904Y-146119819D01*
X148256904Y-146119819D02*
X148352142Y-146119819D01*
X147018809Y-146119819D02*
X147494999Y-146119819D01*
X147494999Y-146119819D02*
X147494999Y-145119819D01*
X146114047Y-146024580D02*
X146161666Y-146072200D01*
X146161666Y-146072200D02*
X146304523Y-146119819D01*
X146304523Y-146119819D02*
X146399761Y-146119819D01*
X146399761Y-146119819D02*
X146542618Y-146072200D01*
X146542618Y-146072200D02*
X146637856Y-145976961D01*
X146637856Y-145976961D02*
X146685475Y-145881723D01*
X146685475Y-145881723D02*
X146733094Y-145691247D01*
X146733094Y-145691247D02*
X146733094Y-145548390D01*
X146733094Y-145548390D02*
X146685475Y-145357914D01*
X146685475Y-145357914D02*
X146637856Y-145262676D01*
X146637856Y-145262676D02*
X146542618Y-145167438D01*
X146542618Y-145167438D02*
X146399761Y-145119819D01*
X146399761Y-145119819D02*
X146304523Y-145119819D01*
X146304523Y-145119819D02*
X146161666Y-145167438D01*
X146161666Y-145167438D02*
X146114047Y-145215057D01*
X145399761Y-145119819D02*
X145399761Y-145834104D01*
X145399761Y-145834104D02*
X145447380Y-145976961D01*
X145447380Y-145976961D02*
X145542618Y-146072200D01*
X145542618Y-146072200D02*
X145685475Y-146119819D01*
X145685475Y-146119819D02*
X145780713Y-146119819D01*
X144447380Y-146119819D02*
X144923570Y-146119819D01*
X144923570Y-146119819D02*
X144923570Y-145119819D01*
X143542618Y-146024580D02*
X143590237Y-146072200D01*
X143590237Y-146072200D02*
X143733094Y-146119819D01*
X143733094Y-146119819D02*
X143828332Y-146119819D01*
X143828332Y-146119819D02*
X143971189Y-146072200D01*
X143971189Y-146072200D02*
X144066427Y-145976961D01*
X144066427Y-145976961D02*
X144114046Y-145881723D01*
X144114046Y-145881723D02*
X144161665Y-145691247D01*
X144161665Y-145691247D02*
X144161665Y-145548390D01*
X144161665Y-145548390D02*
X144114046Y-145357914D01*
X144114046Y-145357914D02*
X144066427Y-145262676D01*
X144066427Y-145262676D02*
X143971189Y-145167438D01*
X143971189Y-145167438D02*
X143828332Y-145119819D01*
X143828332Y-145119819D02*
X143733094Y-145119819D01*
X143733094Y-145119819D02*
X143590237Y-145167438D01*
X143590237Y-145167438D02*
X143542618Y-145215057D01*
D10*
X129619047Y-145005038D02*
X129714285Y-144957419D01*
X129714285Y-144957419D02*
X129857142Y-144957419D01*
X129857142Y-144957419D02*
X129999999Y-145005038D01*
X129999999Y-145005038D02*
X130095237Y-145100276D01*
X130095237Y-145100276D02*
X130142856Y-145195514D01*
X130142856Y-145195514D02*
X130190475Y-145385990D01*
X130190475Y-145385990D02*
X130190475Y-145528847D01*
X130190475Y-145528847D02*
X130142856Y-145719323D01*
X130142856Y-145719323D02*
X130095237Y-145814561D01*
X130095237Y-145814561D02*
X129999999Y-145909800D01*
X129999999Y-145909800D02*
X129857142Y-145957419D01*
X129857142Y-145957419D02*
X129761904Y-145957419D01*
X129761904Y-145957419D02*
X129619047Y-145909800D01*
X129619047Y-145909800D02*
X129571428Y-145862180D01*
X129571428Y-145862180D02*
X129571428Y-145528847D01*
X129571428Y-145528847D02*
X129761904Y-145528847D01*
X128666666Y-145957419D02*
X129142856Y-145957419D01*
X129142856Y-145957419D02*
X129142856Y-144957419D01*
X128333332Y-144957419D02*
X128333332Y-145766942D01*
X128333332Y-145766942D02*
X128285713Y-145862180D01*
X128285713Y-145862180D02*
X128238094Y-145909800D01*
X128238094Y-145909800D02*
X128142856Y-145957419D01*
X128142856Y-145957419D02*
X127952380Y-145957419D01*
X127952380Y-145957419D02*
X127857142Y-145909800D01*
X127857142Y-145909800D02*
X127809523Y-145862180D01*
X127809523Y-145862180D02*
X127761904Y-145766942D01*
X127761904Y-145766942D02*
X127761904Y-144957419D01*
X127285713Y-145433609D02*
X126952380Y-145433609D01*
X126809523Y-145957419D02*
X127285713Y-145957419D01*
X127285713Y-145957419D02*
X127285713Y-144957419D01*
X127285713Y-144957419D02*
X126809523Y-144957419D01*
D12*
X151592856Y-78878328D02*
X151449999Y-78878328D01*
X151449999Y-78878328D02*
X151307142Y-78949757D01*
X151307142Y-78949757D02*
X151235714Y-79021185D01*
X151235714Y-79021185D02*
X151164285Y-79164042D01*
X151164285Y-79164042D02*
X151092856Y-79449757D01*
X151092856Y-79449757D02*
X151092856Y-79806900D01*
X151092856Y-79806900D02*
X151164285Y-80092614D01*
X151164285Y-80092614D02*
X151235714Y-80235471D01*
X151235714Y-80235471D02*
X151307142Y-80306900D01*
X151307142Y-80306900D02*
X151449999Y-80378328D01*
X151449999Y-80378328D02*
X151592856Y-80378328D01*
X151592856Y-80378328D02*
X151735714Y-80306900D01*
X151735714Y-80306900D02*
X151807142Y-80235471D01*
X151807142Y-80235471D02*
X151878571Y-80092614D01*
X151878571Y-80092614D02*
X151949999Y-79806900D01*
X151949999Y-79806900D02*
X151949999Y-79449757D01*
X151949999Y-79449757D02*
X151878571Y-79164042D01*
X151878571Y-79164042D02*
X151807142Y-79021185D01*
X151807142Y-79021185D02*
X151735714Y-78949757D01*
X151735714Y-78949757D02*
X151592856Y-78878328D01*
X150450000Y-80235471D02*
X150378571Y-80306900D01*
X150378571Y-80306900D02*
X150450000Y-80378328D01*
X150450000Y-80378328D02*
X150521428Y-80306900D01*
X150521428Y-80306900D02*
X150450000Y-80235471D01*
X150450000Y-80235471D02*
X150450000Y-80378328D01*
X149521428Y-79521185D02*
X149664285Y-79449757D01*
X149664285Y-79449757D02*
X149735714Y-79378328D01*
X149735714Y-79378328D02*
X149807142Y-79235471D01*
X149807142Y-79235471D02*
X149807142Y-79164042D01*
X149807142Y-79164042D02*
X149735714Y-79021185D01*
X149735714Y-79021185D02*
X149664285Y-78949757D01*
X149664285Y-78949757D02*
X149521428Y-78878328D01*
X149521428Y-78878328D02*
X149235714Y-78878328D01*
X149235714Y-78878328D02*
X149092857Y-78949757D01*
X149092857Y-78949757D02*
X149021428Y-79021185D01*
X149021428Y-79021185D02*
X148949999Y-79164042D01*
X148949999Y-79164042D02*
X148949999Y-79235471D01*
X148949999Y-79235471D02*
X149021428Y-79378328D01*
X149021428Y-79378328D02*
X149092857Y-79449757D01*
X149092857Y-79449757D02*
X149235714Y-79521185D01*
X149235714Y-79521185D02*
X149521428Y-79521185D01*
X149521428Y-79521185D02*
X149664285Y-79592614D01*
X149664285Y-79592614D02*
X149735714Y-79664042D01*
X149735714Y-79664042D02*
X149807142Y-79806900D01*
X149807142Y-79806900D02*
X149807142Y-80092614D01*
X149807142Y-80092614D02*
X149735714Y-80235471D01*
X149735714Y-80235471D02*
X149664285Y-80306900D01*
X149664285Y-80306900D02*
X149521428Y-80378328D01*
X149521428Y-80378328D02*
X149235714Y-80378328D01*
X149235714Y-80378328D02*
X149092857Y-80306900D01*
X149092857Y-80306900D02*
X149021428Y-80235471D01*
X149021428Y-80235471D02*
X148949999Y-80092614D01*
X148949999Y-80092614D02*
X148949999Y-79806900D01*
X148949999Y-79806900D02*
X149021428Y-79664042D01*
X149021428Y-79664042D02*
X149092857Y-79592614D01*
X149092857Y-79592614D02*
X149235714Y-79521185D01*
X148307143Y-80378328D02*
X148307143Y-79378328D01*
X148307143Y-79521185D02*
X148235714Y-79449757D01*
X148235714Y-79449757D02*
X148092857Y-79378328D01*
X148092857Y-79378328D02*
X147878571Y-79378328D01*
X147878571Y-79378328D02*
X147735714Y-79449757D01*
X147735714Y-79449757D02*
X147664286Y-79592614D01*
X147664286Y-79592614D02*
X147664286Y-80378328D01*
X147664286Y-79592614D02*
X147592857Y-79449757D01*
X147592857Y-79449757D02*
X147450000Y-79378328D01*
X147450000Y-79378328D02*
X147235714Y-79378328D01*
X147235714Y-79378328D02*
X147092857Y-79449757D01*
X147092857Y-79449757D02*
X147021428Y-79592614D01*
X147021428Y-79592614D02*
X147021428Y-80378328D01*
X146307143Y-80378328D02*
X146307143Y-79378328D01*
X146307143Y-79521185D02*
X146235714Y-79449757D01*
X146235714Y-79449757D02*
X146092857Y-79378328D01*
X146092857Y-79378328D02*
X145878571Y-79378328D01*
X145878571Y-79378328D02*
X145735714Y-79449757D01*
X145735714Y-79449757D02*
X145664286Y-79592614D01*
X145664286Y-79592614D02*
X145664286Y-80378328D01*
X145664286Y-79592614D02*
X145592857Y-79449757D01*
X145592857Y-79449757D02*
X145450000Y-79378328D01*
X145450000Y-79378328D02*
X145235714Y-79378328D01*
X145235714Y-79378328D02*
X145092857Y-79449757D01*
X145092857Y-79449757D02*
X145021428Y-79592614D01*
X145021428Y-79592614D02*
X145021428Y-80378328D01*
D11*
X143466666Y-132954819D02*
X143799999Y-132478628D01*
X144038094Y-132954819D02*
X144038094Y-131954819D01*
X144038094Y-131954819D02*
X143657142Y-131954819D01*
X143657142Y-131954819D02*
X143561904Y-132002438D01*
X143561904Y-132002438D02*
X143514285Y-132050057D01*
X143514285Y-132050057D02*
X143466666Y-132145295D01*
X143466666Y-132145295D02*
X143466666Y-132288152D01*
X143466666Y-132288152D02*
X143514285Y-132383390D01*
X143514285Y-132383390D02*
X143561904Y-132431009D01*
X143561904Y-132431009D02*
X143657142Y-132478628D01*
X143657142Y-132478628D02*
X144038094Y-132478628D01*
X142514285Y-132954819D02*
X143085713Y-132954819D01*
X142799999Y-132954819D02*
X142799999Y-131954819D01*
X142799999Y-131954819D02*
X142895237Y-132097676D01*
X142895237Y-132097676D02*
X142990475Y-132192914D01*
X142990475Y-132192914D02*
X143085713Y-132240533D01*
X144585714Y-133788152D02*
X144585714Y-134454819D01*
X144823809Y-133407200D02*
X145061904Y-134121485D01*
X145061904Y-134121485D02*
X144442857Y-134121485D01*
X144157142Y-133454819D02*
X143490476Y-133454819D01*
X143490476Y-133454819D02*
X143919047Y-134454819D01*
X143109523Y-134454819D02*
X143109523Y-133454819D01*
X142538095Y-134454819D02*
X142966666Y-133883390D01*
X142538095Y-133454819D02*
X143109523Y-134026247D01*
X153866666Y-135741580D02*
X153914285Y-135789200D01*
X153914285Y-135789200D02*
X154057142Y-135836819D01*
X154057142Y-135836819D02*
X154152380Y-135836819D01*
X154152380Y-135836819D02*
X154295237Y-135789200D01*
X154295237Y-135789200D02*
X154390475Y-135693961D01*
X154390475Y-135693961D02*
X154438094Y-135598723D01*
X154438094Y-135598723D02*
X154485713Y-135408247D01*
X154485713Y-135408247D02*
X154485713Y-135265390D01*
X154485713Y-135265390D02*
X154438094Y-135074914D01*
X154438094Y-135074914D02*
X154390475Y-134979676D01*
X154390475Y-134979676D02*
X154295237Y-134884438D01*
X154295237Y-134884438D02*
X154152380Y-134836819D01*
X154152380Y-134836819D02*
X154057142Y-134836819D01*
X154057142Y-134836819D02*
X153914285Y-134884438D01*
X153914285Y-134884438D02*
X153866666Y-134932057D01*
X153533332Y-134836819D02*
X152914285Y-134836819D01*
X152914285Y-134836819D02*
X153247618Y-135217771D01*
X153247618Y-135217771D02*
X153104761Y-135217771D01*
X153104761Y-135217771D02*
X153009523Y-135265390D01*
X153009523Y-135265390D02*
X152961904Y-135313009D01*
X152961904Y-135313009D02*
X152914285Y-135408247D01*
X152914285Y-135408247D02*
X152914285Y-135646342D01*
X152914285Y-135646342D02*
X152961904Y-135741580D01*
X152961904Y-135741580D02*
X153009523Y-135789200D01*
X153009523Y-135789200D02*
X153104761Y-135836819D01*
X153104761Y-135836819D02*
X153390475Y-135836819D01*
X153390475Y-135836819D02*
X153485713Y-135789200D01*
X153485713Y-135789200D02*
X153533332Y-135741580D01*
X154242856Y-133354819D02*
X154147618Y-133354819D01*
X154147618Y-133354819D02*
X154052380Y-133402438D01*
X154052380Y-133402438D02*
X154004761Y-133450057D01*
X154004761Y-133450057D02*
X153957142Y-133545295D01*
X153957142Y-133545295D02*
X153909523Y-133735771D01*
X153909523Y-133735771D02*
X153909523Y-133973866D01*
X153909523Y-133973866D02*
X153957142Y-134164342D01*
X153957142Y-134164342D02*
X154004761Y-134259580D01*
X154004761Y-134259580D02*
X154052380Y-134307200D01*
X154052380Y-134307200D02*
X154147618Y-134354819D01*
X154147618Y-134354819D02*
X154242856Y-134354819D01*
X154242856Y-134354819D02*
X154338094Y-134307200D01*
X154338094Y-134307200D02*
X154385713Y-134259580D01*
X154385713Y-134259580D02*
X154433332Y-134164342D01*
X154433332Y-134164342D02*
X154480951Y-133973866D01*
X154480951Y-133973866D02*
X154480951Y-133735771D01*
X154480951Y-133735771D02*
X154433332Y-133545295D01*
X154433332Y-133545295D02*
X154385713Y-133450057D01*
X154385713Y-133450057D02*
X154338094Y-133402438D01*
X154338094Y-133402438D02*
X154242856Y-133354819D01*
X153480951Y-134259580D02*
X153433332Y-134307200D01*
X153433332Y-134307200D02*
X153480951Y-134354819D01*
X153480951Y-134354819D02*
X153528570Y-134307200D01*
X153528570Y-134307200D02*
X153480951Y-134259580D01*
X153480951Y-134259580D02*
X153480951Y-134354819D01*
X152480952Y-134354819D02*
X153052380Y-134354819D01*
X152766666Y-134354819D02*
X152766666Y-133354819D01*
X152766666Y-133354819D02*
X152861904Y-133497676D01*
X152861904Y-133497676D02*
X152957142Y-133592914D01*
X152957142Y-133592914D02*
X153052380Y-133640533D01*
X151623809Y-133688152D02*
X151623809Y-134354819D01*
X152052380Y-133688152D02*
X152052380Y-134211961D01*
X152052380Y-134211961D02*
X152004761Y-134307200D01*
X152004761Y-134307200D02*
X151909523Y-134354819D01*
X151909523Y-134354819D02*
X151766666Y-134354819D01*
X151766666Y-134354819D02*
X151671428Y-134307200D01*
X151671428Y-134307200D02*
X151623809Y-134259580D01*
X150814285Y-133831009D02*
X151147618Y-133831009D01*
X151147618Y-134354819D02*
X151147618Y-133354819D01*
X151147618Y-133354819D02*
X150671428Y-133354819D01*
X143672180Y-118833333D02*
X143719800Y-118785714D01*
X143719800Y-118785714D02*
X143767419Y-118642857D01*
X143767419Y-118642857D02*
X143767419Y-118547619D01*
X143767419Y-118547619D02*
X143719800Y-118404762D01*
X143719800Y-118404762D02*
X143624561Y-118309524D01*
X143624561Y-118309524D02*
X143529323Y-118261905D01*
X143529323Y-118261905D02*
X143338847Y-118214286D01*
X143338847Y-118214286D02*
X143195990Y-118214286D01*
X143195990Y-118214286D02*
X143005514Y-118261905D01*
X143005514Y-118261905D02*
X142910276Y-118309524D01*
X142910276Y-118309524D02*
X142815038Y-118404762D01*
X142815038Y-118404762D02*
X142767419Y-118547619D01*
X142767419Y-118547619D02*
X142767419Y-118642857D01*
X142767419Y-118642857D02*
X142815038Y-118785714D01*
X142815038Y-118785714D02*
X142862657Y-118833333D01*
X142862657Y-119214286D02*
X142815038Y-119261905D01*
X142815038Y-119261905D02*
X142767419Y-119357143D01*
X142767419Y-119357143D02*
X142767419Y-119595238D01*
X142767419Y-119595238D02*
X142815038Y-119690476D01*
X142815038Y-119690476D02*
X142862657Y-119738095D01*
X142862657Y-119738095D02*
X142957895Y-119785714D01*
X142957895Y-119785714D02*
X143053133Y-119785714D01*
X143053133Y-119785714D02*
X143195990Y-119738095D01*
X143195990Y-119738095D02*
X143767419Y-119166667D01*
X143767419Y-119166667D02*
X143767419Y-119785714D01*
X143767419Y-124904761D02*
X143767419Y-124333333D01*
X143767419Y-124619047D02*
X142767419Y-124619047D01*
X142767419Y-124619047D02*
X142910276Y-124523809D01*
X142910276Y-124523809D02*
X143005514Y-124428571D01*
X143005514Y-124428571D02*
X143053133Y-124333333D01*
X143100752Y-125761904D02*
X143767419Y-125761904D01*
X143100752Y-125333333D02*
X143624561Y-125333333D01*
X143624561Y-125333333D02*
X143719800Y-125380952D01*
X143719800Y-125380952D02*
X143767419Y-125476190D01*
X143767419Y-125476190D02*
X143767419Y-125619047D01*
X143767419Y-125619047D02*
X143719800Y-125714285D01*
X143719800Y-125714285D02*
X143672180Y-125761904D01*
X143243609Y-126571428D02*
X143243609Y-126238095D01*
X143767419Y-126238095D02*
X142767419Y-126238095D01*
X142767419Y-126238095D02*
X142767419Y-126714285D01*
X143826819Y-112271810D02*
X142826819Y-112271810D01*
X143731580Y-113319428D02*
X143779200Y-113271809D01*
X143779200Y-113271809D02*
X143826819Y-113128952D01*
X143826819Y-113128952D02*
X143826819Y-113033714D01*
X143826819Y-113033714D02*
X143779200Y-112890857D01*
X143779200Y-112890857D02*
X143683961Y-112795619D01*
X143683961Y-112795619D02*
X143588723Y-112748000D01*
X143588723Y-112748000D02*
X143398247Y-112700381D01*
X143398247Y-112700381D02*
X143255390Y-112700381D01*
X143255390Y-112700381D02*
X143064914Y-112748000D01*
X143064914Y-112748000D02*
X142969676Y-112795619D01*
X142969676Y-112795619D02*
X142874438Y-112890857D01*
X142874438Y-112890857D02*
X142826819Y-113033714D01*
X142826819Y-113033714D02*
X142826819Y-113128952D01*
X142826819Y-113128952D02*
X142874438Y-113271809D01*
X142874438Y-113271809D02*
X142922057Y-113319428D01*
X143826819Y-114271809D02*
X143826819Y-113700381D01*
X143826819Y-113986095D02*
X142826819Y-113986095D01*
X142826819Y-113986095D02*
X142969676Y-113890857D01*
X142969676Y-113890857D02*
X143064914Y-113795619D01*
X143064914Y-113795619D02*
X143112533Y-113700381D01*
X154109580Y-118833333D02*
X154157200Y-118785714D01*
X154157200Y-118785714D02*
X154204819Y-118642857D01*
X154204819Y-118642857D02*
X154204819Y-118547619D01*
X154204819Y-118547619D02*
X154157200Y-118404762D01*
X154157200Y-118404762D02*
X154061961Y-118309524D01*
X154061961Y-118309524D02*
X153966723Y-118261905D01*
X153966723Y-118261905D02*
X153776247Y-118214286D01*
X153776247Y-118214286D02*
X153633390Y-118214286D01*
X153633390Y-118214286D02*
X153442914Y-118261905D01*
X153442914Y-118261905D02*
X153347676Y-118309524D01*
X153347676Y-118309524D02*
X153252438Y-118404762D01*
X153252438Y-118404762D02*
X153204819Y-118547619D01*
X153204819Y-118547619D02*
X153204819Y-118642857D01*
X153204819Y-118642857D02*
X153252438Y-118785714D01*
X153252438Y-118785714D02*
X153300057Y-118833333D01*
X154204819Y-119785714D02*
X154204819Y-119214286D01*
X154204819Y-119500000D02*
X153204819Y-119500000D01*
X153204819Y-119500000D02*
X153347676Y-119404762D01*
X153347676Y-119404762D02*
X153442914Y-119309524D01*
X153442914Y-119309524D02*
X153490533Y-119214286D01*
X153204819Y-124357143D02*
X153204819Y-124452381D01*
X153204819Y-124452381D02*
X153252438Y-124547619D01*
X153252438Y-124547619D02*
X153300057Y-124595238D01*
X153300057Y-124595238D02*
X153395295Y-124642857D01*
X153395295Y-124642857D02*
X153585771Y-124690476D01*
X153585771Y-124690476D02*
X153823866Y-124690476D01*
X153823866Y-124690476D02*
X154014342Y-124642857D01*
X154014342Y-124642857D02*
X154109580Y-124595238D01*
X154109580Y-124595238D02*
X154157200Y-124547619D01*
X154157200Y-124547619D02*
X154204819Y-124452381D01*
X154204819Y-124452381D02*
X154204819Y-124357143D01*
X154204819Y-124357143D02*
X154157200Y-124261905D01*
X154157200Y-124261905D02*
X154109580Y-124214286D01*
X154109580Y-124214286D02*
X154014342Y-124166667D01*
X154014342Y-124166667D02*
X153823866Y-124119048D01*
X153823866Y-124119048D02*
X153585771Y-124119048D01*
X153585771Y-124119048D02*
X153395295Y-124166667D01*
X153395295Y-124166667D02*
X153300057Y-124214286D01*
X153300057Y-124214286D02*
X153252438Y-124261905D01*
X153252438Y-124261905D02*
X153204819Y-124357143D01*
X154109580Y-125119048D02*
X154157200Y-125166667D01*
X154157200Y-125166667D02*
X154204819Y-125119048D01*
X154204819Y-125119048D02*
X154157200Y-125071429D01*
X154157200Y-125071429D02*
X154109580Y-125119048D01*
X154109580Y-125119048D02*
X154204819Y-125119048D01*
X154204819Y-126119047D02*
X154204819Y-125547619D01*
X154204819Y-125833333D02*
X153204819Y-125833333D01*
X153204819Y-125833333D02*
X153347676Y-125738095D01*
X153347676Y-125738095D02*
X153442914Y-125642857D01*
X153442914Y-125642857D02*
X153490533Y-125547619D01*
X153538152Y-126976190D02*
X154204819Y-126976190D01*
X153538152Y-126547619D02*
X154061961Y-126547619D01*
X154061961Y-126547619D02*
X154157200Y-126595238D01*
X154157200Y-126595238D02*
X154204819Y-126690476D01*
X154204819Y-126690476D02*
X154204819Y-126833333D01*
X154204819Y-126833333D02*
X154157200Y-126928571D01*
X154157200Y-126928571D02*
X154109580Y-126976190D01*
X153681009Y-127785714D02*
X153681009Y-127452381D01*
X154204819Y-127452381D02*
X153204819Y-127452381D01*
X153204819Y-127452381D02*
X153204819Y-127928571D01*
X149476189Y-134454819D02*
X149476189Y-133454819D01*
X148428571Y-134359580D02*
X148476190Y-134407200D01*
X148476190Y-134407200D02*
X148619047Y-134454819D01*
X148619047Y-134454819D02*
X148714285Y-134454819D01*
X148714285Y-134454819D02*
X148857142Y-134407200D01*
X148857142Y-134407200D02*
X148952380Y-134311961D01*
X148952380Y-134311961D02*
X148999999Y-134216723D01*
X148999999Y-134216723D02*
X149047618Y-134026247D01*
X149047618Y-134026247D02*
X149047618Y-133883390D01*
X149047618Y-133883390D02*
X148999999Y-133692914D01*
X148999999Y-133692914D02*
X148952380Y-133597676D01*
X148952380Y-133597676D02*
X148857142Y-133502438D01*
X148857142Y-133502438D02*
X148714285Y-133454819D01*
X148714285Y-133454819D02*
X148619047Y-133454819D01*
X148619047Y-133454819D02*
X148476190Y-133502438D01*
X148476190Y-133502438D02*
X148428571Y-133550057D01*
X148047618Y-133550057D02*
X147999999Y-133502438D01*
X147999999Y-133502438D02*
X147904761Y-133454819D01*
X147904761Y-133454819D02*
X147666666Y-133454819D01*
X147666666Y-133454819D02*
X147571428Y-133502438D01*
X147571428Y-133502438D02*
X147523809Y-133550057D01*
X147523809Y-133550057D02*
X147476190Y-133645295D01*
X147476190Y-133645295D02*
X147476190Y-133740533D01*
X147476190Y-133740533D02*
X147523809Y-133883390D01*
X147523809Y-133883390D02*
X148095237Y-134454819D01*
X148095237Y-134454819D02*
X147476190Y-134454819D01*
D13*
X142521000Y-136625064D02*
X142521000Y-136170936D01*
X143991000Y-136625064D02*
X143991000Y-136170936D01*
X152935000Y-138657064D02*
X152935000Y-138202936D01*
X154405000Y-138657064D02*
X154405000Y-138202936D01*
X142515000Y-121692936D02*
X142515000Y-122147064D01*
X143985000Y-121692936D02*
X143985000Y-122147064D01*
D14*
X144495000Y-111850000D02*
X152495000Y-111850000D01*
X144495000Y-123350000D02*
X144495000Y-111850000D01*
X151245000Y-123350000D02*
X144495000Y-123350000D01*
X152495000Y-111850000D02*
X152495000Y-122100000D01*
X152495000Y-122100000D02*
X151245000Y-123350000D01*
D15*
X151295000Y-121850000D02*
G75*
G02*
X150695000Y-121850000I-300000J0D01*
G01*
X150695000Y-121850000D02*
G75*
G02*
X151295000Y-121850000I300000J0D01*
G01*
D13*
X152997400Y-121692936D02*
X152997400Y-122147064D01*
X154467400Y-121692936D02*
X154467400Y-122147064D01*
D14*
X139245000Y-99400000D02*
X157745000Y-99400000D01*
X139245000Y-141900000D02*
X139245000Y-99400000D01*
X147245000Y-141900000D02*
X139245000Y-141900000D01*
X157745000Y-99400000D02*
X157745000Y-141900000D01*
X157745000Y-141900000D02*
X149745000Y-141900000D01*
X147245000Y-141900000D02*
G75*
G02*
X149745000Y-141900000I1250000J0D01*
G01*
D16*
X143670000Y-139700000D02*
G75*
G02*
X142820000Y-139700000I-425000J0D01*
G01*
X142820000Y-139700000D02*
G75*
G02*
X143670000Y-139700000I425000J0D01*
G01*
D14*
X146722000Y-135214000D02*
X146722000Y-139024000D01*
X146722000Y-139024000D02*
X147484000Y-139786000D01*
X147484000Y-139786000D02*
X150278000Y-139786000D01*
X150278000Y-135214000D02*
X146722000Y-135214000D01*
X150278000Y-139786000D02*
X150278000Y-135214000D01*
D17*
X147788000Y-138897000D02*
G75*
G02*
X147434000Y-138897000I-177000J0D01*
G01*
X147434000Y-138897000D02*
G75*
G02*
X147788000Y-138897000I177000J0D01*
G01*
M02*
