G04 #@! TF.GenerationSoftware,KiCad,Pcbnew,9.0.1*
G04 #@! TF.CreationDate,2025-04-29T10:04:21+02:00*
G04 #@! TF.ProjectId,ProtoHu_revA_layer1,50726f74-6f48-4755-9f72-6576415f6c61,rev?*
G04 #@! TF.SameCoordinates,Original*
G04 #@! TF.FileFunction,Paste,Bot*
G04 #@! TF.FilePolarity,Positive*
%FSLAX46Y46*%
G04 Gerber Fmt 4.6, Leading zero omitted, Abs format (unit mm)*
G04 Created by KiCad (PCBNEW 9.0.1) date 2025-04-29 10:04:21*
%MOMM*%
%LPD*%
G01*
G04 APERTURE LIST*
G04 Aperture macros list*
%AMRoundRect*
0 Rectangle with rounded corners*
0 $1 Rounding radius*
0 $2 $3 $4 $5 $6 $7 $8 $9 X,Y pos of 4 corners*
0 Add a 4 corners polygon primitive as box body*
4,1,4,$2,$3,$4,$5,$6,$7,$8,$9,$2,$3,0*
0 Add four circle primitives for the rounded corners*
1,1,$1+$1,$2,$3*
1,1,$1+$1,$4,$5*
1,1,$1+$1,$6,$7*
1,1,$1+$1,$8,$9*
0 Add four rect primitives between the rounded corners*
20,1,$1+$1,$2,$3,$4,$5,0*
20,1,$1+$1,$4,$5,$6,$7,0*
20,1,$1+$1,$6,$7,$8,$9,0*
20,1,$1+$1,$8,$9,$2,$3,0*%
G04 Aperture macros list end*
%ADD10RoundRect,0.250000X0.450000X-0.262500X0.450000X0.262500X-0.450000X0.262500X-0.450000X-0.262500X0*%
%ADD11RoundRect,0.250000X-0.450000X0.262500X-0.450000X-0.262500X0.450000X-0.262500X0.450000X0.262500X0*%
%ADD12R,0.300000X1.300000*%
%ADD13RoundRect,0.100000X-0.637500X-0.100000X0.637500X-0.100000X0.637500X0.100000X-0.637500X0.100000X0*%
G04 APERTURE END LIST*
D10*
X143256000Y-137310500D03*
X143256000Y-135485500D03*
X153670000Y-139342500D03*
X153670000Y-137517500D03*
D11*
X143250000Y-121007500D03*
X143250000Y-122832500D03*
D12*
X152245000Y-124450000D03*
X151745000Y-124450000D03*
X151245000Y-124450000D03*
X150745000Y-124450000D03*
X150245000Y-124450000D03*
X149745000Y-124450000D03*
X149245000Y-124450000D03*
X148745000Y-124450000D03*
X148245000Y-124450000D03*
X147745000Y-124450000D03*
X147245000Y-124450000D03*
X146745000Y-124450000D03*
X146245000Y-124450000D03*
X145745000Y-124450000D03*
X145245000Y-124450000D03*
X144745000Y-124450000D03*
X144745000Y-110750000D03*
X145245000Y-110750000D03*
X145745000Y-110750000D03*
X146245000Y-110750000D03*
X146745000Y-110750000D03*
X147245000Y-110750000D03*
X147745000Y-110750000D03*
X148245000Y-110750000D03*
X148745000Y-110750000D03*
X149245000Y-110750000D03*
X149745000Y-110750000D03*
X150245000Y-110750000D03*
X150745000Y-110750000D03*
X151245000Y-110750000D03*
X151745000Y-110750000D03*
X152245000Y-110750000D03*
D11*
X153732400Y-121007500D03*
X153732400Y-122832500D03*
D13*
X145637500Y-139450000D03*
X145637500Y-138800000D03*
X145637500Y-138150000D03*
X145637500Y-137500000D03*
X145637500Y-136850000D03*
X145637500Y-136200000D03*
X145637500Y-135550000D03*
X151362500Y-135550000D03*
X151362500Y-136200000D03*
X151362500Y-136850000D03*
X151362500Y-137500000D03*
X151362500Y-138150000D03*
X151362500Y-138800000D03*
X151362500Y-139450000D03*
M02*
