G04 #@! TF.GenerationSoftware,KiCad,Pcbnew,9.0.1*
G04 #@! TF.CreationDate,2025-04-29T10:04:21+02:00*
G04 #@! TF.ProjectId,ProtoHu_revA_layer1,50726f74-6f48-4755-9f72-6576415f6c61,rev?*
G04 #@! TF.SameCoordinates,Original*
G04 #@! TF.FileFunction,Copper,L2,Bot*
G04 #@! TF.FilePolarity,Positive*
%FSLAX46Y46*%
G04 Gerber Fmt 4.6, Leading zero omitted, Abs format (unit mm)*
G04 Created by KiCad (PCBNEW 9.0.1) date 2025-04-29 10:04:21*
%MOMM*%
%LPD*%
G01*
G04 APERTURE LIST*
G04 Aperture macros list*
%AMRoundRect*
0 Rectangle with rounded corners*
0 $1 Rounding radius*
0 $2 $3 $4 $5 $6 $7 $8 $9 X,Y pos of 4 corners*
0 Add a 4 corners polygon primitive as box body*
4,1,4,$2,$3,$4,$5,$6,$7,$8,$9,$2,$3,0*
0 Add four circle primitives for the rounded corners*
1,1,$1+$1,$2,$3*
1,1,$1+$1,$4,$5*
1,1,$1+$1,$6,$7*
1,1,$1+$1,$8,$9*
0 Add four rect primitives between the rounded corners*
20,1,$1+$1,$2,$3,$4,$5,0*
20,1,$1+$1,$4,$5,$6,$7,0*
20,1,$1+$1,$6,$7,$8,$9,0*
20,1,$1+$1,$8,$9,$2,$3,0*%
G04 Aperture macros list end*
G04 #@! TA.AperFunction,SMDPad,CuDef*
%ADD10RoundRect,0.250000X0.450000X-0.262500X0.450000X0.262500X-0.450000X0.262500X-0.450000X-0.262500X0*%
G04 #@! TD*
G04 #@! TA.AperFunction,SMDPad,CuDef*
%ADD11RoundRect,0.250000X-0.450000X0.262500X-0.450000X-0.262500X0.450000X-0.262500X0.450000X0.262500X0*%
G04 #@! TD*
G04 #@! TA.AperFunction,SMDPad,CuDef*
%ADD12R,0.300000X1.300000*%
G04 #@! TD*
G04 #@! TA.AperFunction,ComponentPad*
%ADD13O,2.000000X1.250000*%
G04 #@! TD*
G04 #@! TA.AperFunction,SMDPad,CuDef*
%ADD14RoundRect,0.100000X-0.637500X-0.100000X0.637500X-0.100000X0.637500X0.100000X-0.637500X0.100000X0*%
G04 #@! TD*
G04 #@! TA.AperFunction,ViaPad*
%ADD15C,0.600000*%
G04 #@! TD*
G04 #@! TA.AperFunction,ViaPad*
%ADD16C,0.756400*%
G04 #@! TD*
G04 #@! TA.AperFunction,Conductor*
%ADD17C,0.300000*%
G04 #@! TD*
G04 #@! TA.AperFunction,Conductor*
%ADD18C,0.400000*%
G04 #@! TD*
G04 #@! TA.AperFunction,Conductor*
%ADD19C,0.500000*%
G04 #@! TD*
G04 #@! TA.AperFunction,Conductor*
%ADD20C,0.200000*%
G04 #@! TD*
G04 APERTURE END LIST*
D10*
X143256000Y-137310500D03*
X143256000Y-135485500D03*
X153670000Y-139342500D03*
X153670000Y-137517500D03*
D11*
X143250000Y-121007500D03*
X143250000Y-122832500D03*
D12*
X152245000Y-124450000D03*
X151745000Y-124450000D03*
X151245000Y-124450000D03*
X150745000Y-124450000D03*
X150245000Y-124450000D03*
X149745000Y-124450000D03*
X149245000Y-124450000D03*
X148745000Y-124450000D03*
X148245000Y-124450000D03*
X147745000Y-124450000D03*
X147245000Y-124450000D03*
X146745000Y-124450000D03*
X146245000Y-124450000D03*
X145745000Y-124450000D03*
X145245000Y-124450000D03*
X144745000Y-124450000D03*
X144745000Y-110750000D03*
X145245000Y-110750000D03*
X145745000Y-110750000D03*
X146245000Y-110750000D03*
X146745000Y-110750000D03*
X147245000Y-110750000D03*
X147745000Y-110750000D03*
X148245000Y-110750000D03*
X148745000Y-110750000D03*
X149245000Y-110750000D03*
X149745000Y-110750000D03*
X150245000Y-110750000D03*
X150745000Y-110750000D03*
X151245000Y-110750000D03*
X151745000Y-110750000D03*
X152245000Y-110750000D03*
D11*
X153732400Y-121007500D03*
X153732400Y-122832500D03*
D13*
X140716000Y-139700000D03*
X140716000Y-137160000D03*
X140716000Y-134620000D03*
X140716000Y-132080000D03*
X140716000Y-129540000D03*
X140716000Y-127000000D03*
X140716000Y-124460000D03*
X140716000Y-121920000D03*
X140716000Y-119380000D03*
X140716000Y-116840000D03*
X140716000Y-114300000D03*
X140716000Y-111760000D03*
X140716000Y-109220000D03*
X140716000Y-106680000D03*
X140716000Y-104140000D03*
X140716000Y-101600000D03*
X156274000Y-101600000D03*
X156274000Y-104140000D03*
X156274000Y-106680000D03*
X156274000Y-109220000D03*
X156274000Y-111760000D03*
X156274000Y-114300000D03*
X156274000Y-116840000D03*
X156274000Y-119380000D03*
X156274000Y-121920000D03*
X156274000Y-124460000D03*
X156274000Y-127000000D03*
X156274000Y-129540000D03*
X156274000Y-132080000D03*
X156274000Y-134620000D03*
X156274000Y-137160000D03*
X156274000Y-139700000D03*
D14*
X145637500Y-139450000D03*
X145637500Y-138800000D03*
X145637500Y-138150000D03*
X145637500Y-137500000D03*
X145637500Y-136850000D03*
X145637500Y-136200000D03*
X145637500Y-135550000D03*
X151362500Y-135550000D03*
X151362500Y-136200000D03*
X151362500Y-136850000D03*
X151362500Y-137500000D03*
X151362500Y-138150000D03*
X151362500Y-138800000D03*
X151362500Y-139450000D03*
D15*
X149700000Y-136200000D03*
X151130000Y-120500000D03*
X147300000Y-136200000D03*
X145750000Y-120500000D03*
X153670000Y-136398000D03*
X149700000Y-137700000D03*
X148240000Y-105470600D03*
X151130000Y-117094000D03*
X151130000Y-113284000D03*
X145669000Y-117094000D03*
X147300000Y-137700000D03*
X145669000Y-113284000D03*
D16*
X171983400Y-69570600D03*
X158013400Y-69570600D03*
X159283400Y-69570600D03*
X160553400Y-69570600D03*
X161823400Y-69570600D03*
X163093400Y-69570600D03*
X164363400Y-69570600D03*
X166903400Y-69570600D03*
X165633400Y-69570600D03*
X128803400Y-69570600D03*
X130073400Y-69570600D03*
X131343400Y-69570600D03*
X132613400Y-69570600D03*
X133883400Y-69570600D03*
X135153400Y-69570600D03*
X136423400Y-69570600D03*
X137693400Y-69570600D03*
X138963400Y-69570600D03*
X140233400Y-69570600D03*
X141503400Y-69570600D03*
X142773400Y-69570600D03*
X144043400Y-69570600D03*
X145313400Y-69570600D03*
X147853400Y-69570600D03*
X149123400Y-69570600D03*
X150393400Y-69570600D03*
X151663400Y-69570600D03*
X152933400Y-69570600D03*
D15*
X147066000Y-139446000D03*
X148844000Y-112776000D03*
D16*
X155473400Y-69570600D03*
X156743400Y-69570600D03*
X127508000Y-69596000D03*
X154178000Y-69596000D03*
D17*
X151362500Y-138150000D02*
X150150000Y-138150000D01*
X150350000Y-136850000D02*
X149700000Y-136200000D01*
X149286000Y-115250000D02*
X151130000Y-117094000D01*
X147066000Y-114193000D02*
X148123000Y-115250000D01*
D18*
X145750000Y-120500000D02*
X145242500Y-121007500D01*
X151130000Y-120500000D02*
X150599000Y-120500000D01*
D17*
X147320000Y-136652000D02*
X147122000Y-136850000D01*
X151362500Y-136850000D02*
X150350000Y-136850000D01*
X147122000Y-136850000D02*
X145637500Y-136850000D01*
X149700000Y-138450000D02*
X149700000Y-137700000D01*
X143320500Y-135550000D02*
X143256000Y-135485500D01*
X150150000Y-138150000D02*
X149700000Y-137700000D01*
X151362500Y-136200000D02*
X149700000Y-136200000D01*
D18*
X150599000Y-120500000D02*
X148123000Y-118024000D01*
D17*
X147066000Y-113284000D02*
X145669000Y-113284000D01*
X153390400Y-121070000D02*
X153732400Y-121070000D01*
X148123000Y-115250000D02*
X148123000Y-116332000D01*
X147100000Y-137500000D02*
X147300000Y-137700000D01*
X147066000Y-113284000D02*
X147066000Y-114193000D01*
X148240000Y-105470600D02*
X148240000Y-112110000D01*
D18*
X145750000Y-120500000D02*
X148123000Y-118127000D01*
D17*
X147320000Y-136200000D02*
X147320000Y-136652000D01*
X148123000Y-116332000D02*
X146431000Y-116332000D01*
X147320000Y-136200000D02*
X147320000Y-135720000D01*
D18*
X148123000Y-118024000D02*
X148123000Y-116332000D01*
D17*
X145637500Y-137500000D02*
X147100000Y-137500000D01*
D18*
X151700000Y-121070000D02*
X153390400Y-121070000D01*
X151130000Y-120500000D02*
X151700000Y-121070000D01*
D19*
X153670000Y-137517500D02*
X153670000Y-136398000D01*
D18*
X145242500Y-121007500D02*
X143250000Y-121007500D01*
D17*
X146431000Y-116332000D02*
X145669000Y-117094000D01*
X147150000Y-135550000D02*
X145637500Y-135550000D01*
X151362500Y-138800000D02*
X150050000Y-138800000D01*
D18*
X148123000Y-118127000D02*
X148123000Y-116332000D01*
D17*
X147320000Y-135720000D02*
X147150000Y-135550000D01*
X150050000Y-138800000D02*
X149700000Y-138450000D01*
X148123000Y-115250000D02*
X149286000Y-115250000D01*
X148240000Y-112110000D02*
X147066000Y-113284000D01*
X145637500Y-135550000D02*
X143320500Y-135550000D01*
X148745000Y-123210000D02*
X149122500Y-122832500D01*
X156025000Y-139446000D02*
X156279000Y-139700000D01*
D18*
X148162500Y-122832500D02*
X149500000Y-122832500D01*
X148162500Y-122832500D02*
X143250000Y-122832500D01*
D17*
X149700000Y-139450000D02*
X151362500Y-139450000D01*
D19*
X156279000Y-139700000D02*
X171983400Y-123995600D01*
X171983400Y-123995600D02*
X171983400Y-69570600D01*
D17*
X148745000Y-123205000D02*
X148745000Y-123415000D01*
X153773500Y-139446000D02*
X156025000Y-139446000D01*
X148745000Y-123415000D02*
X148745000Y-124260920D01*
X153670000Y-139342500D02*
X153773500Y-139446000D01*
X148745000Y-138495000D02*
X149700000Y-139450000D01*
X151362500Y-139450000D02*
X153562500Y-139450000D01*
X149122500Y-122832500D02*
X149500000Y-122832500D01*
X148745000Y-123415000D02*
X148745000Y-123210000D01*
X148162500Y-122832500D02*
X148372500Y-122832500D01*
X153562500Y-139450000D02*
X153670000Y-139342500D01*
X148745000Y-124450000D02*
X148745000Y-138495000D01*
D18*
X149500000Y-122832500D02*
X153732400Y-122832500D01*
D17*
X148372500Y-122832500D02*
X148745000Y-123205000D01*
D20*
X164750000Y-113449000D02*
X164750000Y-81750000D01*
X154300000Y-124450000D02*
X155500000Y-123250000D01*
X155500000Y-122699000D02*
X164750000Y-113449000D01*
X152245000Y-124450000D02*
X154300000Y-124450000D01*
X158013400Y-75013400D02*
X158013400Y-69570600D01*
X155500000Y-123250000D02*
X155500000Y-122699000D01*
X164750000Y-81750000D02*
X158013400Y-75013400D01*
X165750000Y-114989000D02*
X165750000Y-80750000D01*
X151745000Y-124450000D02*
X151745000Y-125495000D01*
X159258000Y-74258000D02*
X159258000Y-69596000D01*
X154739000Y-126000000D02*
X165750000Y-114989000D01*
X165750000Y-80750000D02*
X159258000Y-74258000D01*
X151745000Y-125495000D02*
X152250000Y-126000000D01*
X152250000Y-126000000D02*
X154739000Y-126000000D01*
X159258000Y-69596000D02*
X159283400Y-69570600D01*
X152000000Y-127000000D02*
X156279000Y-127000000D01*
X151245000Y-124450000D02*
X151245000Y-126245000D01*
X156279000Y-127000000D02*
X166750000Y-116529000D01*
X160451800Y-73451800D02*
X160451800Y-69672200D01*
X160451800Y-69672200D02*
X160553400Y-69570600D01*
X151245000Y-126245000D02*
X152000000Y-127000000D01*
X166750000Y-116529000D02*
X166750000Y-79750000D01*
X166750000Y-79750000D02*
X160451800Y-73451800D01*
X167750000Y-78750000D02*
X161823400Y-72823400D01*
X153540000Y-129540000D02*
X150745000Y-126745000D01*
X161823400Y-72823400D02*
X161823400Y-69570600D01*
X156692600Y-129540000D02*
X157009000Y-129540000D01*
X157009000Y-129540000D02*
X153540000Y-129540000D01*
X150745000Y-126745000D02*
X150745000Y-124450000D01*
X167750000Y-118799000D02*
X167750000Y-78750000D01*
X157009000Y-129540000D02*
X167750000Y-118799000D01*
X154830000Y-132080000D02*
X156274000Y-132080000D01*
X168750000Y-119604000D02*
X168750000Y-77750000D01*
X150245000Y-124450000D02*
X150245000Y-127495000D01*
X168750000Y-77750000D02*
X163093400Y-72093400D01*
X156274000Y-132080000D02*
X168750000Y-119604000D01*
X163093400Y-72093400D02*
X163093400Y-69570600D01*
X150245000Y-127495000D02*
X154830000Y-132080000D01*
X169750000Y-76750000D02*
X164363400Y-71363400D01*
X164363400Y-71363400D02*
X164363400Y-69570600D01*
X149745000Y-124450000D02*
X149745000Y-128091000D01*
X149745000Y-128091000D02*
X156274000Y-134620000D01*
X156274000Y-134620000D02*
X169750000Y-121144000D01*
X169750000Y-121144000D02*
X169750000Y-76750000D01*
X170750000Y-122684000D02*
X170750000Y-75750000D01*
X156274000Y-137160000D02*
X170750000Y-122684000D01*
X156274000Y-137160000D02*
X149245000Y-130131000D01*
X170750000Y-75750000D02*
X166903400Y-71903400D01*
X149245000Y-130131000D02*
X149245000Y-124450000D01*
X166903400Y-71903400D02*
X166903400Y-69570600D01*
X173228000Y-125522000D02*
X157500000Y-141250000D01*
X165633400Y-68935600D02*
X166573200Y-67995800D01*
X166573200Y-67995800D02*
X171907200Y-67995800D01*
X157500000Y-141250000D02*
X150500000Y-141250000D01*
X173228000Y-69316600D02*
X173228000Y-125522000D01*
X171907200Y-67995800D02*
X173228000Y-69316600D01*
X150250000Y-141250000D02*
X142271000Y-141250000D01*
X140721000Y-139700000D02*
X140721000Y-139192000D01*
X150500000Y-141250000D02*
X150250000Y-141250000D01*
X150500000Y-141100000D02*
X150350000Y-141250000D01*
X148245000Y-124450000D02*
X148245000Y-138745000D01*
X150350000Y-141250000D02*
X150250000Y-141250000D01*
X165633400Y-69570600D02*
X165633400Y-68935600D01*
X142271000Y-141250000D02*
X140721000Y-139700000D01*
X150500000Y-141000000D02*
X150750000Y-141250000D01*
X150500000Y-141000000D02*
X150500000Y-141100000D01*
X148245000Y-138745000D02*
X150500000Y-141000000D01*
X147745000Y-130255000D02*
X143600000Y-134400000D01*
X140840000Y-137160000D02*
X140716000Y-137160000D01*
X142100000Y-135059249D02*
X142100000Y-135900000D01*
X147745000Y-124450000D02*
X147745000Y-130255000D01*
X140716000Y-137160000D02*
X125476000Y-121920000D01*
X128803400Y-77696600D02*
X128803400Y-69570600D01*
X143600000Y-134400000D02*
X142759249Y-134400000D01*
X142100000Y-135900000D02*
X140840000Y-137160000D01*
X125476000Y-81024000D02*
X128803400Y-77696600D01*
X142759249Y-134400000D02*
X142100000Y-135059249D01*
X125476000Y-121920000D02*
X125476000Y-81024000D01*
X147245000Y-124450000D02*
X147245000Y-128091000D01*
X126492000Y-120396000D02*
X126492000Y-82008000D01*
X126492000Y-82008000D02*
X130073400Y-78426600D01*
X140716000Y-134620000D02*
X126492000Y-120396000D01*
X147245000Y-128091000D02*
X140716000Y-134620000D01*
X130073400Y-78426600D02*
X130073400Y-69570600D01*
X146745000Y-127505000D02*
X142170000Y-132080000D01*
X142170000Y-132080000D02*
X140716000Y-132080000D01*
X127508000Y-118872000D02*
X127508000Y-82992000D01*
X131343400Y-79156600D02*
X131343400Y-69570600D01*
X140716000Y-132080000D02*
X127508000Y-118872000D01*
X127508000Y-82992000D02*
X131343400Y-79156600D01*
X146745000Y-124450000D02*
X146745000Y-127505000D01*
X146245000Y-126755000D02*
X143460000Y-129540000D01*
X146245000Y-124450000D02*
X146245000Y-126755000D01*
X128524000Y-117348000D02*
X128524000Y-83976000D01*
X128524000Y-83976000D02*
X132613400Y-79886600D01*
X140716000Y-129540000D02*
X128524000Y-117348000D01*
X143460000Y-129540000D02*
X140716000Y-129540000D01*
X132613400Y-79886600D02*
X132613400Y-69570600D01*
X140721000Y-127000000D02*
X140372000Y-127000000D01*
X133883400Y-80616600D02*
X133883400Y-69570600D01*
X129540000Y-115819000D02*
X129540000Y-84960000D01*
X129540000Y-84960000D02*
X133883400Y-80616600D01*
X140721000Y-127000000D02*
X129540000Y-115819000D01*
X145745000Y-126005000D02*
X145745000Y-124450000D01*
X144750000Y-127000000D02*
X145745000Y-126005000D01*
X140721000Y-127000000D02*
X144750000Y-127000000D01*
X145245000Y-124450000D02*
X145245000Y-125255000D01*
X145245000Y-125255000D02*
X144500000Y-126000000D01*
X130556000Y-114295000D02*
X130556000Y-85944000D01*
X130556000Y-85944000D02*
X135153400Y-81346600D01*
X142261000Y-126000000D02*
X130556000Y-114295000D01*
X135153400Y-81346600D02*
X135153400Y-69570600D01*
X144500000Y-126000000D02*
X142261000Y-126000000D01*
X136423400Y-82076600D02*
X136423400Y-69570600D01*
X141500000Y-122699000D02*
X131572000Y-112771000D01*
X131572000Y-112771000D02*
X131572000Y-86928000D01*
X131572000Y-86928000D02*
X136423400Y-82076600D01*
X142450000Y-124450000D02*
X141500000Y-123500000D01*
X144745000Y-124450000D02*
X142450000Y-124450000D01*
X141500000Y-123500000D02*
X141500000Y-122699000D01*
X132588000Y-111247000D02*
X140721000Y-119380000D01*
X132588000Y-88204000D02*
X132588000Y-111247000D01*
X137693400Y-83098600D02*
X132588000Y-88204000D01*
X143891000Y-116210000D02*
X143891000Y-111125000D01*
X137693400Y-69570600D02*
X137693400Y-83098600D01*
X143891000Y-111125000D02*
X144266000Y-110750000D01*
X144266000Y-110750000D02*
X144745000Y-110750000D01*
X140721000Y-119380000D02*
X143891000Y-116210000D01*
X143256000Y-109982000D02*
X143764000Y-109474000D01*
X138963400Y-84036600D02*
X133604000Y-89396000D01*
X138963400Y-69570600D02*
X138963400Y-84036600D01*
X143256000Y-114305000D02*
X143256000Y-109982000D01*
X133604000Y-89396000D02*
X133604000Y-109723000D01*
X143764000Y-109474000D02*
X144780000Y-109474000D01*
X144780000Y-109474000D02*
X145245000Y-109939000D01*
X133604000Y-109723000D02*
X140721000Y-116840000D01*
X145245000Y-109939000D02*
X145245000Y-110750000D01*
X140721000Y-116840000D02*
X143256000Y-114305000D01*
X134620000Y-90880000D02*
X134620000Y-108199000D01*
X145745000Y-109169000D02*
X145745000Y-110750000D01*
X134620000Y-108199000D02*
X140721000Y-114300000D01*
X145288000Y-108712000D02*
X145745000Y-109169000D01*
X140233400Y-85266600D02*
X134620000Y-90880000D01*
X142556400Y-112464600D02*
X142556400Y-109442800D01*
X140721000Y-114300000D02*
X142556400Y-112464600D01*
X142556400Y-109442800D02*
X143287200Y-108712000D01*
X143287200Y-108712000D02*
X145288000Y-108712000D01*
X140233400Y-69570600D02*
X140233400Y-85266600D01*
X140721000Y-111760000D02*
X141986000Y-110495000D01*
X141986000Y-108774400D02*
X142810400Y-107950000D01*
X141986000Y-110495000D02*
X141986000Y-108774400D01*
X142810400Y-107950000D02*
X145655200Y-107950000D01*
X141503400Y-86496600D02*
X135636000Y-92364000D01*
X141503400Y-69570600D02*
X141503400Y-86496600D01*
X146245000Y-108539800D02*
X146245000Y-110750000D01*
X145655200Y-107950000D02*
X146245000Y-108539800D01*
X135636000Y-106675000D02*
X140721000Y-111760000D01*
X135636000Y-92364000D02*
X135636000Y-106675000D01*
X136652000Y-105151000D02*
X140721000Y-109220000D01*
X142682000Y-107000000D02*
X145670400Y-107000000D01*
X140721000Y-108961000D02*
X142682000Y-107000000D01*
X136652000Y-93704000D02*
X136652000Y-105151000D01*
X142824200Y-87531800D02*
X136652000Y-93704000D01*
X142824200Y-69621400D02*
X142824200Y-87531800D01*
X145670400Y-107000000D02*
X146745000Y-108074600D01*
X142773400Y-69570600D02*
X142824200Y-69621400D01*
X140721000Y-109220000D02*
X140721000Y-108961000D01*
X146745000Y-108074600D02*
X146745000Y-110750000D01*
X144068800Y-88931200D02*
X137668000Y-95332000D01*
X140208000Y-106680000D02*
X140716000Y-106680000D01*
X144043400Y-69570600D02*
X144068800Y-69596000D01*
X145639600Y-105750000D02*
X147245000Y-107355400D01*
X147245000Y-107355400D02*
X147245000Y-110750000D01*
X140716000Y-106680000D02*
X141646000Y-105750000D01*
X137668000Y-95332000D02*
X137668000Y-104140000D01*
X144068800Y-69596000D02*
X144068800Y-88931200D01*
X141646000Y-105750000D02*
X145639600Y-105750000D01*
X137668000Y-104140000D02*
X140208000Y-106680000D01*
X147745000Y-106745000D02*
X147745000Y-110750000D01*
X139700000Y-104140000D02*
X138684000Y-103124000D01*
X140721000Y-104140000D02*
X145140000Y-104140000D01*
X145140000Y-104140000D02*
X147745000Y-106745000D01*
X140721000Y-104140000D02*
X139700000Y-104140000D01*
X138684000Y-96816000D02*
X145313400Y-90186600D01*
X145313400Y-90186600D02*
X145313400Y-69570600D01*
X138684000Y-103124000D02*
X138684000Y-96816000D01*
X140721000Y-104140000D02*
X140721000Y-104133400D01*
X156274000Y-101600000D02*
X156274000Y-89274000D01*
X156274000Y-89274000D02*
X147853400Y-80853400D01*
X148745000Y-106513000D02*
X148745000Y-110750000D01*
X153658000Y-101600000D02*
X148745000Y-106513000D01*
X156279000Y-101600000D02*
X156274000Y-101600000D01*
X147853400Y-80853400D02*
X147853400Y-69570600D01*
X156274000Y-101600000D02*
X153658000Y-101600000D01*
X157750000Y-88750000D02*
X157750000Y-102669000D01*
X149245000Y-107255000D02*
X149245000Y-110750000D01*
X152360000Y-104140000D02*
X149245000Y-107255000D01*
X156279000Y-104140000D02*
X152360000Y-104140000D01*
X149123400Y-69570600D02*
X149123400Y-80123400D01*
X157750000Y-102669000D02*
X156279000Y-104140000D01*
X149123400Y-80123400D02*
X157750000Y-88750000D01*
X155344000Y-105750000D02*
X152000000Y-105750000D01*
X156279000Y-106680000D02*
X156274000Y-106680000D01*
X158750000Y-87750000D02*
X158750000Y-104209000D01*
X149745000Y-108005000D02*
X149745000Y-110750000D01*
X156274000Y-106680000D02*
X155344000Y-105750000D01*
X150393400Y-79393400D02*
X158750000Y-87750000D01*
X150393400Y-69570600D02*
X150393400Y-79393400D01*
X158750000Y-104209000D02*
X156279000Y-106680000D01*
X152000000Y-105750000D02*
X149745000Y-108005000D01*
X152000000Y-107000000D02*
X150245000Y-108755000D01*
X151663400Y-69570600D02*
X151638000Y-69596000D01*
X150245000Y-108755000D02*
X150245000Y-110750000D01*
X154306400Y-107000000D02*
X152000000Y-107000000D01*
X159750000Y-86750000D02*
X159750000Y-105749000D01*
X159750000Y-105749000D02*
X156279000Y-109220000D01*
X156279000Y-109220000D02*
X156279000Y-108972600D01*
X156279000Y-108972600D02*
X154306400Y-107000000D01*
X151638000Y-69596000D02*
X151638000Y-78638000D01*
X151638000Y-78638000D02*
X159750000Y-86750000D01*
X152300000Y-107950000D02*
X150745000Y-109505000D01*
X160750000Y-107289000D02*
X156279000Y-111760000D01*
X152933400Y-69570600D02*
X152933400Y-77933400D01*
X160750000Y-85750000D02*
X160750000Y-107289000D01*
X156279000Y-111760000D02*
X154940000Y-110421000D01*
X152933400Y-77933400D02*
X160750000Y-85750000D01*
X154940000Y-108903600D02*
X153986400Y-107950000D01*
X153986400Y-107950000D02*
X152300000Y-107950000D01*
X150745000Y-109505000D02*
X150745000Y-110750000D01*
X154940000Y-110421000D02*
X154940000Y-108903600D01*
X151245000Y-111913000D02*
X151245000Y-110750000D01*
X148844000Y-112776000D02*
X149352000Y-112268000D01*
X149352000Y-112268000D02*
X150890000Y-112268000D01*
X146650000Y-138150000D02*
X147066000Y-138566000D01*
X150890000Y-112268000D02*
X151245000Y-111913000D01*
X145637500Y-138150000D02*
X146650000Y-138150000D01*
X147066000Y-138566000D02*
X147066000Y-139446000D01*
X152116000Y-109250000D02*
X151745000Y-109621000D01*
X155422600Y-69621400D02*
X155422600Y-76422600D01*
X154000000Y-114561000D02*
X154000000Y-110000000D01*
X156279000Y-116840000D02*
X154000000Y-114561000D01*
X162750000Y-83750000D02*
X162750000Y-110369000D01*
X162750000Y-110369000D02*
X156279000Y-116840000D01*
X155473400Y-69570600D02*
X155422600Y-69621400D01*
X151745000Y-109621000D02*
X151745000Y-110750000D01*
X153250000Y-109250000D02*
X152116000Y-109250000D01*
X155422600Y-76422600D02*
X162750000Y-83750000D01*
X154000000Y-110000000D02*
X153250000Y-109250000D01*
X163750000Y-111909000D02*
X156279000Y-119380000D01*
X152750000Y-110750000D02*
X152245000Y-110750000D01*
X156279000Y-119380000D02*
X153250000Y-116351000D01*
X156743400Y-69570600D02*
X156743400Y-75743400D01*
X153250000Y-111250000D02*
X152750000Y-110750000D01*
X163750000Y-82750000D02*
X163750000Y-111909000D01*
X156743400Y-75743400D02*
X163750000Y-82750000D01*
X153250000Y-116351000D02*
X153250000Y-111250000D01*
X144550000Y-138800000D02*
X143900000Y-138150000D01*
X145637500Y-138800000D02*
X144550000Y-138800000D01*
X143256000Y-137310500D02*
X143256000Y-138150000D01*
X139150000Y-138150000D02*
X143256000Y-138150000D01*
X127508000Y-76992000D02*
X124500000Y-80000000D01*
X143900000Y-138150000D02*
X143256000Y-138150000D01*
X127508000Y-69596000D02*
X127508000Y-76992000D01*
X124500000Y-80000000D02*
X124500000Y-123500000D01*
X124500000Y-123500000D02*
X139150000Y-138150000D01*
X138684000Y-139446000D02*
X138684000Y-142240000D01*
X172466000Y-67056000D02*
X155194000Y-67056000D01*
X156274000Y-114300000D02*
X161798000Y-108776000D01*
X145641500Y-139446000D02*
X145637500Y-139450000D01*
X161798000Y-108776000D02*
X161798000Y-84798000D01*
X174244000Y-68834000D02*
X172466000Y-67056000D01*
X155194000Y-67056000D02*
X154178000Y-68072000D01*
X138684000Y-142240000D02*
X139194000Y-142750000D01*
X158250000Y-142750000D02*
X174244000Y-126756000D01*
X144450000Y-139450000D02*
X143684000Y-138684000D01*
X154178000Y-68072000D02*
X154178000Y-69596000D01*
X139194000Y-142750000D02*
X158250000Y-142750000D01*
X154178000Y-77178000D02*
X154178000Y-69596000D01*
X161798000Y-84798000D02*
X154178000Y-77178000D01*
X139446000Y-138684000D02*
X138684000Y-139446000D01*
X174244000Y-126756000D02*
X174244000Y-68834000D01*
X145637500Y-139450000D02*
X144450000Y-139450000D01*
X143684000Y-138684000D02*
X139446000Y-138684000D01*
G04 #@! TA.AperFunction,Conductor*
G36*
X147837539Y-135265685D02*
G01*
X147883294Y-135318489D01*
X147894500Y-135370000D01*
X147894500Y-138791144D01*
X147909325Y-138846470D01*
X147909324Y-138846470D01*
X147909325Y-138846472D01*
X147918384Y-138880284D01*
X147918385Y-138880286D01*
X147964527Y-138960208D01*
X147964531Y-138960213D01*
X148614637Y-139610319D01*
X148648122Y-139671642D01*
X148643138Y-139741334D01*
X148601266Y-139797267D01*
X148535802Y-139821684D01*
X148526956Y-139822000D01*
X147696770Y-139822000D01*
X147629731Y-139802315D01*
X147583976Y-139749511D01*
X147574032Y-139680353D01*
X147576995Y-139665906D01*
X147578982Y-139658486D01*
X147578984Y-139658485D01*
X147616500Y-139518475D01*
X147616500Y-139373525D01*
X147578984Y-139233515D01*
X147518942Y-139129520D01*
X147506511Y-139107988D01*
X147506506Y-139107982D01*
X147452819Y-139054295D01*
X147419334Y-138992972D01*
X147416500Y-138966614D01*
X147416500Y-138519858D01*
X147416500Y-138519856D01*
X147392614Y-138430712D01*
X147392474Y-138430469D01*
X147346470Y-138350788D01*
X146865212Y-137869530D01*
X146865209Y-137869528D01*
X146858763Y-137864582D01*
X146860492Y-137862327D01*
X146821777Y-137821713D01*
X146808000Y-137764907D01*
X146808000Y-135370000D01*
X146827685Y-135302961D01*
X146880489Y-135257206D01*
X146932000Y-135246000D01*
X147770500Y-135246000D01*
X147837539Y-135265685D01*
G37*
G04 #@! TD.AperFunction*
G04 #@! TA.AperFunction,Conductor*
G36*
X150184039Y-135265685D02*
G01*
X150229794Y-135318489D01*
X150241000Y-135370000D01*
X150241000Y-138925500D01*
X150238449Y-138934185D01*
X150239738Y-138943147D01*
X150228759Y-138967187D01*
X150221315Y-138992539D01*
X150214474Y-138998466D01*
X150210713Y-139006703D01*
X150188478Y-139020992D01*
X150168511Y-139038294D01*
X150157996Y-139040581D01*
X150151935Y-139044477D01*
X150117000Y-139049500D01*
X149917255Y-139049500D01*
X149850216Y-139029815D01*
X149829574Y-139013181D01*
X149181819Y-138365426D01*
X149148334Y-138304103D01*
X149145500Y-138277745D01*
X149145500Y-135370000D01*
X149165185Y-135302961D01*
X149217989Y-135257206D01*
X149269500Y-135246000D01*
X150117000Y-135246000D01*
X150184039Y-135265685D01*
G37*
G04 #@! TD.AperFunction*
G04 #@! TA.AperFunction,Conductor*
G36*
X149004995Y-111906685D02*
G01*
X149050750Y-111959489D01*
X149060694Y-112028647D01*
X149031669Y-112092203D01*
X149025637Y-112098681D01*
X148935137Y-112189181D01*
X148873814Y-112222666D01*
X148847456Y-112225500D01*
X148771525Y-112225500D01*
X148642993Y-112259940D01*
X148631511Y-112263017D01*
X148505988Y-112335488D01*
X148505982Y-112335493D01*
X148403493Y-112437982D01*
X148403488Y-112437988D01*
X148331017Y-112563511D01*
X148331016Y-112563515D01*
X148293500Y-112703525D01*
X148293500Y-112848475D01*
X148331016Y-112988485D01*
X148331017Y-112988488D01*
X148403488Y-113114011D01*
X148403490Y-113114013D01*
X148403491Y-113114015D01*
X148505985Y-113216509D01*
X148505986Y-113216510D01*
X148505988Y-113216511D01*
X148631511Y-113288982D01*
X148631512Y-113288982D01*
X148631515Y-113288984D01*
X148771525Y-113326500D01*
X148771528Y-113326500D01*
X148916472Y-113326500D01*
X148916475Y-113326500D01*
X149056485Y-113288984D01*
X149182015Y-113216509D01*
X149284509Y-113114015D01*
X149356984Y-112988485D01*
X149394500Y-112848475D01*
X149394500Y-112772544D01*
X149403144Y-112743103D01*
X149409668Y-112713117D01*
X149413422Y-112708101D01*
X149414185Y-112705505D01*
X149430819Y-112684863D01*
X149460863Y-112654819D01*
X149522186Y-112621334D01*
X149548544Y-112618500D01*
X150936142Y-112618500D01*
X150936144Y-112618500D01*
X151025288Y-112594614D01*
X151105212Y-112548470D01*
X151525470Y-112128212D01*
X151571614Y-112048288D01*
X151590204Y-111978905D01*
X151626569Y-111919246D01*
X151689416Y-111888717D01*
X151709979Y-111887000D01*
X152067638Y-111887000D01*
X152134677Y-111906685D01*
X152155319Y-111923319D01*
X152463681Y-112231681D01*
X152497166Y-112293004D01*
X152500000Y-112319362D01*
X152500000Y-121741638D01*
X152480315Y-121808677D01*
X152463681Y-121829319D01*
X152155319Y-122137681D01*
X152093996Y-122171166D01*
X152067638Y-122174000D01*
X144931362Y-122174000D01*
X144864323Y-122154315D01*
X144843681Y-122137681D01*
X144535319Y-121829319D01*
X144501834Y-121767996D01*
X144499000Y-121741638D01*
X144499000Y-112319362D01*
X144518685Y-112252323D01*
X144535319Y-112231681D01*
X144843681Y-111923319D01*
X144905004Y-111889834D01*
X144931362Y-111887000D01*
X148937956Y-111887000D01*
X149004995Y-111906685D01*
G37*
G04 #@! TD.AperFunction*
M02*
