%TF.GenerationSoftware,KiCad,Pcbnew,7.0.8*%
%TF.CreationDate,2023-11-19T20:45:10+01:00*%
%TF.ProjectId,ProtoHu_revA_layer1,50726f74-6f48-4755-9f72-6576415f6c61,rev?*%
%TF.SameCoordinates,Original*%
%TF.FileFunction,Drillmap*%
%TF.FilePolarity,Positive*%
%FSLAX45Y45*%
G04 Gerber Fmt 4.5, Leading zero omitted, Abs format (unit mm)*
G04 Created by KiCad (PCBNEW 7.0.8) date 2023-11-19 20:45:10*
%MOMM*%
%LPD*%
G01*
G04 APERTURE LIST*
%ADD10C,0.050000*%
%ADD11C,0.200000*%
%ADD12C,0.030000*%
%ADD13C,0.035000*%
%ADD14C,0.085000*%
G04 APERTURE END LIST*
D10*
X17548860Y-14580260D02*
X17548860Y-6420460D01*
X12151360Y-14580260D02*
G75*
G03*
X12351360Y-14780260I200000J0D01*
G01*
X12351360Y-6220460D02*
G75*
G03*
X12151360Y-6420460I0J-200000D01*
G01*
X17348860Y-14780260D02*
G75*
G03*
X17548860Y-14580260I0J200000D01*
G01*
X12351360Y-14780260D02*
X17348860Y-14780260D01*
X12151360Y-6420460D02*
X12151360Y-14580260D01*
X17548860Y-6420460D02*
G75*
G03*
X17348860Y-6220460I-200000J0D01*
G01*
X17348860Y-6220460D02*
X12351360Y-6220460D01*
D11*
D12*
X14551900Y-11313400D02*
X14581900Y-11343400D01*
X14581900Y-11313400D02*
X14551900Y-11343400D01*
X14551900Y-11694400D02*
X14581900Y-11724400D01*
X14581900Y-11694400D02*
X14551900Y-11724400D01*
X14560000Y-12035000D02*
X14590000Y-12065000D01*
X14590000Y-12035000D02*
X14560000Y-12065000D01*
X14691600Y-13929600D02*
X14721600Y-13959600D01*
X14721600Y-13929600D02*
X14691600Y-13959600D01*
X14715000Y-13605000D02*
X14745000Y-13635000D01*
X14745000Y-13605000D02*
X14715000Y-13635000D01*
X14715000Y-13755000D02*
X14745000Y-13785000D01*
X14745000Y-13755000D02*
X14715000Y-13785000D01*
X14809000Y-10532060D02*
X14839000Y-10562060D01*
X14839000Y-10532060D02*
X14809000Y-10562060D01*
X14869400Y-11262600D02*
X14899400Y-11292600D01*
X14899400Y-11262600D02*
X14869400Y-11292600D01*
X14955000Y-13605000D02*
X14985000Y-13635000D01*
X14985000Y-13605000D02*
X14955000Y-13635000D01*
X14955000Y-13755000D02*
X14985000Y-13785000D01*
X14985000Y-13755000D02*
X14955000Y-13785000D01*
X15098000Y-11313400D02*
X15128000Y-11343400D01*
X15128000Y-11313400D02*
X15098000Y-11343400D01*
X15098000Y-11694400D02*
X15128000Y-11724400D01*
X15128000Y-11694400D02*
X15098000Y-11724400D01*
X15098000Y-12035000D02*
X15128000Y-12065000D01*
X15128000Y-12035000D02*
X15098000Y-12065000D01*
X15352000Y-13624800D02*
X15382000Y-13654800D01*
X15382000Y-13624800D02*
X15352000Y-13654800D01*
D13*
X12768300Y-6959600D02*
G75*
G03*
X12768300Y-6959600I-17500J0D01*
G01*
X12897840Y-6957060D02*
G75*
G03*
X12897840Y-6957060I-17500J0D01*
G01*
X13024840Y-6957060D02*
G75*
G03*
X13024840Y-6957060I-17500J0D01*
G01*
X13151840Y-6957060D02*
G75*
G03*
X13151840Y-6957060I-17500J0D01*
G01*
X13278840Y-6957060D02*
G75*
G03*
X13278840Y-6957060I-17500J0D01*
G01*
X13405840Y-6957060D02*
G75*
G03*
X13405840Y-6957060I-17500J0D01*
G01*
X13532840Y-6957060D02*
G75*
G03*
X13532840Y-6957060I-17500J0D01*
G01*
X13659840Y-6957060D02*
G75*
G03*
X13659840Y-6957060I-17500J0D01*
G01*
X13786840Y-6957060D02*
G75*
G03*
X13786840Y-6957060I-17500J0D01*
G01*
X13913840Y-6957060D02*
G75*
G03*
X13913840Y-6957060I-17500J0D01*
G01*
X14040840Y-6957060D02*
G75*
G03*
X14040840Y-6957060I-17500J0D01*
G01*
X14167840Y-6957060D02*
G75*
G03*
X14167840Y-6957060I-17500J0D01*
G01*
X14294840Y-6957060D02*
G75*
G03*
X14294840Y-6957060I-17500J0D01*
G01*
X14421840Y-6957060D02*
G75*
G03*
X14421840Y-6957060I-17500J0D01*
G01*
X14548840Y-6957060D02*
G75*
G03*
X14548840Y-6957060I-17500J0D01*
G01*
X14802840Y-6957060D02*
G75*
G03*
X14802840Y-6957060I-17500J0D01*
G01*
X14929840Y-6957060D02*
G75*
G03*
X14929840Y-6957060I-17500J0D01*
G01*
X15056840Y-6957060D02*
G75*
G03*
X15056840Y-6957060I-17500J0D01*
G01*
X15183840Y-6957060D02*
G75*
G03*
X15183840Y-6957060I-17500J0D01*
G01*
X15310840Y-6957060D02*
G75*
G03*
X15310840Y-6957060I-17500J0D01*
G01*
X15435300Y-6959600D02*
G75*
G03*
X15435300Y-6959600I-17500J0D01*
G01*
X15564840Y-6957060D02*
G75*
G03*
X15564840Y-6957060I-17500J0D01*
G01*
X15691840Y-6957060D02*
G75*
G03*
X15691840Y-6957060I-17500J0D01*
G01*
X15818840Y-6957060D02*
G75*
G03*
X15818840Y-6957060I-17500J0D01*
G01*
X15945840Y-6957060D02*
G75*
G03*
X15945840Y-6957060I-17500J0D01*
G01*
X16072840Y-6957060D02*
G75*
G03*
X16072840Y-6957060I-17500J0D01*
G01*
X16199840Y-6957060D02*
G75*
G03*
X16199840Y-6957060I-17500J0D01*
G01*
X16326840Y-6957060D02*
G75*
G03*
X16326840Y-6957060I-17500J0D01*
G01*
X16453840Y-6957060D02*
G75*
G03*
X16453840Y-6957060I-17500J0D01*
G01*
X16580840Y-6957060D02*
G75*
G03*
X16580840Y-6957060I-17500J0D01*
G01*
X16707840Y-6957060D02*
G75*
G03*
X16707840Y-6957060I-17500J0D01*
G01*
X17215840Y-6957060D02*
G75*
G03*
X17215840Y-6957060I-17500J0D01*
G01*
D14*
X14071600Y-10117500D02*
X14071600Y-10202500D01*
X14029100Y-10160000D02*
X14114100Y-10160000D01*
X14071600Y-10371500D02*
X14071600Y-10456500D01*
X14029100Y-10414000D02*
X14114100Y-10414000D01*
X14071600Y-10625500D02*
X14071600Y-10710500D01*
X14029100Y-10668000D02*
X14114100Y-10668000D01*
X14071600Y-10879500D02*
X14071600Y-10964500D01*
X14029100Y-10922000D02*
X14114100Y-10922000D01*
X14071600Y-11133500D02*
X14071600Y-11218500D01*
X14029100Y-11176000D02*
X14114100Y-11176000D01*
X14071600Y-11387500D02*
X14071600Y-11472500D01*
X14029100Y-11430000D02*
X14114100Y-11430000D01*
X14071600Y-11641500D02*
X14071600Y-11726500D01*
X14029100Y-11684000D02*
X14114100Y-11684000D01*
X14071600Y-11895500D02*
X14071600Y-11980500D01*
X14029100Y-11938000D02*
X14114100Y-11938000D01*
X14071600Y-12149500D02*
X14071600Y-12234500D01*
X14029100Y-12192000D02*
X14114100Y-12192000D01*
X14071600Y-12403500D02*
X14071600Y-12488500D01*
X14029100Y-12446000D02*
X14114100Y-12446000D01*
X14071600Y-12657500D02*
X14071600Y-12742500D01*
X14029100Y-12700000D02*
X14114100Y-12700000D01*
X14071600Y-12911500D02*
X14071600Y-12996500D01*
X14029100Y-12954000D02*
X14114100Y-12954000D01*
X14071600Y-13165500D02*
X14071600Y-13250500D01*
X14029100Y-13208000D02*
X14114100Y-13208000D01*
X14071600Y-13419500D02*
X14071600Y-13504500D01*
X14029100Y-13462000D02*
X14114100Y-13462000D01*
X14071600Y-13673500D02*
X14071600Y-13758500D01*
X14029100Y-13716000D02*
X14114100Y-13716000D01*
X14071600Y-13927500D02*
X14071600Y-14012500D01*
X14029100Y-13970000D02*
X14114100Y-13970000D01*
X15627400Y-10117500D02*
X15627400Y-10202500D01*
X15584900Y-10160000D02*
X15669900Y-10160000D01*
X15627400Y-10371500D02*
X15627400Y-10456500D01*
X15584900Y-10414000D02*
X15669900Y-10414000D01*
X15627400Y-10625500D02*
X15627400Y-10710500D01*
X15584900Y-10668000D02*
X15669900Y-10668000D01*
X15627400Y-10879500D02*
X15627400Y-10964500D01*
X15584900Y-10922000D02*
X15669900Y-10922000D01*
X15627400Y-11133500D02*
X15627400Y-11218500D01*
X15584900Y-11176000D02*
X15669900Y-11176000D01*
X15627400Y-11387500D02*
X15627400Y-11472500D01*
X15584900Y-11430000D02*
X15669900Y-11430000D01*
X15627400Y-11641500D02*
X15627400Y-11726500D01*
X15584900Y-11684000D02*
X15669900Y-11684000D01*
X15627400Y-11895500D02*
X15627400Y-11980500D01*
X15584900Y-11938000D02*
X15669900Y-11938000D01*
X15627400Y-12149500D02*
X15627400Y-12234500D01*
X15584900Y-12192000D02*
X15669900Y-12192000D01*
X15627400Y-12403500D02*
X15627400Y-12488500D01*
X15584900Y-12446000D02*
X15669900Y-12446000D01*
X15627400Y-12657500D02*
X15627400Y-12742500D01*
X15584900Y-12700000D02*
X15669900Y-12700000D01*
X15627400Y-12911500D02*
X15627400Y-12996500D01*
X15584900Y-12954000D02*
X15669900Y-12954000D01*
X15627400Y-13165500D02*
X15627400Y-13250500D01*
X15584900Y-13208000D02*
X15669900Y-13208000D01*
X15627400Y-13419500D02*
X15627400Y-13504500D01*
X15584900Y-13462000D02*
X15669900Y-13462000D01*
X15627400Y-13673500D02*
X15627400Y-13758500D01*
X15584900Y-13716000D02*
X15669900Y-13716000D01*
X15627400Y-13927500D02*
X15627400Y-14012500D01*
X15584900Y-13970000D02*
X15669900Y-13970000D01*
D11*
X12409637Y-15094244D02*
X12409637Y-14894244D01*
X12409637Y-14894244D02*
X12457256Y-14894244D01*
X12457256Y-14894244D02*
X12485827Y-14903768D01*
X12485827Y-14903768D02*
X12504875Y-14922815D01*
X12504875Y-14922815D02*
X12514399Y-14941863D01*
X12514399Y-14941863D02*
X12523922Y-14979958D01*
X12523922Y-14979958D02*
X12523922Y-15008529D01*
X12523922Y-15008529D02*
X12514399Y-15046625D01*
X12514399Y-15046625D02*
X12504875Y-15065672D01*
X12504875Y-15065672D02*
X12485827Y-15084720D01*
X12485827Y-15084720D02*
X12457256Y-15094244D01*
X12457256Y-15094244D02*
X12409637Y-15094244D01*
X12609637Y-15094244D02*
X12609637Y-14960910D01*
X12609637Y-14999006D02*
X12619161Y-14979958D01*
X12619161Y-14979958D02*
X12628684Y-14970434D01*
X12628684Y-14970434D02*
X12647732Y-14960910D01*
X12647732Y-14960910D02*
X12666780Y-14960910D01*
X12733446Y-15094244D02*
X12733446Y-14960910D01*
X12733446Y-14894244D02*
X12723922Y-14903768D01*
X12723922Y-14903768D02*
X12733446Y-14913291D01*
X12733446Y-14913291D02*
X12742970Y-14903768D01*
X12742970Y-14903768D02*
X12733446Y-14894244D01*
X12733446Y-14894244D02*
X12733446Y-14913291D01*
X12857256Y-15094244D02*
X12838208Y-15084720D01*
X12838208Y-15084720D02*
X12828684Y-15065672D01*
X12828684Y-15065672D02*
X12828684Y-14894244D01*
X12962018Y-15094244D02*
X12942970Y-15084720D01*
X12942970Y-15084720D02*
X12933446Y-15065672D01*
X12933446Y-15065672D02*
X12933446Y-14894244D01*
X13190589Y-15094244D02*
X13190589Y-14894244D01*
X13190589Y-14894244D02*
X13257256Y-15037101D01*
X13257256Y-15037101D02*
X13323922Y-14894244D01*
X13323922Y-14894244D02*
X13323922Y-15094244D01*
X13504875Y-15094244D02*
X13504875Y-14989482D01*
X13504875Y-14989482D02*
X13495351Y-14970434D01*
X13495351Y-14970434D02*
X13476303Y-14960910D01*
X13476303Y-14960910D02*
X13438208Y-14960910D01*
X13438208Y-14960910D02*
X13419161Y-14970434D01*
X13504875Y-15084720D02*
X13485827Y-15094244D01*
X13485827Y-15094244D02*
X13438208Y-15094244D01*
X13438208Y-15094244D02*
X13419161Y-15084720D01*
X13419161Y-15084720D02*
X13409637Y-15065672D01*
X13409637Y-15065672D02*
X13409637Y-15046625D01*
X13409637Y-15046625D02*
X13419161Y-15027577D01*
X13419161Y-15027577D02*
X13438208Y-15018053D01*
X13438208Y-15018053D02*
X13485827Y-15018053D01*
X13485827Y-15018053D02*
X13504875Y-15008529D01*
X13600113Y-14960910D02*
X13600113Y-15160910D01*
X13600113Y-14970434D02*
X13619161Y-14960910D01*
X13619161Y-14960910D02*
X13657256Y-14960910D01*
X13657256Y-14960910D02*
X13676303Y-14970434D01*
X13676303Y-14970434D02*
X13685827Y-14979958D01*
X13685827Y-14979958D02*
X13695351Y-14999006D01*
X13695351Y-14999006D02*
X13695351Y-15056148D01*
X13695351Y-15056148D02*
X13685827Y-15075196D01*
X13685827Y-15075196D02*
X13676303Y-15084720D01*
X13676303Y-15084720D02*
X13657256Y-15094244D01*
X13657256Y-15094244D02*
X13619161Y-15094244D01*
X13619161Y-15094244D02*
X13600113Y-15084720D01*
X13781065Y-15075196D02*
X13790589Y-15084720D01*
X13790589Y-15084720D02*
X13781065Y-15094244D01*
X13781065Y-15094244D02*
X13771542Y-15084720D01*
X13771542Y-15084720D02*
X13781065Y-15075196D01*
X13781065Y-15075196D02*
X13781065Y-15094244D01*
X13781065Y-14970434D02*
X13790589Y-14979958D01*
X13790589Y-14979958D02*
X13781065Y-14989482D01*
X13781065Y-14989482D02*
X13771542Y-14979958D01*
X13771542Y-14979958D02*
X13781065Y-14970434D01*
X13781065Y-14970434D02*
X13781065Y-14989482D01*
D12*
X12118860Y-15407760D02*
X12148860Y-15437760D01*
X12148860Y-15407760D02*
X12118860Y-15437760D01*
D11*
X12447732Y-15314244D02*
X12466780Y-15314244D01*
X12466780Y-15314244D02*
X12485827Y-15323768D01*
X12485827Y-15323768D02*
X12495351Y-15333291D01*
X12495351Y-15333291D02*
X12504875Y-15352339D01*
X12504875Y-15352339D02*
X12514399Y-15390434D01*
X12514399Y-15390434D02*
X12514399Y-15438053D01*
X12514399Y-15438053D02*
X12504875Y-15476148D01*
X12504875Y-15476148D02*
X12495351Y-15495196D01*
X12495351Y-15495196D02*
X12485827Y-15504720D01*
X12485827Y-15504720D02*
X12466780Y-15514244D01*
X12466780Y-15514244D02*
X12447732Y-15514244D01*
X12447732Y-15514244D02*
X12428684Y-15504720D01*
X12428684Y-15504720D02*
X12419161Y-15495196D01*
X12419161Y-15495196D02*
X12409637Y-15476148D01*
X12409637Y-15476148D02*
X12400113Y-15438053D01*
X12400113Y-15438053D02*
X12400113Y-15390434D01*
X12400113Y-15390434D02*
X12409637Y-15352339D01*
X12409637Y-15352339D02*
X12419161Y-15333291D01*
X12419161Y-15333291D02*
X12428684Y-15323768D01*
X12428684Y-15323768D02*
X12447732Y-15314244D01*
X12600113Y-15495196D02*
X12609637Y-15504720D01*
X12609637Y-15504720D02*
X12600113Y-15514244D01*
X12600113Y-15514244D02*
X12590589Y-15504720D01*
X12590589Y-15504720D02*
X12600113Y-15495196D01*
X12600113Y-15495196D02*
X12600113Y-15514244D01*
X12676303Y-15314244D02*
X12800113Y-15314244D01*
X12800113Y-15314244D02*
X12733446Y-15390434D01*
X12733446Y-15390434D02*
X12762018Y-15390434D01*
X12762018Y-15390434D02*
X12781065Y-15399958D01*
X12781065Y-15399958D02*
X12790589Y-15409482D01*
X12790589Y-15409482D02*
X12800113Y-15428529D01*
X12800113Y-15428529D02*
X12800113Y-15476148D01*
X12800113Y-15476148D02*
X12790589Y-15495196D01*
X12790589Y-15495196D02*
X12781065Y-15504720D01*
X12781065Y-15504720D02*
X12762018Y-15514244D01*
X12762018Y-15514244D02*
X12704875Y-15514244D01*
X12704875Y-15514244D02*
X12685827Y-15504720D01*
X12685827Y-15504720D02*
X12676303Y-15495196D01*
X12923922Y-15314244D02*
X12942970Y-15314244D01*
X12942970Y-15314244D02*
X12962018Y-15323768D01*
X12962018Y-15323768D02*
X12971542Y-15333291D01*
X12971542Y-15333291D02*
X12981065Y-15352339D01*
X12981065Y-15352339D02*
X12990589Y-15390434D01*
X12990589Y-15390434D02*
X12990589Y-15438053D01*
X12990589Y-15438053D02*
X12981065Y-15476148D01*
X12981065Y-15476148D02*
X12971542Y-15495196D01*
X12971542Y-15495196D02*
X12962018Y-15504720D01*
X12962018Y-15504720D02*
X12942970Y-15514244D01*
X12942970Y-15514244D02*
X12923922Y-15514244D01*
X12923922Y-15514244D02*
X12904875Y-15504720D01*
X12904875Y-15504720D02*
X12895351Y-15495196D01*
X12895351Y-15495196D02*
X12885827Y-15476148D01*
X12885827Y-15476148D02*
X12876303Y-15438053D01*
X12876303Y-15438053D02*
X12876303Y-15390434D01*
X12876303Y-15390434D02*
X12885827Y-15352339D01*
X12885827Y-15352339D02*
X12895351Y-15333291D01*
X12895351Y-15333291D02*
X12904875Y-15323768D01*
X12904875Y-15323768D02*
X12923922Y-15314244D01*
X13114399Y-15314244D02*
X13133446Y-15314244D01*
X13133446Y-15314244D02*
X13152494Y-15323768D01*
X13152494Y-15323768D02*
X13162018Y-15333291D01*
X13162018Y-15333291D02*
X13171542Y-15352339D01*
X13171542Y-15352339D02*
X13181065Y-15390434D01*
X13181065Y-15390434D02*
X13181065Y-15438053D01*
X13181065Y-15438053D02*
X13171542Y-15476148D01*
X13171542Y-15476148D02*
X13162018Y-15495196D01*
X13162018Y-15495196D02*
X13152494Y-15504720D01*
X13152494Y-15504720D02*
X13133446Y-15514244D01*
X13133446Y-15514244D02*
X13114399Y-15514244D01*
X13114399Y-15514244D02*
X13095351Y-15504720D01*
X13095351Y-15504720D02*
X13085827Y-15495196D01*
X13085827Y-15495196D02*
X13076303Y-15476148D01*
X13076303Y-15476148D02*
X13066780Y-15438053D01*
X13066780Y-15438053D02*
X13066780Y-15390434D01*
X13066780Y-15390434D02*
X13076303Y-15352339D01*
X13076303Y-15352339D02*
X13085827Y-15333291D01*
X13085827Y-15333291D02*
X13095351Y-15323768D01*
X13095351Y-15323768D02*
X13114399Y-15314244D01*
X13266780Y-15514244D02*
X13266780Y-15380910D01*
X13266780Y-15399958D02*
X13276303Y-15390434D01*
X13276303Y-15390434D02*
X13295351Y-15380910D01*
X13295351Y-15380910D02*
X13323923Y-15380910D01*
X13323923Y-15380910D02*
X13342970Y-15390434D01*
X13342970Y-15390434D02*
X13352494Y-15409482D01*
X13352494Y-15409482D02*
X13352494Y-15514244D01*
X13352494Y-15409482D02*
X13362018Y-15390434D01*
X13362018Y-15390434D02*
X13381065Y-15380910D01*
X13381065Y-15380910D02*
X13409637Y-15380910D01*
X13409637Y-15380910D02*
X13428684Y-15390434D01*
X13428684Y-15390434D02*
X13438208Y-15409482D01*
X13438208Y-15409482D02*
X13438208Y-15514244D01*
X13533446Y-15514244D02*
X13533446Y-15380910D01*
X13533446Y-15399958D02*
X13542970Y-15390434D01*
X13542970Y-15390434D02*
X13562018Y-15380910D01*
X13562018Y-15380910D02*
X13590589Y-15380910D01*
X13590589Y-15380910D02*
X13609637Y-15390434D01*
X13609637Y-15390434D02*
X13619161Y-15409482D01*
X13619161Y-15409482D02*
X13619161Y-15514244D01*
X13619161Y-15409482D02*
X13628684Y-15390434D01*
X13628684Y-15390434D02*
X13647732Y-15380910D01*
X13647732Y-15380910D02*
X13676303Y-15380910D01*
X13676303Y-15380910D02*
X13695351Y-15390434D01*
X13695351Y-15390434D02*
X13704875Y-15409482D01*
X13704875Y-15409482D02*
X13704875Y-15514244D01*
X14095351Y-15304720D02*
X13923923Y-15561863D01*
X14352494Y-15314244D02*
X14371542Y-15314244D01*
X14371542Y-15314244D02*
X14390589Y-15323768D01*
X14390589Y-15323768D02*
X14400113Y-15333291D01*
X14400113Y-15333291D02*
X14409637Y-15352339D01*
X14409637Y-15352339D02*
X14419161Y-15390434D01*
X14419161Y-15390434D02*
X14419161Y-15438053D01*
X14419161Y-15438053D02*
X14409637Y-15476148D01*
X14409637Y-15476148D02*
X14400113Y-15495196D01*
X14400113Y-15495196D02*
X14390589Y-15504720D01*
X14390589Y-15504720D02*
X14371542Y-15514244D01*
X14371542Y-15514244D02*
X14352494Y-15514244D01*
X14352494Y-15514244D02*
X14333446Y-15504720D01*
X14333446Y-15504720D02*
X14323923Y-15495196D01*
X14323923Y-15495196D02*
X14314399Y-15476148D01*
X14314399Y-15476148D02*
X14304875Y-15438053D01*
X14304875Y-15438053D02*
X14304875Y-15390434D01*
X14304875Y-15390434D02*
X14314399Y-15352339D01*
X14314399Y-15352339D02*
X14323923Y-15333291D01*
X14323923Y-15333291D02*
X14333446Y-15323768D01*
X14333446Y-15323768D02*
X14352494Y-15314244D01*
X14504875Y-15495196D02*
X14514399Y-15504720D01*
X14514399Y-15504720D02*
X14504875Y-15514244D01*
X14504875Y-15514244D02*
X14495351Y-15504720D01*
X14495351Y-15504720D02*
X14504875Y-15495196D01*
X14504875Y-15495196D02*
X14504875Y-15514244D01*
X14638208Y-15314244D02*
X14657256Y-15314244D01*
X14657256Y-15314244D02*
X14676304Y-15323768D01*
X14676304Y-15323768D02*
X14685827Y-15333291D01*
X14685827Y-15333291D02*
X14695351Y-15352339D01*
X14695351Y-15352339D02*
X14704875Y-15390434D01*
X14704875Y-15390434D02*
X14704875Y-15438053D01*
X14704875Y-15438053D02*
X14695351Y-15476148D01*
X14695351Y-15476148D02*
X14685827Y-15495196D01*
X14685827Y-15495196D02*
X14676304Y-15504720D01*
X14676304Y-15504720D02*
X14657256Y-15514244D01*
X14657256Y-15514244D02*
X14638208Y-15514244D01*
X14638208Y-15514244D02*
X14619161Y-15504720D01*
X14619161Y-15504720D02*
X14609637Y-15495196D01*
X14609637Y-15495196D02*
X14600113Y-15476148D01*
X14600113Y-15476148D02*
X14590589Y-15438053D01*
X14590589Y-15438053D02*
X14590589Y-15390434D01*
X14590589Y-15390434D02*
X14600113Y-15352339D01*
X14600113Y-15352339D02*
X14609637Y-15333291D01*
X14609637Y-15333291D02*
X14619161Y-15323768D01*
X14619161Y-15323768D02*
X14638208Y-15314244D01*
X14895351Y-15514244D02*
X14781066Y-15514244D01*
X14838208Y-15514244D02*
X14838208Y-15314244D01*
X14838208Y-15314244D02*
X14819161Y-15342815D01*
X14819161Y-15342815D02*
X14800113Y-15361863D01*
X14800113Y-15361863D02*
X14781066Y-15371387D01*
X15085827Y-15514244D02*
X14971542Y-15514244D01*
X15028685Y-15514244D02*
X15028685Y-15314244D01*
X15028685Y-15314244D02*
X15009637Y-15342815D01*
X15009637Y-15342815D02*
X14990589Y-15361863D01*
X14990589Y-15361863D02*
X14971542Y-15371387D01*
X15200113Y-15399958D02*
X15181066Y-15390434D01*
X15181066Y-15390434D02*
X15171542Y-15380910D01*
X15171542Y-15380910D02*
X15162018Y-15361863D01*
X15162018Y-15361863D02*
X15162018Y-15352339D01*
X15162018Y-15352339D02*
X15171542Y-15333291D01*
X15171542Y-15333291D02*
X15181066Y-15323768D01*
X15181066Y-15323768D02*
X15200113Y-15314244D01*
X15200113Y-15314244D02*
X15238208Y-15314244D01*
X15238208Y-15314244D02*
X15257256Y-15323768D01*
X15257256Y-15323768D02*
X15266780Y-15333291D01*
X15266780Y-15333291D02*
X15276304Y-15352339D01*
X15276304Y-15352339D02*
X15276304Y-15361863D01*
X15276304Y-15361863D02*
X15266780Y-15380910D01*
X15266780Y-15380910D02*
X15257256Y-15390434D01*
X15257256Y-15390434D02*
X15238208Y-15399958D01*
X15238208Y-15399958D02*
X15200113Y-15399958D01*
X15200113Y-15399958D02*
X15181066Y-15409482D01*
X15181066Y-15409482D02*
X15171542Y-15419006D01*
X15171542Y-15419006D02*
X15162018Y-15438053D01*
X15162018Y-15438053D02*
X15162018Y-15476148D01*
X15162018Y-15476148D02*
X15171542Y-15495196D01*
X15171542Y-15495196D02*
X15181066Y-15504720D01*
X15181066Y-15504720D02*
X15200113Y-15514244D01*
X15200113Y-15514244D02*
X15238208Y-15514244D01*
X15238208Y-15514244D02*
X15257256Y-15504720D01*
X15257256Y-15504720D02*
X15266780Y-15495196D01*
X15266780Y-15495196D02*
X15276304Y-15476148D01*
X15276304Y-15476148D02*
X15276304Y-15438053D01*
X15276304Y-15438053D02*
X15266780Y-15419006D01*
X15266780Y-15419006D02*
X15257256Y-15409482D01*
X15257256Y-15409482D02*
X15238208Y-15399958D01*
X15352494Y-15314244D02*
X15352494Y-15352339D01*
X15428685Y-15314244D02*
X15428685Y-15352339D01*
X15723923Y-15590434D02*
X15714399Y-15580910D01*
X15714399Y-15580910D02*
X15695351Y-15552339D01*
X15695351Y-15552339D02*
X15685828Y-15533291D01*
X15685828Y-15533291D02*
X15676304Y-15504720D01*
X15676304Y-15504720D02*
X15666780Y-15457101D01*
X15666780Y-15457101D02*
X15666780Y-15419006D01*
X15666780Y-15419006D02*
X15676304Y-15371387D01*
X15676304Y-15371387D02*
X15685828Y-15342815D01*
X15685828Y-15342815D02*
X15695351Y-15323768D01*
X15695351Y-15323768D02*
X15714399Y-15295196D01*
X15714399Y-15295196D02*
X15723923Y-15285672D01*
X15904875Y-15514244D02*
X15790589Y-15514244D01*
X15847732Y-15514244D02*
X15847732Y-15314244D01*
X15847732Y-15314244D02*
X15828685Y-15342815D01*
X15828685Y-15342815D02*
X15809637Y-15361863D01*
X15809637Y-15361863D02*
X15790589Y-15371387D01*
X16076304Y-15380910D02*
X16076304Y-15514244D01*
X16028685Y-15304720D02*
X15981066Y-15447577D01*
X15981066Y-15447577D02*
X16104875Y-15447577D01*
X16333447Y-15514244D02*
X16333447Y-15314244D01*
X16419161Y-15514244D02*
X16419161Y-15409482D01*
X16419161Y-15409482D02*
X16409637Y-15390434D01*
X16409637Y-15390434D02*
X16390590Y-15380910D01*
X16390590Y-15380910D02*
X16362018Y-15380910D01*
X16362018Y-15380910D02*
X16342970Y-15390434D01*
X16342970Y-15390434D02*
X16333447Y-15399958D01*
X16542970Y-15514244D02*
X16523923Y-15504720D01*
X16523923Y-15504720D02*
X16514399Y-15495196D01*
X16514399Y-15495196D02*
X16504875Y-15476148D01*
X16504875Y-15476148D02*
X16504875Y-15419006D01*
X16504875Y-15419006D02*
X16514399Y-15399958D01*
X16514399Y-15399958D02*
X16523923Y-15390434D01*
X16523923Y-15390434D02*
X16542970Y-15380910D01*
X16542970Y-15380910D02*
X16571542Y-15380910D01*
X16571542Y-15380910D02*
X16590590Y-15390434D01*
X16590590Y-15390434D02*
X16600113Y-15399958D01*
X16600113Y-15399958D02*
X16609637Y-15419006D01*
X16609637Y-15419006D02*
X16609637Y-15476148D01*
X16609637Y-15476148D02*
X16600113Y-15495196D01*
X16600113Y-15495196D02*
X16590590Y-15504720D01*
X16590590Y-15504720D02*
X16571542Y-15514244D01*
X16571542Y-15514244D02*
X16542970Y-15514244D01*
X16723923Y-15514244D02*
X16704875Y-15504720D01*
X16704875Y-15504720D02*
X16695351Y-15485672D01*
X16695351Y-15485672D02*
X16695351Y-15314244D01*
X16876304Y-15504720D02*
X16857256Y-15514244D01*
X16857256Y-15514244D02*
X16819161Y-15514244D01*
X16819161Y-15514244D02*
X16800113Y-15504720D01*
X16800113Y-15504720D02*
X16790590Y-15485672D01*
X16790590Y-15485672D02*
X16790590Y-15409482D01*
X16790590Y-15409482D02*
X16800113Y-15390434D01*
X16800113Y-15390434D02*
X16819161Y-15380910D01*
X16819161Y-15380910D02*
X16857256Y-15380910D01*
X16857256Y-15380910D02*
X16876304Y-15390434D01*
X16876304Y-15390434D02*
X16885828Y-15409482D01*
X16885828Y-15409482D02*
X16885828Y-15428529D01*
X16885828Y-15428529D02*
X16790590Y-15447577D01*
X16962018Y-15504720D02*
X16981066Y-15514244D01*
X16981066Y-15514244D02*
X17019161Y-15514244D01*
X17019161Y-15514244D02*
X17038209Y-15504720D01*
X17038209Y-15504720D02*
X17047733Y-15485672D01*
X17047733Y-15485672D02*
X17047733Y-15476148D01*
X17047733Y-15476148D02*
X17038209Y-15457101D01*
X17038209Y-15457101D02*
X17019161Y-15447577D01*
X17019161Y-15447577D02*
X16990590Y-15447577D01*
X16990590Y-15447577D02*
X16971542Y-15438053D01*
X16971542Y-15438053D02*
X16962018Y-15419006D01*
X16962018Y-15419006D02*
X16962018Y-15409482D01*
X16962018Y-15409482D02*
X16971542Y-15390434D01*
X16971542Y-15390434D02*
X16990590Y-15380910D01*
X16990590Y-15380910D02*
X17019161Y-15380910D01*
X17019161Y-15380910D02*
X17038209Y-15390434D01*
X17114399Y-15590434D02*
X17123923Y-15580910D01*
X17123923Y-15580910D02*
X17142971Y-15552339D01*
X17142971Y-15552339D02*
X17152494Y-15533291D01*
X17152494Y-15533291D02*
X17162018Y-15504720D01*
X17162018Y-15504720D02*
X17171542Y-15457101D01*
X17171542Y-15457101D02*
X17171542Y-15419006D01*
X17171542Y-15419006D02*
X17162018Y-15371387D01*
X17162018Y-15371387D02*
X17152494Y-15342815D01*
X17152494Y-15342815D02*
X17142971Y-15323768D01*
X17142971Y-15323768D02*
X17123923Y-15295196D01*
X17123923Y-15295196D02*
X17114399Y-15285672D01*
D13*
X12148860Y-15686760D02*
G75*
G03*
X12148860Y-15686760I-17500J0D01*
G01*
D11*
X12447732Y-15578244D02*
X12466780Y-15578244D01*
X12466780Y-15578244D02*
X12485827Y-15587768D01*
X12485827Y-15587768D02*
X12495351Y-15597291D01*
X12495351Y-15597291D02*
X12504875Y-15616339D01*
X12504875Y-15616339D02*
X12514399Y-15654434D01*
X12514399Y-15654434D02*
X12514399Y-15702053D01*
X12514399Y-15702053D02*
X12504875Y-15740148D01*
X12504875Y-15740148D02*
X12495351Y-15759196D01*
X12495351Y-15759196D02*
X12485827Y-15768720D01*
X12485827Y-15768720D02*
X12466780Y-15778244D01*
X12466780Y-15778244D02*
X12447732Y-15778244D01*
X12447732Y-15778244D02*
X12428684Y-15768720D01*
X12428684Y-15768720D02*
X12419161Y-15759196D01*
X12419161Y-15759196D02*
X12409637Y-15740148D01*
X12409637Y-15740148D02*
X12400113Y-15702053D01*
X12400113Y-15702053D02*
X12400113Y-15654434D01*
X12400113Y-15654434D02*
X12409637Y-15616339D01*
X12409637Y-15616339D02*
X12419161Y-15597291D01*
X12419161Y-15597291D02*
X12428684Y-15587768D01*
X12428684Y-15587768D02*
X12447732Y-15578244D01*
X12600113Y-15759196D02*
X12609637Y-15768720D01*
X12609637Y-15768720D02*
X12600113Y-15778244D01*
X12600113Y-15778244D02*
X12590589Y-15768720D01*
X12590589Y-15768720D02*
X12600113Y-15759196D01*
X12600113Y-15759196D02*
X12600113Y-15778244D01*
X12676303Y-15578244D02*
X12800113Y-15578244D01*
X12800113Y-15578244D02*
X12733446Y-15654434D01*
X12733446Y-15654434D02*
X12762018Y-15654434D01*
X12762018Y-15654434D02*
X12781065Y-15663958D01*
X12781065Y-15663958D02*
X12790589Y-15673482D01*
X12790589Y-15673482D02*
X12800113Y-15692529D01*
X12800113Y-15692529D02*
X12800113Y-15740148D01*
X12800113Y-15740148D02*
X12790589Y-15759196D01*
X12790589Y-15759196D02*
X12781065Y-15768720D01*
X12781065Y-15768720D02*
X12762018Y-15778244D01*
X12762018Y-15778244D02*
X12704875Y-15778244D01*
X12704875Y-15778244D02*
X12685827Y-15768720D01*
X12685827Y-15768720D02*
X12676303Y-15759196D01*
X12981065Y-15578244D02*
X12885827Y-15578244D01*
X12885827Y-15578244D02*
X12876303Y-15673482D01*
X12876303Y-15673482D02*
X12885827Y-15663958D01*
X12885827Y-15663958D02*
X12904875Y-15654434D01*
X12904875Y-15654434D02*
X12952494Y-15654434D01*
X12952494Y-15654434D02*
X12971542Y-15663958D01*
X12971542Y-15663958D02*
X12981065Y-15673482D01*
X12981065Y-15673482D02*
X12990589Y-15692529D01*
X12990589Y-15692529D02*
X12990589Y-15740148D01*
X12990589Y-15740148D02*
X12981065Y-15759196D01*
X12981065Y-15759196D02*
X12971542Y-15768720D01*
X12971542Y-15768720D02*
X12952494Y-15778244D01*
X12952494Y-15778244D02*
X12904875Y-15778244D01*
X12904875Y-15778244D02*
X12885827Y-15768720D01*
X12885827Y-15768720D02*
X12876303Y-15759196D01*
X13114399Y-15578244D02*
X13133446Y-15578244D01*
X13133446Y-15578244D02*
X13152494Y-15587768D01*
X13152494Y-15587768D02*
X13162018Y-15597291D01*
X13162018Y-15597291D02*
X13171542Y-15616339D01*
X13171542Y-15616339D02*
X13181065Y-15654434D01*
X13181065Y-15654434D02*
X13181065Y-15702053D01*
X13181065Y-15702053D02*
X13171542Y-15740148D01*
X13171542Y-15740148D02*
X13162018Y-15759196D01*
X13162018Y-15759196D02*
X13152494Y-15768720D01*
X13152494Y-15768720D02*
X13133446Y-15778244D01*
X13133446Y-15778244D02*
X13114399Y-15778244D01*
X13114399Y-15778244D02*
X13095351Y-15768720D01*
X13095351Y-15768720D02*
X13085827Y-15759196D01*
X13085827Y-15759196D02*
X13076303Y-15740148D01*
X13076303Y-15740148D02*
X13066780Y-15702053D01*
X13066780Y-15702053D02*
X13066780Y-15654434D01*
X13066780Y-15654434D02*
X13076303Y-15616339D01*
X13076303Y-15616339D02*
X13085827Y-15597291D01*
X13085827Y-15597291D02*
X13095351Y-15587768D01*
X13095351Y-15587768D02*
X13114399Y-15578244D01*
X13266780Y-15778244D02*
X13266780Y-15644910D01*
X13266780Y-15663958D02*
X13276303Y-15654434D01*
X13276303Y-15654434D02*
X13295351Y-15644910D01*
X13295351Y-15644910D02*
X13323923Y-15644910D01*
X13323923Y-15644910D02*
X13342970Y-15654434D01*
X13342970Y-15654434D02*
X13352494Y-15673482D01*
X13352494Y-15673482D02*
X13352494Y-15778244D01*
X13352494Y-15673482D02*
X13362018Y-15654434D01*
X13362018Y-15654434D02*
X13381065Y-15644910D01*
X13381065Y-15644910D02*
X13409637Y-15644910D01*
X13409637Y-15644910D02*
X13428684Y-15654434D01*
X13428684Y-15654434D02*
X13438208Y-15673482D01*
X13438208Y-15673482D02*
X13438208Y-15778244D01*
X13533446Y-15778244D02*
X13533446Y-15644910D01*
X13533446Y-15663958D02*
X13542970Y-15654434D01*
X13542970Y-15654434D02*
X13562018Y-15644910D01*
X13562018Y-15644910D02*
X13590589Y-15644910D01*
X13590589Y-15644910D02*
X13609637Y-15654434D01*
X13609637Y-15654434D02*
X13619161Y-15673482D01*
X13619161Y-15673482D02*
X13619161Y-15778244D01*
X13619161Y-15673482D02*
X13628684Y-15654434D01*
X13628684Y-15654434D02*
X13647732Y-15644910D01*
X13647732Y-15644910D02*
X13676303Y-15644910D01*
X13676303Y-15644910D02*
X13695351Y-15654434D01*
X13695351Y-15654434D02*
X13704875Y-15673482D01*
X13704875Y-15673482D02*
X13704875Y-15778244D01*
X14095351Y-15568720D02*
X13923923Y-15825863D01*
X14352494Y-15578244D02*
X14371542Y-15578244D01*
X14371542Y-15578244D02*
X14390589Y-15587768D01*
X14390589Y-15587768D02*
X14400113Y-15597291D01*
X14400113Y-15597291D02*
X14409637Y-15616339D01*
X14409637Y-15616339D02*
X14419161Y-15654434D01*
X14419161Y-15654434D02*
X14419161Y-15702053D01*
X14419161Y-15702053D02*
X14409637Y-15740148D01*
X14409637Y-15740148D02*
X14400113Y-15759196D01*
X14400113Y-15759196D02*
X14390589Y-15768720D01*
X14390589Y-15768720D02*
X14371542Y-15778244D01*
X14371542Y-15778244D02*
X14352494Y-15778244D01*
X14352494Y-15778244D02*
X14333446Y-15768720D01*
X14333446Y-15768720D02*
X14323923Y-15759196D01*
X14323923Y-15759196D02*
X14314399Y-15740148D01*
X14314399Y-15740148D02*
X14304875Y-15702053D01*
X14304875Y-15702053D02*
X14304875Y-15654434D01*
X14304875Y-15654434D02*
X14314399Y-15616339D01*
X14314399Y-15616339D02*
X14323923Y-15597291D01*
X14323923Y-15597291D02*
X14333446Y-15587768D01*
X14333446Y-15587768D02*
X14352494Y-15578244D01*
X14504875Y-15759196D02*
X14514399Y-15768720D01*
X14514399Y-15768720D02*
X14504875Y-15778244D01*
X14504875Y-15778244D02*
X14495351Y-15768720D01*
X14495351Y-15768720D02*
X14504875Y-15759196D01*
X14504875Y-15759196D02*
X14504875Y-15778244D01*
X14638208Y-15578244D02*
X14657256Y-15578244D01*
X14657256Y-15578244D02*
X14676304Y-15587768D01*
X14676304Y-15587768D02*
X14685827Y-15597291D01*
X14685827Y-15597291D02*
X14695351Y-15616339D01*
X14695351Y-15616339D02*
X14704875Y-15654434D01*
X14704875Y-15654434D02*
X14704875Y-15702053D01*
X14704875Y-15702053D02*
X14695351Y-15740148D01*
X14695351Y-15740148D02*
X14685827Y-15759196D01*
X14685827Y-15759196D02*
X14676304Y-15768720D01*
X14676304Y-15768720D02*
X14657256Y-15778244D01*
X14657256Y-15778244D02*
X14638208Y-15778244D01*
X14638208Y-15778244D02*
X14619161Y-15768720D01*
X14619161Y-15768720D02*
X14609637Y-15759196D01*
X14609637Y-15759196D02*
X14600113Y-15740148D01*
X14600113Y-15740148D02*
X14590589Y-15702053D01*
X14590589Y-15702053D02*
X14590589Y-15654434D01*
X14590589Y-15654434D02*
X14600113Y-15616339D01*
X14600113Y-15616339D02*
X14609637Y-15597291D01*
X14609637Y-15597291D02*
X14619161Y-15587768D01*
X14619161Y-15587768D02*
X14638208Y-15578244D01*
X14895351Y-15778244D02*
X14781066Y-15778244D01*
X14838208Y-15778244D02*
X14838208Y-15578244D01*
X14838208Y-15578244D02*
X14819161Y-15606815D01*
X14819161Y-15606815D02*
X14800113Y-15625863D01*
X14800113Y-15625863D02*
X14781066Y-15635387D01*
X14962018Y-15578244D02*
X15085827Y-15578244D01*
X15085827Y-15578244D02*
X15019161Y-15654434D01*
X15019161Y-15654434D02*
X15047732Y-15654434D01*
X15047732Y-15654434D02*
X15066780Y-15663958D01*
X15066780Y-15663958D02*
X15076304Y-15673482D01*
X15076304Y-15673482D02*
X15085827Y-15692529D01*
X15085827Y-15692529D02*
X15085827Y-15740148D01*
X15085827Y-15740148D02*
X15076304Y-15759196D01*
X15076304Y-15759196D02*
X15066780Y-15768720D01*
X15066780Y-15768720D02*
X15047732Y-15778244D01*
X15047732Y-15778244D02*
X14990589Y-15778244D01*
X14990589Y-15778244D02*
X14971542Y-15768720D01*
X14971542Y-15768720D02*
X14962018Y-15759196D01*
X15200113Y-15663958D02*
X15181066Y-15654434D01*
X15181066Y-15654434D02*
X15171542Y-15644910D01*
X15171542Y-15644910D02*
X15162018Y-15625863D01*
X15162018Y-15625863D02*
X15162018Y-15616339D01*
X15162018Y-15616339D02*
X15171542Y-15597291D01*
X15171542Y-15597291D02*
X15181066Y-15587768D01*
X15181066Y-15587768D02*
X15200113Y-15578244D01*
X15200113Y-15578244D02*
X15238208Y-15578244D01*
X15238208Y-15578244D02*
X15257256Y-15587768D01*
X15257256Y-15587768D02*
X15266780Y-15597291D01*
X15266780Y-15597291D02*
X15276304Y-15616339D01*
X15276304Y-15616339D02*
X15276304Y-15625863D01*
X15276304Y-15625863D02*
X15266780Y-15644910D01*
X15266780Y-15644910D02*
X15257256Y-15654434D01*
X15257256Y-15654434D02*
X15238208Y-15663958D01*
X15238208Y-15663958D02*
X15200113Y-15663958D01*
X15200113Y-15663958D02*
X15181066Y-15673482D01*
X15181066Y-15673482D02*
X15171542Y-15683006D01*
X15171542Y-15683006D02*
X15162018Y-15702053D01*
X15162018Y-15702053D02*
X15162018Y-15740148D01*
X15162018Y-15740148D02*
X15171542Y-15759196D01*
X15171542Y-15759196D02*
X15181066Y-15768720D01*
X15181066Y-15768720D02*
X15200113Y-15778244D01*
X15200113Y-15778244D02*
X15238208Y-15778244D01*
X15238208Y-15778244D02*
X15257256Y-15768720D01*
X15257256Y-15768720D02*
X15266780Y-15759196D01*
X15266780Y-15759196D02*
X15276304Y-15740148D01*
X15276304Y-15740148D02*
X15276304Y-15702053D01*
X15276304Y-15702053D02*
X15266780Y-15683006D01*
X15266780Y-15683006D02*
X15257256Y-15673482D01*
X15257256Y-15673482D02*
X15238208Y-15663958D01*
X15352494Y-15578244D02*
X15352494Y-15616339D01*
X15428685Y-15578244D02*
X15428685Y-15616339D01*
X15723923Y-15854434D02*
X15714399Y-15844910D01*
X15714399Y-15844910D02*
X15695351Y-15816339D01*
X15695351Y-15816339D02*
X15685828Y-15797291D01*
X15685828Y-15797291D02*
X15676304Y-15768720D01*
X15676304Y-15768720D02*
X15666780Y-15721101D01*
X15666780Y-15721101D02*
X15666780Y-15683006D01*
X15666780Y-15683006D02*
X15676304Y-15635387D01*
X15676304Y-15635387D02*
X15685828Y-15606815D01*
X15685828Y-15606815D02*
X15695351Y-15587768D01*
X15695351Y-15587768D02*
X15714399Y-15559196D01*
X15714399Y-15559196D02*
X15723923Y-15549672D01*
X15781066Y-15578244D02*
X15904875Y-15578244D01*
X15904875Y-15578244D02*
X15838208Y-15654434D01*
X15838208Y-15654434D02*
X15866780Y-15654434D01*
X15866780Y-15654434D02*
X15885828Y-15663958D01*
X15885828Y-15663958D02*
X15895351Y-15673482D01*
X15895351Y-15673482D02*
X15904875Y-15692529D01*
X15904875Y-15692529D02*
X15904875Y-15740148D01*
X15904875Y-15740148D02*
X15895351Y-15759196D01*
X15895351Y-15759196D02*
X15885828Y-15768720D01*
X15885828Y-15768720D02*
X15866780Y-15778244D01*
X15866780Y-15778244D02*
X15809637Y-15778244D01*
X15809637Y-15778244D02*
X15790589Y-15768720D01*
X15790589Y-15768720D02*
X15781066Y-15759196D01*
X15981066Y-15597291D02*
X15990589Y-15587768D01*
X15990589Y-15587768D02*
X16009637Y-15578244D01*
X16009637Y-15578244D02*
X16057256Y-15578244D01*
X16057256Y-15578244D02*
X16076304Y-15587768D01*
X16076304Y-15587768D02*
X16085828Y-15597291D01*
X16085828Y-15597291D02*
X16095351Y-15616339D01*
X16095351Y-15616339D02*
X16095351Y-15635387D01*
X16095351Y-15635387D02*
X16085828Y-15663958D01*
X16085828Y-15663958D02*
X15971542Y-15778244D01*
X15971542Y-15778244D02*
X16095351Y-15778244D01*
X16333447Y-15778244D02*
X16333447Y-15578244D01*
X16419161Y-15778244D02*
X16419161Y-15673482D01*
X16419161Y-15673482D02*
X16409637Y-15654434D01*
X16409637Y-15654434D02*
X16390590Y-15644910D01*
X16390590Y-15644910D02*
X16362018Y-15644910D01*
X16362018Y-15644910D02*
X16342970Y-15654434D01*
X16342970Y-15654434D02*
X16333447Y-15663958D01*
X16542970Y-15778244D02*
X16523923Y-15768720D01*
X16523923Y-15768720D02*
X16514399Y-15759196D01*
X16514399Y-15759196D02*
X16504875Y-15740148D01*
X16504875Y-15740148D02*
X16504875Y-15683006D01*
X16504875Y-15683006D02*
X16514399Y-15663958D01*
X16514399Y-15663958D02*
X16523923Y-15654434D01*
X16523923Y-15654434D02*
X16542970Y-15644910D01*
X16542970Y-15644910D02*
X16571542Y-15644910D01*
X16571542Y-15644910D02*
X16590590Y-15654434D01*
X16590590Y-15654434D02*
X16600113Y-15663958D01*
X16600113Y-15663958D02*
X16609637Y-15683006D01*
X16609637Y-15683006D02*
X16609637Y-15740148D01*
X16609637Y-15740148D02*
X16600113Y-15759196D01*
X16600113Y-15759196D02*
X16590590Y-15768720D01*
X16590590Y-15768720D02*
X16571542Y-15778244D01*
X16571542Y-15778244D02*
X16542970Y-15778244D01*
X16723923Y-15778244D02*
X16704875Y-15768720D01*
X16704875Y-15768720D02*
X16695351Y-15749672D01*
X16695351Y-15749672D02*
X16695351Y-15578244D01*
X16876304Y-15768720D02*
X16857256Y-15778244D01*
X16857256Y-15778244D02*
X16819161Y-15778244D01*
X16819161Y-15778244D02*
X16800113Y-15768720D01*
X16800113Y-15768720D02*
X16790590Y-15749672D01*
X16790590Y-15749672D02*
X16790590Y-15673482D01*
X16790590Y-15673482D02*
X16800113Y-15654434D01*
X16800113Y-15654434D02*
X16819161Y-15644910D01*
X16819161Y-15644910D02*
X16857256Y-15644910D01*
X16857256Y-15644910D02*
X16876304Y-15654434D01*
X16876304Y-15654434D02*
X16885828Y-15673482D01*
X16885828Y-15673482D02*
X16885828Y-15692529D01*
X16885828Y-15692529D02*
X16790590Y-15711577D01*
X16962018Y-15768720D02*
X16981066Y-15778244D01*
X16981066Y-15778244D02*
X17019161Y-15778244D01*
X17019161Y-15778244D02*
X17038209Y-15768720D01*
X17038209Y-15768720D02*
X17047733Y-15749672D01*
X17047733Y-15749672D02*
X17047733Y-15740148D01*
X17047733Y-15740148D02*
X17038209Y-15721101D01*
X17038209Y-15721101D02*
X17019161Y-15711577D01*
X17019161Y-15711577D02*
X16990590Y-15711577D01*
X16990590Y-15711577D02*
X16971542Y-15702053D01*
X16971542Y-15702053D02*
X16962018Y-15683006D01*
X16962018Y-15683006D02*
X16962018Y-15673482D01*
X16962018Y-15673482D02*
X16971542Y-15654434D01*
X16971542Y-15654434D02*
X16990590Y-15644910D01*
X16990590Y-15644910D02*
X17019161Y-15644910D01*
X17019161Y-15644910D02*
X17038209Y-15654434D01*
X17114399Y-15854434D02*
X17123923Y-15844910D01*
X17123923Y-15844910D02*
X17142971Y-15816339D01*
X17142971Y-15816339D02*
X17152494Y-15797291D01*
X17152494Y-15797291D02*
X17162018Y-15768720D01*
X17162018Y-15768720D02*
X17171542Y-15721101D01*
X17171542Y-15721101D02*
X17171542Y-15683006D01*
X17171542Y-15683006D02*
X17162018Y-15635387D01*
X17162018Y-15635387D02*
X17152494Y-15606815D01*
X17152494Y-15606815D02*
X17142971Y-15587768D01*
X17142971Y-15587768D02*
X17123923Y-15559196D01*
X17123923Y-15559196D02*
X17114399Y-15549672D01*
D14*
X12106360Y-15908260D02*
X12106360Y-15993260D01*
X12063860Y-15950760D02*
X12148860Y-15950760D01*
D11*
X12447732Y-15842244D02*
X12466780Y-15842244D01*
X12466780Y-15842244D02*
X12485827Y-15851768D01*
X12485827Y-15851768D02*
X12495351Y-15861291D01*
X12495351Y-15861291D02*
X12504875Y-15880339D01*
X12504875Y-15880339D02*
X12514399Y-15918434D01*
X12514399Y-15918434D02*
X12514399Y-15966053D01*
X12514399Y-15966053D02*
X12504875Y-16004148D01*
X12504875Y-16004148D02*
X12495351Y-16023196D01*
X12495351Y-16023196D02*
X12485827Y-16032720D01*
X12485827Y-16032720D02*
X12466780Y-16042244D01*
X12466780Y-16042244D02*
X12447732Y-16042244D01*
X12447732Y-16042244D02*
X12428684Y-16032720D01*
X12428684Y-16032720D02*
X12419161Y-16023196D01*
X12419161Y-16023196D02*
X12409637Y-16004148D01*
X12409637Y-16004148D02*
X12400113Y-15966053D01*
X12400113Y-15966053D02*
X12400113Y-15918434D01*
X12400113Y-15918434D02*
X12409637Y-15880339D01*
X12409637Y-15880339D02*
X12419161Y-15861291D01*
X12419161Y-15861291D02*
X12428684Y-15851768D01*
X12428684Y-15851768D02*
X12447732Y-15842244D01*
X12600113Y-16023196D02*
X12609637Y-16032720D01*
X12609637Y-16032720D02*
X12600113Y-16042244D01*
X12600113Y-16042244D02*
X12590589Y-16032720D01*
X12590589Y-16032720D02*
X12600113Y-16023196D01*
X12600113Y-16023196D02*
X12600113Y-16042244D01*
X12723922Y-15927958D02*
X12704875Y-15918434D01*
X12704875Y-15918434D02*
X12695351Y-15908910D01*
X12695351Y-15908910D02*
X12685827Y-15889863D01*
X12685827Y-15889863D02*
X12685827Y-15880339D01*
X12685827Y-15880339D02*
X12695351Y-15861291D01*
X12695351Y-15861291D02*
X12704875Y-15851768D01*
X12704875Y-15851768D02*
X12723922Y-15842244D01*
X12723922Y-15842244D02*
X12762018Y-15842244D01*
X12762018Y-15842244D02*
X12781065Y-15851768D01*
X12781065Y-15851768D02*
X12790589Y-15861291D01*
X12790589Y-15861291D02*
X12800113Y-15880339D01*
X12800113Y-15880339D02*
X12800113Y-15889863D01*
X12800113Y-15889863D02*
X12790589Y-15908910D01*
X12790589Y-15908910D02*
X12781065Y-15918434D01*
X12781065Y-15918434D02*
X12762018Y-15927958D01*
X12762018Y-15927958D02*
X12723922Y-15927958D01*
X12723922Y-15927958D02*
X12704875Y-15937482D01*
X12704875Y-15937482D02*
X12695351Y-15947006D01*
X12695351Y-15947006D02*
X12685827Y-15966053D01*
X12685827Y-15966053D02*
X12685827Y-16004148D01*
X12685827Y-16004148D02*
X12695351Y-16023196D01*
X12695351Y-16023196D02*
X12704875Y-16032720D01*
X12704875Y-16032720D02*
X12723922Y-16042244D01*
X12723922Y-16042244D02*
X12762018Y-16042244D01*
X12762018Y-16042244D02*
X12781065Y-16032720D01*
X12781065Y-16032720D02*
X12790589Y-16023196D01*
X12790589Y-16023196D02*
X12800113Y-16004148D01*
X12800113Y-16004148D02*
X12800113Y-15966053D01*
X12800113Y-15966053D02*
X12790589Y-15947006D01*
X12790589Y-15947006D02*
X12781065Y-15937482D01*
X12781065Y-15937482D02*
X12762018Y-15927958D01*
X12981065Y-15842244D02*
X12885827Y-15842244D01*
X12885827Y-15842244D02*
X12876303Y-15937482D01*
X12876303Y-15937482D02*
X12885827Y-15927958D01*
X12885827Y-15927958D02*
X12904875Y-15918434D01*
X12904875Y-15918434D02*
X12952494Y-15918434D01*
X12952494Y-15918434D02*
X12971542Y-15927958D01*
X12971542Y-15927958D02*
X12981065Y-15937482D01*
X12981065Y-15937482D02*
X12990589Y-15956529D01*
X12990589Y-15956529D02*
X12990589Y-16004148D01*
X12990589Y-16004148D02*
X12981065Y-16023196D01*
X12981065Y-16023196D02*
X12971542Y-16032720D01*
X12971542Y-16032720D02*
X12952494Y-16042244D01*
X12952494Y-16042244D02*
X12904875Y-16042244D01*
X12904875Y-16042244D02*
X12885827Y-16032720D01*
X12885827Y-16032720D02*
X12876303Y-16023196D01*
X13114399Y-15842244D02*
X13133446Y-15842244D01*
X13133446Y-15842244D02*
X13152494Y-15851768D01*
X13152494Y-15851768D02*
X13162018Y-15861291D01*
X13162018Y-15861291D02*
X13171542Y-15880339D01*
X13171542Y-15880339D02*
X13181065Y-15918434D01*
X13181065Y-15918434D02*
X13181065Y-15966053D01*
X13181065Y-15966053D02*
X13171542Y-16004148D01*
X13171542Y-16004148D02*
X13162018Y-16023196D01*
X13162018Y-16023196D02*
X13152494Y-16032720D01*
X13152494Y-16032720D02*
X13133446Y-16042244D01*
X13133446Y-16042244D02*
X13114399Y-16042244D01*
X13114399Y-16042244D02*
X13095351Y-16032720D01*
X13095351Y-16032720D02*
X13085827Y-16023196D01*
X13085827Y-16023196D02*
X13076303Y-16004148D01*
X13076303Y-16004148D02*
X13066780Y-15966053D01*
X13066780Y-15966053D02*
X13066780Y-15918434D01*
X13066780Y-15918434D02*
X13076303Y-15880339D01*
X13076303Y-15880339D02*
X13085827Y-15861291D01*
X13085827Y-15861291D02*
X13095351Y-15851768D01*
X13095351Y-15851768D02*
X13114399Y-15842244D01*
X13266780Y-16042244D02*
X13266780Y-15908910D01*
X13266780Y-15927958D02*
X13276303Y-15918434D01*
X13276303Y-15918434D02*
X13295351Y-15908910D01*
X13295351Y-15908910D02*
X13323923Y-15908910D01*
X13323923Y-15908910D02*
X13342970Y-15918434D01*
X13342970Y-15918434D02*
X13352494Y-15937482D01*
X13352494Y-15937482D02*
X13352494Y-16042244D01*
X13352494Y-15937482D02*
X13362018Y-15918434D01*
X13362018Y-15918434D02*
X13381065Y-15908910D01*
X13381065Y-15908910D02*
X13409637Y-15908910D01*
X13409637Y-15908910D02*
X13428684Y-15918434D01*
X13428684Y-15918434D02*
X13438208Y-15937482D01*
X13438208Y-15937482D02*
X13438208Y-16042244D01*
X13533446Y-16042244D02*
X13533446Y-15908910D01*
X13533446Y-15927958D02*
X13542970Y-15918434D01*
X13542970Y-15918434D02*
X13562018Y-15908910D01*
X13562018Y-15908910D02*
X13590589Y-15908910D01*
X13590589Y-15908910D02*
X13609637Y-15918434D01*
X13609637Y-15918434D02*
X13619161Y-15937482D01*
X13619161Y-15937482D02*
X13619161Y-16042244D01*
X13619161Y-15937482D02*
X13628684Y-15918434D01*
X13628684Y-15918434D02*
X13647732Y-15908910D01*
X13647732Y-15908910D02*
X13676303Y-15908910D01*
X13676303Y-15908910D02*
X13695351Y-15918434D01*
X13695351Y-15918434D02*
X13704875Y-15937482D01*
X13704875Y-15937482D02*
X13704875Y-16042244D01*
X14095351Y-15832720D02*
X13923923Y-16089863D01*
X14352494Y-15842244D02*
X14371542Y-15842244D01*
X14371542Y-15842244D02*
X14390589Y-15851768D01*
X14390589Y-15851768D02*
X14400113Y-15861291D01*
X14400113Y-15861291D02*
X14409637Y-15880339D01*
X14409637Y-15880339D02*
X14419161Y-15918434D01*
X14419161Y-15918434D02*
X14419161Y-15966053D01*
X14419161Y-15966053D02*
X14409637Y-16004148D01*
X14409637Y-16004148D02*
X14400113Y-16023196D01*
X14400113Y-16023196D02*
X14390589Y-16032720D01*
X14390589Y-16032720D02*
X14371542Y-16042244D01*
X14371542Y-16042244D02*
X14352494Y-16042244D01*
X14352494Y-16042244D02*
X14333446Y-16032720D01*
X14333446Y-16032720D02*
X14323923Y-16023196D01*
X14323923Y-16023196D02*
X14314399Y-16004148D01*
X14314399Y-16004148D02*
X14304875Y-15966053D01*
X14304875Y-15966053D02*
X14304875Y-15918434D01*
X14304875Y-15918434D02*
X14314399Y-15880339D01*
X14314399Y-15880339D02*
X14323923Y-15861291D01*
X14323923Y-15861291D02*
X14333446Y-15851768D01*
X14333446Y-15851768D02*
X14352494Y-15842244D01*
X14504875Y-16023196D02*
X14514399Y-16032720D01*
X14514399Y-16032720D02*
X14504875Y-16042244D01*
X14504875Y-16042244D02*
X14495351Y-16032720D01*
X14495351Y-16032720D02*
X14504875Y-16023196D01*
X14504875Y-16023196D02*
X14504875Y-16042244D01*
X14638208Y-15842244D02*
X14657256Y-15842244D01*
X14657256Y-15842244D02*
X14676304Y-15851768D01*
X14676304Y-15851768D02*
X14685827Y-15861291D01*
X14685827Y-15861291D02*
X14695351Y-15880339D01*
X14695351Y-15880339D02*
X14704875Y-15918434D01*
X14704875Y-15918434D02*
X14704875Y-15966053D01*
X14704875Y-15966053D02*
X14695351Y-16004148D01*
X14695351Y-16004148D02*
X14685827Y-16023196D01*
X14685827Y-16023196D02*
X14676304Y-16032720D01*
X14676304Y-16032720D02*
X14657256Y-16042244D01*
X14657256Y-16042244D02*
X14638208Y-16042244D01*
X14638208Y-16042244D02*
X14619161Y-16032720D01*
X14619161Y-16032720D02*
X14609637Y-16023196D01*
X14609637Y-16023196D02*
X14600113Y-16004148D01*
X14600113Y-16004148D02*
X14590589Y-15966053D01*
X14590589Y-15966053D02*
X14590589Y-15918434D01*
X14590589Y-15918434D02*
X14600113Y-15880339D01*
X14600113Y-15880339D02*
X14609637Y-15861291D01*
X14609637Y-15861291D02*
X14619161Y-15851768D01*
X14619161Y-15851768D02*
X14638208Y-15842244D01*
X14771542Y-15842244D02*
X14895351Y-15842244D01*
X14895351Y-15842244D02*
X14828685Y-15918434D01*
X14828685Y-15918434D02*
X14857256Y-15918434D01*
X14857256Y-15918434D02*
X14876304Y-15927958D01*
X14876304Y-15927958D02*
X14885827Y-15937482D01*
X14885827Y-15937482D02*
X14895351Y-15956529D01*
X14895351Y-15956529D02*
X14895351Y-16004148D01*
X14895351Y-16004148D02*
X14885827Y-16023196D01*
X14885827Y-16023196D02*
X14876304Y-16032720D01*
X14876304Y-16032720D02*
X14857256Y-16042244D01*
X14857256Y-16042244D02*
X14800113Y-16042244D01*
X14800113Y-16042244D02*
X14781066Y-16032720D01*
X14781066Y-16032720D02*
X14771542Y-16023196D01*
X14962018Y-15842244D02*
X15085827Y-15842244D01*
X15085827Y-15842244D02*
X15019161Y-15918434D01*
X15019161Y-15918434D02*
X15047732Y-15918434D01*
X15047732Y-15918434D02*
X15066780Y-15927958D01*
X15066780Y-15927958D02*
X15076304Y-15937482D01*
X15076304Y-15937482D02*
X15085827Y-15956529D01*
X15085827Y-15956529D02*
X15085827Y-16004148D01*
X15085827Y-16004148D02*
X15076304Y-16023196D01*
X15076304Y-16023196D02*
X15066780Y-16032720D01*
X15066780Y-16032720D02*
X15047732Y-16042244D01*
X15047732Y-16042244D02*
X14990589Y-16042244D01*
X14990589Y-16042244D02*
X14971542Y-16032720D01*
X14971542Y-16032720D02*
X14962018Y-16023196D01*
X15266780Y-15842244D02*
X15171542Y-15842244D01*
X15171542Y-15842244D02*
X15162018Y-15937482D01*
X15162018Y-15937482D02*
X15171542Y-15927958D01*
X15171542Y-15927958D02*
X15190589Y-15918434D01*
X15190589Y-15918434D02*
X15238208Y-15918434D01*
X15238208Y-15918434D02*
X15257256Y-15927958D01*
X15257256Y-15927958D02*
X15266780Y-15937482D01*
X15266780Y-15937482D02*
X15276304Y-15956529D01*
X15276304Y-15956529D02*
X15276304Y-16004148D01*
X15276304Y-16004148D02*
X15266780Y-16023196D01*
X15266780Y-16023196D02*
X15257256Y-16032720D01*
X15257256Y-16032720D02*
X15238208Y-16042244D01*
X15238208Y-16042244D02*
X15190589Y-16042244D01*
X15190589Y-16042244D02*
X15171542Y-16032720D01*
X15171542Y-16032720D02*
X15162018Y-16023196D01*
X15352494Y-15842244D02*
X15352494Y-15880339D01*
X15428685Y-15842244D02*
X15428685Y-15880339D01*
X15723923Y-16118434D02*
X15714399Y-16108910D01*
X15714399Y-16108910D02*
X15695351Y-16080339D01*
X15695351Y-16080339D02*
X15685828Y-16061291D01*
X15685828Y-16061291D02*
X15676304Y-16032720D01*
X15676304Y-16032720D02*
X15666780Y-15985101D01*
X15666780Y-15985101D02*
X15666780Y-15947006D01*
X15666780Y-15947006D02*
X15676304Y-15899387D01*
X15676304Y-15899387D02*
X15685828Y-15870815D01*
X15685828Y-15870815D02*
X15695351Y-15851768D01*
X15695351Y-15851768D02*
X15714399Y-15823196D01*
X15714399Y-15823196D02*
X15723923Y-15813672D01*
X15781066Y-15842244D02*
X15904875Y-15842244D01*
X15904875Y-15842244D02*
X15838208Y-15918434D01*
X15838208Y-15918434D02*
X15866780Y-15918434D01*
X15866780Y-15918434D02*
X15885828Y-15927958D01*
X15885828Y-15927958D02*
X15895351Y-15937482D01*
X15895351Y-15937482D02*
X15904875Y-15956529D01*
X15904875Y-15956529D02*
X15904875Y-16004148D01*
X15904875Y-16004148D02*
X15895351Y-16023196D01*
X15895351Y-16023196D02*
X15885828Y-16032720D01*
X15885828Y-16032720D02*
X15866780Y-16042244D01*
X15866780Y-16042244D02*
X15809637Y-16042244D01*
X15809637Y-16042244D02*
X15790589Y-16032720D01*
X15790589Y-16032720D02*
X15781066Y-16023196D01*
X15981066Y-15861291D02*
X15990589Y-15851768D01*
X15990589Y-15851768D02*
X16009637Y-15842244D01*
X16009637Y-15842244D02*
X16057256Y-15842244D01*
X16057256Y-15842244D02*
X16076304Y-15851768D01*
X16076304Y-15851768D02*
X16085828Y-15861291D01*
X16085828Y-15861291D02*
X16095351Y-15880339D01*
X16095351Y-15880339D02*
X16095351Y-15899387D01*
X16095351Y-15899387D02*
X16085828Y-15927958D01*
X16085828Y-15927958D02*
X15971542Y-16042244D01*
X15971542Y-16042244D02*
X16095351Y-16042244D01*
X16333447Y-16042244D02*
X16333447Y-15842244D01*
X16419161Y-16042244D02*
X16419161Y-15937482D01*
X16419161Y-15937482D02*
X16409637Y-15918434D01*
X16409637Y-15918434D02*
X16390590Y-15908910D01*
X16390590Y-15908910D02*
X16362018Y-15908910D01*
X16362018Y-15908910D02*
X16342970Y-15918434D01*
X16342970Y-15918434D02*
X16333447Y-15927958D01*
X16542970Y-16042244D02*
X16523923Y-16032720D01*
X16523923Y-16032720D02*
X16514399Y-16023196D01*
X16514399Y-16023196D02*
X16504875Y-16004148D01*
X16504875Y-16004148D02*
X16504875Y-15947006D01*
X16504875Y-15947006D02*
X16514399Y-15927958D01*
X16514399Y-15927958D02*
X16523923Y-15918434D01*
X16523923Y-15918434D02*
X16542970Y-15908910D01*
X16542970Y-15908910D02*
X16571542Y-15908910D01*
X16571542Y-15908910D02*
X16590590Y-15918434D01*
X16590590Y-15918434D02*
X16600113Y-15927958D01*
X16600113Y-15927958D02*
X16609637Y-15947006D01*
X16609637Y-15947006D02*
X16609637Y-16004148D01*
X16609637Y-16004148D02*
X16600113Y-16023196D01*
X16600113Y-16023196D02*
X16590590Y-16032720D01*
X16590590Y-16032720D02*
X16571542Y-16042244D01*
X16571542Y-16042244D02*
X16542970Y-16042244D01*
X16723923Y-16042244D02*
X16704875Y-16032720D01*
X16704875Y-16032720D02*
X16695351Y-16013672D01*
X16695351Y-16013672D02*
X16695351Y-15842244D01*
X16876304Y-16032720D02*
X16857256Y-16042244D01*
X16857256Y-16042244D02*
X16819161Y-16042244D01*
X16819161Y-16042244D02*
X16800113Y-16032720D01*
X16800113Y-16032720D02*
X16790590Y-16013672D01*
X16790590Y-16013672D02*
X16790590Y-15937482D01*
X16790590Y-15937482D02*
X16800113Y-15918434D01*
X16800113Y-15918434D02*
X16819161Y-15908910D01*
X16819161Y-15908910D02*
X16857256Y-15908910D01*
X16857256Y-15908910D02*
X16876304Y-15918434D01*
X16876304Y-15918434D02*
X16885828Y-15937482D01*
X16885828Y-15937482D02*
X16885828Y-15956529D01*
X16885828Y-15956529D02*
X16790590Y-15975577D01*
X16962018Y-16032720D02*
X16981066Y-16042244D01*
X16981066Y-16042244D02*
X17019161Y-16042244D01*
X17019161Y-16042244D02*
X17038209Y-16032720D01*
X17038209Y-16032720D02*
X17047733Y-16013672D01*
X17047733Y-16013672D02*
X17047733Y-16004148D01*
X17047733Y-16004148D02*
X17038209Y-15985101D01*
X17038209Y-15985101D02*
X17019161Y-15975577D01*
X17019161Y-15975577D02*
X16990590Y-15975577D01*
X16990590Y-15975577D02*
X16971542Y-15966053D01*
X16971542Y-15966053D02*
X16962018Y-15947006D01*
X16962018Y-15947006D02*
X16962018Y-15937482D01*
X16962018Y-15937482D02*
X16971542Y-15918434D01*
X16971542Y-15918434D02*
X16990590Y-15908910D01*
X16990590Y-15908910D02*
X17019161Y-15908910D01*
X17019161Y-15908910D02*
X17038209Y-15918434D01*
X17114399Y-16118434D02*
X17123923Y-16108910D01*
X17123923Y-16108910D02*
X17142971Y-16080339D01*
X17142971Y-16080339D02*
X17152494Y-16061291D01*
X17152494Y-16061291D02*
X17162018Y-16032720D01*
X17162018Y-16032720D02*
X17171542Y-15985101D01*
X17171542Y-15985101D02*
X17171542Y-15947006D01*
X17171542Y-15947006D02*
X17162018Y-15899387D01*
X17162018Y-15899387D02*
X17152494Y-15870815D01*
X17152494Y-15870815D02*
X17142971Y-15851768D01*
X17142971Y-15851768D02*
X17123923Y-15823196D01*
X17123923Y-15823196D02*
X17114399Y-15813672D01*
M02*
