M48
; DRILL file {KiCad 7.0.8} date 2023 November 19, Sunday 22:04:53
; FORMAT={-:-/ absolute / metric / decimal}
; #@! TF.CreationDate,2023-11-19T22:04:53+01:00
; #@! TF.GenerationSoftware,Kicad,Pcbnew,7.0.8
; #@! TF.FileFunction,Plated,1,2,PTH
FMAT,2
METRIC
; #@! TA.AperFunction,Plated,PTH,ViaDrill
T1C0.300
; #@! TA.AperFunction,Plated,PTH,ViaDrill
T2C0.350
; #@! TA.AperFunction,Plated,PTH,ComponentDrill
T3C0.850
%
G90
G05
T1
X145.669Y-113.284
X145.669Y-117.094
X145.75Y-120.5
X147.066Y-139.446
X147.3Y-136.2
X147.3Y-137.7
X148.24Y-105.471
X148.844Y-112.776
X149.7Y-136.2
X149.7Y-137.7
X151.13Y-113.284
X151.13Y-117.094
X151.13Y-120.5
X153.67Y-136.398
T2
X127.508Y-69.596
X128.803Y-69.571
X130.073Y-69.571
X131.343Y-69.571
X132.613Y-69.571
X133.883Y-69.571
X135.153Y-69.571
X136.423Y-69.571
X137.693Y-69.571
X138.963Y-69.571
X140.233Y-69.571
X141.503Y-69.571
X142.773Y-69.571
X144.043Y-69.571
X145.313Y-69.571
X147.853Y-69.571
X149.123Y-69.571
X150.393Y-69.571
X151.663Y-69.571
X152.933Y-69.571
X154.178Y-69.596
X155.473Y-69.571
X156.743Y-69.571
X158.013Y-69.571
X159.283Y-69.571
X160.553Y-69.571
X161.823Y-69.571
X163.093Y-69.571
X164.363Y-69.571
X165.633Y-69.571
X166.903Y-69.571
X171.983Y-69.571
T3
X140.716Y-101.6
X140.716Y-104.14
X140.716Y-106.68
X140.716Y-109.22
X140.716Y-111.76
X140.716Y-114.3
X140.716Y-116.84
X140.716Y-119.38
X140.716Y-121.92
X140.716Y-124.46
X140.716Y-127.0
X140.716Y-129.54
X140.716Y-132.08
X140.716Y-134.62
X140.716Y-137.16
X140.716Y-139.7
X156.274Y-101.6
X156.274Y-104.14
X156.274Y-106.68
X156.274Y-109.22
X156.274Y-111.76
X156.274Y-114.3
X156.274Y-116.84
X156.274Y-119.38
X156.274Y-121.92
X156.274Y-124.46
X156.274Y-127.0
X156.274Y-129.54
X156.274Y-132.08
X156.274Y-134.62
X156.274Y-137.16
X156.274Y-139.7
T0
M30
