G04 #@! TF.GenerationSoftware,KiCad,Pcbnew,9.0.1*
G04 #@! TF.CreationDate,2025-04-29T10:04:21+02:00*
G04 #@! TF.ProjectId,ProtoHu_revA_layer1,50726f74-6f48-4755-9f72-6576415f6c61,rev?*
G04 #@! TF.SameCoordinates,Original*
G04 #@! TF.FileFunction,Copper,L1,Top*
G04 #@! TF.FilePolarity,Positive*
%FSLAX46Y46*%
G04 Gerber Fmt 4.6, Leading zero omitted, Abs format (unit mm)*
G04 Created by KiCad (PCBNEW 9.0.1) date 2025-04-29 10:04:21*
%MOMM*%
%LPD*%
G01*
G04 APERTURE LIST*
G04 #@! TA.AperFunction,SMDPad,CuDef*
%ADD10R,0.762000X3.479800*%
G04 #@! TD*
G04 #@! TA.AperFunction,SMDPad,CuDef*
%ADD11R,0.762000X4.318000*%
G04 #@! TD*
G04 #@! TA.AperFunction,ComponentPad*
%ADD12O,2.000000X1.250000*%
G04 #@! TD*
G04 #@! TA.AperFunction,ViaPad*
%ADD13C,0.600000*%
G04 #@! TD*
G04 #@! TA.AperFunction,ViaPad*
%ADD14C,0.756400*%
G04 #@! TD*
G04 #@! TA.AperFunction,Conductor*
%ADD15C,0.500000*%
G04 #@! TD*
G04 #@! TA.AperFunction,Conductor*
%ADD16C,0.400000*%
G04 #@! TD*
G04 #@! TA.AperFunction,Conductor*
%ADD17C,0.200000*%
G04 #@! TD*
G04 APERTURE END LIST*
D10*
X124993400Y-66878200D03*
X126263400Y-66471800D03*
X127533400Y-66471800D03*
X128803400Y-66471800D03*
X130073400Y-66471800D03*
X131343400Y-66471800D03*
X132613400Y-66471800D03*
X133883400Y-66471800D03*
X135153400Y-66471800D03*
X136423400Y-66471800D03*
X137693400Y-66471800D03*
X138963400Y-66471800D03*
X140233400Y-66471800D03*
X141503400Y-66471800D03*
X142773400Y-66471800D03*
X144043400Y-66471800D03*
X145313400Y-66471800D03*
D11*
X146583400Y-66065400D03*
D10*
X147853400Y-66471800D03*
X149123400Y-66471800D03*
X150393400Y-66471800D03*
X151663400Y-66471800D03*
X152933400Y-66471800D03*
X154203400Y-66471800D03*
X155473400Y-66471800D03*
X156743400Y-66471800D03*
X158013400Y-66471800D03*
X159283400Y-66471800D03*
X160553400Y-66471800D03*
X161823400Y-66471800D03*
X163093400Y-66471800D03*
X164363400Y-66471800D03*
X165633400Y-66471800D03*
X166903400Y-66471800D03*
X168173400Y-66471800D03*
X169443400Y-66471800D03*
X170713400Y-66471800D03*
D11*
X171983400Y-66065400D03*
D12*
X140716000Y-139700000D03*
X140716000Y-137160000D03*
X140716000Y-134620000D03*
X140716000Y-132080000D03*
X140716000Y-129540000D03*
X140716000Y-127000000D03*
X140716000Y-124460000D03*
X140716000Y-121920000D03*
X140716000Y-119380000D03*
X140716000Y-116840000D03*
X140716000Y-114300000D03*
X140716000Y-111760000D03*
X140716000Y-109220000D03*
X140716000Y-106680000D03*
X140716000Y-104140000D03*
X140716000Y-101600000D03*
X156274000Y-101600000D03*
X156274000Y-104140000D03*
X156274000Y-106680000D03*
X156274000Y-109220000D03*
X156274000Y-111760000D03*
X156274000Y-114300000D03*
X156274000Y-116840000D03*
X156274000Y-119380000D03*
X156274000Y-121920000D03*
X156274000Y-124460000D03*
X156274000Y-127000000D03*
X156274000Y-129540000D03*
X156274000Y-132080000D03*
X156274000Y-134620000D03*
X156274000Y-137160000D03*
X156274000Y-139700000D03*
D13*
X149700000Y-136200000D03*
X151130000Y-120500000D03*
X147300000Y-136200000D03*
X145750000Y-120500000D03*
X153670000Y-136398000D03*
X149700000Y-137700000D03*
X148240000Y-105470600D03*
X151130000Y-117094000D03*
X151130000Y-113284000D03*
X145669000Y-117094000D03*
X147300000Y-137700000D03*
X145669000Y-113284000D03*
D14*
X171983400Y-69570600D03*
X158013400Y-69570600D03*
X159283400Y-69570600D03*
X160553400Y-69570600D03*
X161823400Y-69570600D03*
X163093400Y-69570600D03*
X164363400Y-69570600D03*
X166903400Y-69570600D03*
X165633400Y-69570600D03*
X128803400Y-69570600D03*
X130073400Y-69570600D03*
X131343400Y-69570600D03*
X132613400Y-69570600D03*
X133883400Y-69570600D03*
X135153400Y-69570600D03*
X136423400Y-69570600D03*
X137693400Y-69570600D03*
X138963400Y-69570600D03*
X140233400Y-69570600D03*
X141503400Y-69570600D03*
X142773400Y-69570600D03*
X144043400Y-69570600D03*
X145313400Y-69570600D03*
X147853400Y-69570600D03*
X149123400Y-69570600D03*
X150393400Y-69570600D03*
X151663400Y-69570600D03*
X152933400Y-69570600D03*
D13*
X147066000Y-139446000D03*
X148844000Y-112776000D03*
D14*
X155473400Y-69570600D03*
X156743400Y-69570600D03*
X127508000Y-69596000D03*
X154178000Y-69596000D03*
D15*
X144018000Y-101600000D02*
X140716000Y-101600000D01*
X146583400Y-99034600D02*
X144018000Y-101600000D01*
X124993400Y-90793400D02*
X124993400Y-66878200D01*
X135800000Y-101600000D02*
X124993400Y-90793400D01*
X146583400Y-66065400D02*
X146583400Y-99034600D01*
X140716000Y-101600000D02*
X135800000Y-101600000D01*
X171983400Y-69570600D02*
X171983400Y-66065400D01*
D16*
X158013400Y-69570600D02*
X158013400Y-66471800D01*
X159283400Y-69570600D02*
X159283400Y-66471800D01*
X160553400Y-69570600D02*
X160553400Y-66471800D01*
X161823400Y-69570600D02*
X161823400Y-66471800D01*
X163093400Y-69570600D02*
X163093400Y-66471800D01*
X164363400Y-69570600D02*
X164363400Y-66471800D01*
X166903400Y-69570600D02*
X166903400Y-66471800D01*
X165633400Y-69570600D02*
X165633400Y-66471800D01*
X128803400Y-69570600D02*
X128803400Y-66471800D01*
X130073400Y-66471800D02*
X130073400Y-69570600D01*
X131343400Y-69570600D02*
X131343400Y-66471800D01*
X132613400Y-69570600D02*
X132613400Y-66471800D01*
X133883400Y-69570600D02*
X133883400Y-66471800D01*
X135153400Y-69570600D02*
X135153400Y-66471800D01*
X136423400Y-69570600D02*
X136423400Y-66471800D01*
X137693400Y-69570600D02*
X137693400Y-66471800D01*
X138963400Y-69570600D02*
X138963400Y-66471800D01*
X140233400Y-69570600D02*
X140233400Y-66471800D01*
X141503400Y-69570600D02*
X141503400Y-66471800D01*
X142773400Y-69570600D02*
X142773400Y-66471800D01*
X144043400Y-69570600D02*
X144043400Y-66471800D01*
X145313400Y-69570600D02*
X145313400Y-66471800D01*
X147853400Y-69570600D02*
X147853400Y-66471800D01*
X149123400Y-69570600D02*
X149123400Y-66471800D01*
X150393400Y-69570600D02*
X150393400Y-66471800D01*
X151663400Y-69570600D02*
X151663400Y-66471800D01*
X152933400Y-69570600D02*
X152933400Y-66471800D01*
D17*
X148844000Y-138684000D02*
X148082000Y-139446000D01*
X148082000Y-139446000D02*
X147066000Y-139446000D01*
X148844000Y-112776000D02*
X148844000Y-138684000D01*
D16*
X155473400Y-69570600D02*
X155473400Y-66471800D01*
X156743400Y-69570600D02*
X156743400Y-66471800D01*
X127533400Y-66471800D02*
X127533400Y-69570600D01*
D17*
X127533400Y-69570600D02*
X127508000Y-69596000D01*
D16*
X154203400Y-66471800D02*
X154203400Y-69570600D01*
D17*
X154203400Y-69570600D02*
X154178000Y-69596000D01*
G04 #@! TA.AperFunction,Conductor*
G36*
X126985155Y-69019685D02*
G01*
X127030910Y-69072489D01*
X127040854Y-69141647D01*
X127021218Y-69192891D01*
X126950854Y-69298196D01*
X126950853Y-69298198D01*
X126903461Y-69412613D01*
X126903459Y-69412621D01*
X126879300Y-69534075D01*
X126879300Y-69534078D01*
X126879300Y-69657922D01*
X126879300Y-69657924D01*
X126879299Y-69657924D01*
X126903459Y-69779378D01*
X126903461Y-69779386D01*
X126950853Y-69893801D01*
X126950854Y-69893804D01*
X127019656Y-69996772D01*
X127019659Y-69996776D01*
X127107223Y-70084340D01*
X127107227Y-70084343D01*
X127210195Y-70153145D01*
X127210197Y-70153145D01*
X127210199Y-70153147D01*
X127324615Y-70200539D01*
X127354360Y-70206455D01*
X127446075Y-70224700D01*
X127446078Y-70224700D01*
X127569924Y-70224700D01*
X127631067Y-70212537D01*
X127691385Y-70200539D01*
X127805801Y-70153147D01*
X127908773Y-70084343D01*
X127996343Y-69996773D01*
X128061084Y-69899880D01*
X128114694Y-69855077D01*
X128184019Y-69846370D01*
X128247047Y-69876524D01*
X128267287Y-69899881D01*
X128315059Y-69971376D01*
X128402623Y-70058940D01*
X128402627Y-70058943D01*
X128505595Y-70127745D01*
X128505597Y-70127745D01*
X128505599Y-70127747D01*
X128620015Y-70175139D01*
X128649760Y-70181055D01*
X128741475Y-70199300D01*
X128741478Y-70199300D01*
X128865324Y-70199300D01*
X128926467Y-70187137D01*
X128986785Y-70175139D01*
X129101201Y-70127747D01*
X129204173Y-70058943D01*
X129291743Y-69971373D01*
X129335298Y-69906189D01*
X129388910Y-69861384D01*
X129458235Y-69852677D01*
X129521263Y-69882831D01*
X129541502Y-69906189D01*
X129585056Y-69971372D01*
X129585059Y-69971376D01*
X129672623Y-70058940D01*
X129672627Y-70058943D01*
X129775595Y-70127745D01*
X129775597Y-70127745D01*
X129775599Y-70127747D01*
X129890015Y-70175139D01*
X129919760Y-70181055D01*
X130011475Y-70199300D01*
X130011478Y-70199300D01*
X130135324Y-70199300D01*
X130196467Y-70187137D01*
X130256785Y-70175139D01*
X130371201Y-70127747D01*
X130474173Y-70058943D01*
X130561743Y-69971373D01*
X130605298Y-69906189D01*
X130658910Y-69861384D01*
X130728235Y-69852677D01*
X130791263Y-69882831D01*
X130811502Y-69906189D01*
X130855056Y-69971372D01*
X130855059Y-69971376D01*
X130942623Y-70058940D01*
X130942627Y-70058943D01*
X131045595Y-70127745D01*
X131045597Y-70127745D01*
X131045599Y-70127747D01*
X131160015Y-70175139D01*
X131189760Y-70181055D01*
X131281475Y-70199300D01*
X131281478Y-70199300D01*
X131405324Y-70199300D01*
X131466467Y-70187137D01*
X131526785Y-70175139D01*
X131641201Y-70127747D01*
X131744173Y-70058943D01*
X131831743Y-69971373D01*
X131875298Y-69906189D01*
X131928910Y-69861384D01*
X131998235Y-69852677D01*
X132061263Y-69882831D01*
X132081502Y-69906189D01*
X132125056Y-69971372D01*
X132125059Y-69971376D01*
X132212623Y-70058940D01*
X132212627Y-70058943D01*
X132315595Y-70127745D01*
X132315597Y-70127745D01*
X132315599Y-70127747D01*
X132430015Y-70175139D01*
X132459760Y-70181055D01*
X132551475Y-70199300D01*
X132551478Y-70199300D01*
X132675324Y-70199300D01*
X132736467Y-70187137D01*
X132796785Y-70175139D01*
X132911201Y-70127747D01*
X133014173Y-70058943D01*
X133101743Y-69971373D01*
X133145298Y-69906189D01*
X133198910Y-69861384D01*
X133268235Y-69852677D01*
X133331263Y-69882831D01*
X133351502Y-69906189D01*
X133395056Y-69971372D01*
X133395059Y-69971376D01*
X133482623Y-70058940D01*
X133482627Y-70058943D01*
X133585595Y-70127745D01*
X133585597Y-70127745D01*
X133585599Y-70127747D01*
X133700015Y-70175139D01*
X133729760Y-70181055D01*
X133821475Y-70199300D01*
X133821478Y-70199300D01*
X133945324Y-70199300D01*
X134006467Y-70187137D01*
X134066785Y-70175139D01*
X134181201Y-70127747D01*
X134284173Y-70058943D01*
X134371743Y-69971373D01*
X134415298Y-69906189D01*
X134468910Y-69861384D01*
X134538235Y-69852677D01*
X134601263Y-69882831D01*
X134621502Y-69906189D01*
X134665056Y-69971372D01*
X134665059Y-69971376D01*
X134752623Y-70058940D01*
X134752627Y-70058943D01*
X134855595Y-70127745D01*
X134855597Y-70127745D01*
X134855599Y-70127747D01*
X134970015Y-70175139D01*
X134999760Y-70181055D01*
X135091475Y-70199300D01*
X135091478Y-70199300D01*
X135215324Y-70199300D01*
X135276467Y-70187137D01*
X135336785Y-70175139D01*
X135451201Y-70127747D01*
X135554173Y-70058943D01*
X135641743Y-69971373D01*
X135685298Y-69906189D01*
X135738910Y-69861384D01*
X135808235Y-69852677D01*
X135871263Y-69882831D01*
X135891502Y-69906189D01*
X135935056Y-69971372D01*
X135935059Y-69971376D01*
X136022623Y-70058940D01*
X136022627Y-70058943D01*
X136125595Y-70127745D01*
X136125597Y-70127745D01*
X136125599Y-70127747D01*
X136240015Y-70175139D01*
X136269760Y-70181055D01*
X136361475Y-70199300D01*
X136361478Y-70199300D01*
X136485324Y-70199300D01*
X136546467Y-70187137D01*
X136606785Y-70175139D01*
X136721201Y-70127747D01*
X136824173Y-70058943D01*
X136911743Y-69971373D01*
X136955298Y-69906189D01*
X137008910Y-69861384D01*
X137078235Y-69852677D01*
X137141263Y-69882831D01*
X137161502Y-69906189D01*
X137205056Y-69971372D01*
X137205059Y-69971376D01*
X137292623Y-70058940D01*
X137292627Y-70058943D01*
X137395595Y-70127745D01*
X137395597Y-70127745D01*
X137395599Y-70127747D01*
X137510015Y-70175139D01*
X137539760Y-70181055D01*
X137631475Y-70199300D01*
X137631478Y-70199300D01*
X137755324Y-70199300D01*
X137816467Y-70187137D01*
X137876785Y-70175139D01*
X137991201Y-70127747D01*
X138094173Y-70058943D01*
X138181743Y-69971373D01*
X138225298Y-69906189D01*
X138278910Y-69861384D01*
X138348235Y-69852677D01*
X138411263Y-69882831D01*
X138431502Y-69906189D01*
X138475056Y-69971372D01*
X138475059Y-69971376D01*
X138562623Y-70058940D01*
X138562627Y-70058943D01*
X138665595Y-70127745D01*
X138665597Y-70127745D01*
X138665599Y-70127747D01*
X138780015Y-70175139D01*
X138809760Y-70181055D01*
X138901475Y-70199300D01*
X138901478Y-70199300D01*
X139025324Y-70199300D01*
X139086467Y-70187137D01*
X139146785Y-70175139D01*
X139261201Y-70127747D01*
X139364173Y-70058943D01*
X139451743Y-69971373D01*
X139495298Y-69906189D01*
X139548910Y-69861384D01*
X139618235Y-69852677D01*
X139681263Y-69882831D01*
X139701502Y-69906189D01*
X139745056Y-69971372D01*
X139745059Y-69971376D01*
X139832623Y-70058940D01*
X139832627Y-70058943D01*
X139935595Y-70127745D01*
X139935597Y-70127745D01*
X139935599Y-70127747D01*
X140050015Y-70175139D01*
X140079760Y-70181055D01*
X140171475Y-70199300D01*
X140171478Y-70199300D01*
X140295324Y-70199300D01*
X140356467Y-70187137D01*
X140416785Y-70175139D01*
X140531201Y-70127747D01*
X140634173Y-70058943D01*
X140721743Y-69971373D01*
X140765298Y-69906189D01*
X140818910Y-69861384D01*
X140888235Y-69852677D01*
X140951263Y-69882831D01*
X140971502Y-69906189D01*
X141015056Y-69971372D01*
X141015059Y-69971376D01*
X141102623Y-70058940D01*
X141102627Y-70058943D01*
X141205595Y-70127745D01*
X141205597Y-70127745D01*
X141205599Y-70127747D01*
X141320015Y-70175139D01*
X141349760Y-70181055D01*
X141441475Y-70199300D01*
X141441478Y-70199300D01*
X141565324Y-70199300D01*
X141626467Y-70187137D01*
X141686785Y-70175139D01*
X141801201Y-70127747D01*
X141904173Y-70058943D01*
X141991743Y-69971373D01*
X142035298Y-69906189D01*
X142088910Y-69861384D01*
X142158235Y-69852677D01*
X142221263Y-69882831D01*
X142241502Y-69906189D01*
X142285056Y-69971372D01*
X142285059Y-69971376D01*
X142372623Y-70058940D01*
X142372627Y-70058943D01*
X142475595Y-70127745D01*
X142475597Y-70127745D01*
X142475599Y-70127747D01*
X142590015Y-70175139D01*
X142619760Y-70181055D01*
X142711475Y-70199300D01*
X142711478Y-70199300D01*
X142835324Y-70199300D01*
X142896467Y-70187137D01*
X142956785Y-70175139D01*
X143071201Y-70127747D01*
X143174173Y-70058943D01*
X143261743Y-69971373D01*
X143305298Y-69906189D01*
X143358910Y-69861384D01*
X143428235Y-69852677D01*
X143491263Y-69882831D01*
X143511502Y-69906189D01*
X143555056Y-69971372D01*
X143555059Y-69971376D01*
X143642623Y-70058940D01*
X143642627Y-70058943D01*
X143745595Y-70127745D01*
X143745597Y-70127745D01*
X143745599Y-70127747D01*
X143860015Y-70175139D01*
X143889760Y-70181055D01*
X143981475Y-70199300D01*
X143981478Y-70199300D01*
X144105324Y-70199300D01*
X144166467Y-70187137D01*
X144226785Y-70175139D01*
X144341201Y-70127747D01*
X144444173Y-70058943D01*
X144531743Y-69971373D01*
X144575298Y-69906189D01*
X144628910Y-69861384D01*
X144698235Y-69852677D01*
X144761263Y-69882831D01*
X144781502Y-69906189D01*
X144825056Y-69971372D01*
X144825059Y-69971376D01*
X144912623Y-70058940D01*
X144912627Y-70058943D01*
X145015595Y-70127745D01*
X145015597Y-70127745D01*
X145015599Y-70127747D01*
X145130015Y-70175139D01*
X145159760Y-70181055D01*
X145251475Y-70199300D01*
X145251478Y-70199300D01*
X145375324Y-70199300D01*
X145436467Y-70187137D01*
X145496785Y-70175139D01*
X145611201Y-70127747D01*
X145714173Y-70058943D01*
X145801743Y-69971373D01*
X145870547Y-69868401D01*
X145917939Y-69753985D01*
X145942100Y-69632522D01*
X145942100Y-69508678D01*
X145942100Y-69508675D01*
X145917940Y-69387221D01*
X145917939Y-69387215D01*
X145870547Y-69272799D01*
X145817154Y-69192891D01*
X145796276Y-69126214D01*
X145814760Y-69058834D01*
X145866739Y-69012143D01*
X145920256Y-69000000D01*
X147246544Y-69000000D01*
X147313583Y-69019685D01*
X147359338Y-69072489D01*
X147369282Y-69141647D01*
X147349646Y-69192891D01*
X147296254Y-69272796D01*
X147296253Y-69272798D01*
X147248861Y-69387213D01*
X147248859Y-69387221D01*
X147224700Y-69508675D01*
X147224700Y-69508678D01*
X147224700Y-69632522D01*
X147224700Y-69632524D01*
X147224699Y-69632524D01*
X147248859Y-69753978D01*
X147248861Y-69753986D01*
X147296253Y-69868401D01*
X147296254Y-69868404D01*
X147365056Y-69971372D01*
X147365059Y-69971376D01*
X147452623Y-70058940D01*
X147452627Y-70058943D01*
X147555595Y-70127745D01*
X147555597Y-70127745D01*
X147555599Y-70127747D01*
X147670015Y-70175139D01*
X147699760Y-70181055D01*
X147791475Y-70199300D01*
X147791478Y-70199300D01*
X147915324Y-70199300D01*
X147976467Y-70187137D01*
X148036785Y-70175139D01*
X148151201Y-70127747D01*
X148254173Y-70058943D01*
X148341743Y-69971373D01*
X148385298Y-69906189D01*
X148438910Y-69861384D01*
X148508235Y-69852677D01*
X148571263Y-69882831D01*
X148591502Y-69906189D01*
X148635056Y-69971372D01*
X148635059Y-69971376D01*
X148722623Y-70058940D01*
X148722627Y-70058943D01*
X148825595Y-70127745D01*
X148825597Y-70127745D01*
X148825599Y-70127747D01*
X148940015Y-70175139D01*
X148969760Y-70181055D01*
X149061475Y-70199300D01*
X149061478Y-70199300D01*
X149185324Y-70199300D01*
X149246467Y-70187137D01*
X149306785Y-70175139D01*
X149421201Y-70127747D01*
X149524173Y-70058943D01*
X149611743Y-69971373D01*
X149655298Y-69906189D01*
X149708910Y-69861384D01*
X149778235Y-69852677D01*
X149841263Y-69882831D01*
X149861502Y-69906189D01*
X149905056Y-69971372D01*
X149905059Y-69971376D01*
X149992623Y-70058940D01*
X149992627Y-70058943D01*
X150095595Y-70127745D01*
X150095597Y-70127745D01*
X150095599Y-70127747D01*
X150210015Y-70175139D01*
X150239760Y-70181055D01*
X150331475Y-70199300D01*
X150331478Y-70199300D01*
X150455324Y-70199300D01*
X150516467Y-70187137D01*
X150576785Y-70175139D01*
X150691201Y-70127747D01*
X150794173Y-70058943D01*
X150881743Y-69971373D01*
X150925298Y-69906189D01*
X150978910Y-69861384D01*
X151048235Y-69852677D01*
X151111263Y-69882831D01*
X151131502Y-69906189D01*
X151175056Y-69971372D01*
X151175059Y-69971376D01*
X151262623Y-70058940D01*
X151262627Y-70058943D01*
X151365595Y-70127745D01*
X151365597Y-70127745D01*
X151365599Y-70127747D01*
X151480015Y-70175139D01*
X151509760Y-70181055D01*
X151601475Y-70199300D01*
X151601478Y-70199300D01*
X151725324Y-70199300D01*
X151786467Y-70187137D01*
X151846785Y-70175139D01*
X151961201Y-70127747D01*
X152064173Y-70058943D01*
X152151743Y-69971373D01*
X152195298Y-69906189D01*
X152248910Y-69861384D01*
X152318235Y-69852677D01*
X152381263Y-69882831D01*
X152401502Y-69906189D01*
X152445056Y-69971372D01*
X152445059Y-69971376D01*
X152532623Y-70058940D01*
X152532627Y-70058943D01*
X152635595Y-70127745D01*
X152635597Y-70127745D01*
X152635599Y-70127747D01*
X152750015Y-70175139D01*
X152779760Y-70181055D01*
X152871475Y-70199300D01*
X152871478Y-70199300D01*
X152995324Y-70199300D01*
X153056467Y-70187137D01*
X153116785Y-70175139D01*
X153231201Y-70127747D01*
X153334173Y-70058943D01*
X153421743Y-69971373D01*
X153444112Y-69937896D01*
X153497724Y-69893091D01*
X153567049Y-69884384D01*
X153630077Y-69914538D01*
X153650316Y-69937896D01*
X153689656Y-69996772D01*
X153689659Y-69996776D01*
X153777223Y-70084340D01*
X153777227Y-70084343D01*
X153880195Y-70153145D01*
X153880197Y-70153145D01*
X153880199Y-70153147D01*
X153994615Y-70200539D01*
X154024360Y-70206455D01*
X154116075Y-70224700D01*
X154116078Y-70224700D01*
X154239924Y-70224700D01*
X154301067Y-70212537D01*
X154361385Y-70200539D01*
X154475801Y-70153147D01*
X154578773Y-70084343D01*
X154666343Y-69996773D01*
X154731084Y-69899880D01*
X154784694Y-69855077D01*
X154854019Y-69846370D01*
X154917047Y-69876524D01*
X154937287Y-69899881D01*
X154985059Y-69971376D01*
X155072623Y-70058940D01*
X155072627Y-70058943D01*
X155175595Y-70127745D01*
X155175597Y-70127745D01*
X155175599Y-70127747D01*
X155290015Y-70175139D01*
X155319760Y-70181055D01*
X155411475Y-70199300D01*
X155411478Y-70199300D01*
X155535324Y-70199300D01*
X155596467Y-70187137D01*
X155656785Y-70175139D01*
X155771201Y-70127747D01*
X155874173Y-70058943D01*
X155961743Y-69971373D01*
X156005298Y-69906189D01*
X156058910Y-69861384D01*
X156128235Y-69852677D01*
X156191263Y-69882831D01*
X156211502Y-69906189D01*
X156255056Y-69971372D01*
X156255059Y-69971376D01*
X156342623Y-70058940D01*
X156342627Y-70058943D01*
X156445595Y-70127745D01*
X156445597Y-70127745D01*
X156445599Y-70127747D01*
X156560015Y-70175139D01*
X156589760Y-70181055D01*
X156681475Y-70199300D01*
X156681478Y-70199300D01*
X156805324Y-70199300D01*
X156866467Y-70187137D01*
X156926785Y-70175139D01*
X157041201Y-70127747D01*
X157144173Y-70058943D01*
X157231743Y-69971373D01*
X157275298Y-69906189D01*
X157328910Y-69861384D01*
X157398235Y-69852677D01*
X157461263Y-69882831D01*
X157481502Y-69906189D01*
X157525056Y-69971372D01*
X157525059Y-69971376D01*
X157612623Y-70058940D01*
X157612627Y-70058943D01*
X157715595Y-70127745D01*
X157715597Y-70127745D01*
X157715599Y-70127747D01*
X157830015Y-70175139D01*
X157859760Y-70181055D01*
X157951475Y-70199300D01*
X157951478Y-70199300D01*
X158075324Y-70199300D01*
X158136467Y-70187137D01*
X158196785Y-70175139D01*
X158311201Y-70127747D01*
X158414173Y-70058943D01*
X158501743Y-69971373D01*
X158545298Y-69906189D01*
X158598910Y-69861384D01*
X158668235Y-69852677D01*
X158731263Y-69882831D01*
X158751502Y-69906189D01*
X158795056Y-69971372D01*
X158795059Y-69971376D01*
X158882623Y-70058940D01*
X158882627Y-70058943D01*
X158985595Y-70127745D01*
X158985597Y-70127745D01*
X158985599Y-70127747D01*
X159100015Y-70175139D01*
X159129760Y-70181055D01*
X159221475Y-70199300D01*
X159221478Y-70199300D01*
X159345324Y-70199300D01*
X159406467Y-70187137D01*
X159466785Y-70175139D01*
X159581201Y-70127747D01*
X159684173Y-70058943D01*
X159771743Y-69971373D01*
X159815298Y-69906189D01*
X159868910Y-69861384D01*
X159938235Y-69852677D01*
X160001263Y-69882831D01*
X160021502Y-69906189D01*
X160065056Y-69971372D01*
X160065059Y-69971376D01*
X160152623Y-70058940D01*
X160152627Y-70058943D01*
X160255595Y-70127745D01*
X160255597Y-70127745D01*
X160255599Y-70127747D01*
X160370015Y-70175139D01*
X160399760Y-70181055D01*
X160491475Y-70199300D01*
X160491478Y-70199300D01*
X160615324Y-70199300D01*
X160676467Y-70187137D01*
X160736785Y-70175139D01*
X160851201Y-70127747D01*
X160954173Y-70058943D01*
X161041743Y-69971373D01*
X161085298Y-69906189D01*
X161138910Y-69861384D01*
X161208235Y-69852677D01*
X161271263Y-69882831D01*
X161291502Y-69906189D01*
X161335056Y-69971372D01*
X161335059Y-69971376D01*
X161422623Y-70058940D01*
X161422627Y-70058943D01*
X161525595Y-70127745D01*
X161525597Y-70127745D01*
X161525599Y-70127747D01*
X161640015Y-70175139D01*
X161669760Y-70181055D01*
X161761475Y-70199300D01*
X161761478Y-70199300D01*
X161885324Y-70199300D01*
X161946467Y-70187137D01*
X162006785Y-70175139D01*
X162121201Y-70127747D01*
X162224173Y-70058943D01*
X162311743Y-69971373D01*
X162355298Y-69906189D01*
X162408910Y-69861384D01*
X162478235Y-69852677D01*
X162541263Y-69882831D01*
X162561502Y-69906189D01*
X162605056Y-69971372D01*
X162605059Y-69971376D01*
X162692623Y-70058940D01*
X162692627Y-70058943D01*
X162795595Y-70127745D01*
X162795597Y-70127745D01*
X162795599Y-70127747D01*
X162910015Y-70175139D01*
X162939760Y-70181055D01*
X163031475Y-70199300D01*
X163031478Y-70199300D01*
X163155324Y-70199300D01*
X163216467Y-70187137D01*
X163276785Y-70175139D01*
X163391201Y-70127747D01*
X163494173Y-70058943D01*
X163581743Y-69971373D01*
X163625298Y-69906189D01*
X163678910Y-69861384D01*
X163748235Y-69852677D01*
X163811263Y-69882831D01*
X163831502Y-69906189D01*
X163875056Y-69971372D01*
X163875059Y-69971376D01*
X163962623Y-70058940D01*
X163962627Y-70058943D01*
X164065595Y-70127745D01*
X164065597Y-70127745D01*
X164065599Y-70127747D01*
X164180015Y-70175139D01*
X164209760Y-70181055D01*
X164301475Y-70199300D01*
X164301478Y-70199300D01*
X164425324Y-70199300D01*
X164486467Y-70187137D01*
X164546785Y-70175139D01*
X164661201Y-70127747D01*
X164764173Y-70058943D01*
X164851743Y-69971373D01*
X164895298Y-69906189D01*
X164948910Y-69861384D01*
X165018235Y-69852677D01*
X165081263Y-69882831D01*
X165101502Y-69906189D01*
X165145056Y-69971372D01*
X165145059Y-69971376D01*
X165232623Y-70058940D01*
X165232627Y-70058943D01*
X165335595Y-70127745D01*
X165335597Y-70127745D01*
X165335599Y-70127747D01*
X165450015Y-70175139D01*
X165479760Y-70181055D01*
X165571475Y-70199300D01*
X165571478Y-70199300D01*
X165695324Y-70199300D01*
X165756467Y-70187137D01*
X165816785Y-70175139D01*
X165931201Y-70127747D01*
X166034173Y-70058943D01*
X166121743Y-69971373D01*
X166165298Y-69906189D01*
X166218910Y-69861384D01*
X166288235Y-69852677D01*
X166351263Y-69882831D01*
X166371502Y-69906189D01*
X166415056Y-69971372D01*
X166415059Y-69971376D01*
X166502623Y-70058940D01*
X166502627Y-70058943D01*
X166605595Y-70127745D01*
X166605597Y-70127745D01*
X166605599Y-70127747D01*
X166720015Y-70175139D01*
X166749760Y-70181055D01*
X166841475Y-70199300D01*
X166841478Y-70199300D01*
X166965324Y-70199300D01*
X167026467Y-70187137D01*
X167086785Y-70175139D01*
X167201201Y-70127747D01*
X167304173Y-70058943D01*
X167391743Y-69971373D01*
X167460547Y-69868401D01*
X167507939Y-69753985D01*
X167532100Y-69632522D01*
X167532100Y-69508678D01*
X167532100Y-69508675D01*
X167507940Y-69387221D01*
X167507939Y-69387215D01*
X167460547Y-69272799D01*
X167407154Y-69192891D01*
X167386276Y-69126214D01*
X167404760Y-69058834D01*
X167456739Y-69012143D01*
X167510256Y-69000000D01*
X171358900Y-69000000D01*
X171367585Y-69002550D01*
X171376547Y-69001262D01*
X171400587Y-69012240D01*
X171425939Y-69019685D01*
X171431866Y-69026525D01*
X171440103Y-69030287D01*
X171454392Y-69052521D01*
X171471694Y-69072489D01*
X171473981Y-69083003D01*
X171477877Y-69089065D01*
X171482900Y-69124000D01*
X171482900Y-69150405D01*
X171463215Y-69217444D01*
X171462002Y-69219296D01*
X171426254Y-69272795D01*
X171426253Y-69272798D01*
X171378861Y-69387213D01*
X171378859Y-69387221D01*
X171354700Y-69508675D01*
X171354700Y-69508678D01*
X171354700Y-69632522D01*
X171354700Y-69632524D01*
X171354699Y-69632524D01*
X171378859Y-69753978D01*
X171378861Y-69753986D01*
X171426253Y-69868401D01*
X171426254Y-69868404D01*
X171495056Y-69971372D01*
X171495059Y-69971376D01*
X171582623Y-70058940D01*
X171582627Y-70058943D01*
X171685595Y-70127745D01*
X171685597Y-70127745D01*
X171685599Y-70127747D01*
X171800015Y-70175139D01*
X171829760Y-70181055D01*
X171921475Y-70199300D01*
X171921478Y-70199300D01*
X172045324Y-70199300D01*
X172106467Y-70187137D01*
X172166785Y-70175139D01*
X172281201Y-70127747D01*
X172384173Y-70058943D01*
X172471743Y-69971373D01*
X172540547Y-69868401D01*
X172587939Y-69753985D01*
X172612100Y-69632522D01*
X172612100Y-69508678D01*
X172612100Y-69508675D01*
X172587940Y-69387221D01*
X172587939Y-69387215D01*
X172540547Y-69272799D01*
X172540545Y-69272796D01*
X172540545Y-69272795D01*
X172504798Y-69219296D01*
X172499147Y-69201249D01*
X172488923Y-69185340D01*
X172484471Y-69154378D01*
X172483920Y-69152618D01*
X172483900Y-69150405D01*
X172483900Y-69124000D01*
X172503585Y-69056961D01*
X172556389Y-69011206D01*
X172607900Y-69000000D01*
X172993907Y-69000000D01*
X173006061Y-69000597D01*
X173182941Y-69018018D01*
X173206769Y-69022757D01*
X173371001Y-69072576D01*
X173393453Y-69081877D01*
X173544798Y-69162772D01*
X173565010Y-69176277D01*
X173697666Y-69285145D01*
X173714854Y-69302333D01*
X173823722Y-69434989D01*
X173837227Y-69455201D01*
X173918121Y-69606543D01*
X173927424Y-69629001D01*
X173977240Y-69793224D01*
X173981982Y-69817065D01*
X173999403Y-69993938D01*
X174000000Y-70006092D01*
X174000000Y-145493907D01*
X173999403Y-145506061D01*
X173981982Y-145682934D01*
X173977240Y-145706775D01*
X173927424Y-145870998D01*
X173918121Y-145893456D01*
X173837227Y-146044798D01*
X173823722Y-146065010D01*
X173714854Y-146197666D01*
X173697666Y-146214854D01*
X173565010Y-146323722D01*
X173544798Y-146337227D01*
X173393456Y-146418121D01*
X173370998Y-146427424D01*
X173206775Y-146477240D01*
X173182934Y-146481982D01*
X173006061Y-146499403D01*
X172993907Y-146500000D01*
X137000000Y-146500000D01*
X124006093Y-146500000D01*
X123993939Y-146499403D01*
X123817065Y-146481982D01*
X123793224Y-146477240D01*
X123629001Y-146427424D01*
X123606543Y-146418121D01*
X123455201Y-146337227D01*
X123434989Y-146323722D01*
X123302333Y-146214854D01*
X123285145Y-146197666D01*
X123176277Y-146065010D01*
X123162772Y-146044798D01*
X123081878Y-145893456D01*
X123072575Y-145870998D01*
X123022757Y-145706769D01*
X123018018Y-145682941D01*
X123000597Y-145506061D01*
X123000000Y-145493907D01*
X123000000Y-139613766D01*
X139465500Y-139613766D01*
X139465500Y-139786233D01*
X139499143Y-139955366D01*
X139499146Y-139955378D01*
X139565138Y-140114698D01*
X139565145Y-140114711D01*
X139660954Y-140258098D01*
X139660957Y-140258102D01*
X139782897Y-140380042D01*
X139782901Y-140380045D01*
X139926288Y-140475854D01*
X139926301Y-140475861D01*
X140085621Y-140541853D01*
X140085626Y-140541855D01*
X140254766Y-140575499D01*
X140254769Y-140575500D01*
X140254771Y-140575500D01*
X141177231Y-140575500D01*
X141177232Y-140575499D01*
X141346374Y-140541855D01*
X141505705Y-140475858D01*
X141649099Y-140380045D01*
X141771045Y-140258099D01*
X141866858Y-140114705D01*
X141932855Y-139955374D01*
X141966500Y-139786229D01*
X141966500Y-139613771D01*
X141966500Y-139613768D01*
X141966499Y-139613766D01*
X141932856Y-139444633D01*
X141932855Y-139444626D01*
X141903404Y-139373525D01*
X146515500Y-139373525D01*
X146515500Y-139518475D01*
X146541034Y-139613768D01*
X146553017Y-139658488D01*
X146625488Y-139784011D01*
X146625490Y-139784013D01*
X146625491Y-139784015D01*
X146727985Y-139886509D01*
X146727986Y-139886510D01*
X146727988Y-139886511D01*
X146853511Y-139958982D01*
X146853512Y-139958982D01*
X146853515Y-139958984D01*
X146993525Y-139996500D01*
X146993528Y-139996500D01*
X147138472Y-139996500D01*
X147138475Y-139996500D01*
X147278485Y-139958984D01*
X147404015Y-139886509D01*
X147457705Y-139832819D01*
X147519028Y-139799334D01*
X147545386Y-139796500D01*
X148128142Y-139796500D01*
X148128144Y-139796500D01*
X148217288Y-139772614D01*
X148227912Y-139766480D01*
X148297212Y-139726470D01*
X148409916Y-139613766D01*
X155023500Y-139613766D01*
X155023500Y-139786233D01*
X155057143Y-139955366D01*
X155057146Y-139955378D01*
X155123138Y-140114698D01*
X155123145Y-140114711D01*
X155218954Y-140258098D01*
X155218957Y-140258102D01*
X155340897Y-140380042D01*
X155340901Y-140380045D01*
X155484288Y-140475854D01*
X155484301Y-140475861D01*
X155643621Y-140541853D01*
X155643626Y-140541855D01*
X155812766Y-140575499D01*
X155812769Y-140575500D01*
X155812771Y-140575500D01*
X156735231Y-140575500D01*
X156735232Y-140575499D01*
X156904374Y-140541855D01*
X157063705Y-140475858D01*
X157207099Y-140380045D01*
X157329045Y-140258099D01*
X157424858Y-140114705D01*
X157490855Y-139955374D01*
X157524500Y-139786229D01*
X157524500Y-139613771D01*
X157524500Y-139613768D01*
X157524499Y-139613766D01*
X157490856Y-139444633D01*
X157490855Y-139444626D01*
X157490853Y-139444621D01*
X157424861Y-139285301D01*
X157424854Y-139285288D01*
X157329045Y-139141901D01*
X157329042Y-139141897D01*
X157207102Y-139019957D01*
X157207098Y-139019954D01*
X157063711Y-138924145D01*
X157063698Y-138924138D01*
X156904378Y-138858146D01*
X156904366Y-138858143D01*
X156735232Y-138824500D01*
X156735229Y-138824500D01*
X155812771Y-138824500D01*
X155812768Y-138824500D01*
X155643633Y-138858143D01*
X155643621Y-138858146D01*
X155484301Y-138924138D01*
X155484288Y-138924145D01*
X155340901Y-139019954D01*
X155340897Y-139019957D01*
X155218957Y-139141897D01*
X155218954Y-139141901D01*
X155123145Y-139285288D01*
X155123138Y-139285301D01*
X155057146Y-139444621D01*
X155057143Y-139444633D01*
X155023500Y-139613766D01*
X148409916Y-139613766D01*
X149124470Y-138899212D01*
X149170614Y-138819288D01*
X149194500Y-138730143D01*
X149194500Y-138637856D01*
X149194500Y-137073766D01*
X155023500Y-137073766D01*
X155023500Y-137246233D01*
X155057143Y-137415366D01*
X155057146Y-137415378D01*
X155123138Y-137574698D01*
X155123145Y-137574711D01*
X155218954Y-137718098D01*
X155218957Y-137718102D01*
X155340897Y-137840042D01*
X155340901Y-137840045D01*
X155484288Y-137935854D01*
X155484301Y-137935861D01*
X155643621Y-138001853D01*
X155643626Y-138001855D01*
X155812766Y-138035499D01*
X155812769Y-138035500D01*
X155812771Y-138035500D01*
X156735231Y-138035500D01*
X156735232Y-138035499D01*
X156904374Y-138001855D01*
X157063705Y-137935858D01*
X157207099Y-137840045D01*
X157329045Y-137718099D01*
X157424858Y-137574705D01*
X157490855Y-137415374D01*
X157524500Y-137246229D01*
X157524500Y-137073771D01*
X157524500Y-137073768D01*
X157524499Y-137073766D01*
X157490856Y-136904633D01*
X157490855Y-136904626D01*
X157490853Y-136904621D01*
X157424861Y-136745301D01*
X157424854Y-136745288D01*
X157329045Y-136601901D01*
X157329042Y-136601897D01*
X157207102Y-136479957D01*
X157207098Y-136479954D01*
X157063711Y-136384145D01*
X157063698Y-136384138D01*
X156904378Y-136318146D01*
X156904366Y-136318143D01*
X156735232Y-136284500D01*
X156735229Y-136284500D01*
X155812771Y-136284500D01*
X155812768Y-136284500D01*
X155643633Y-136318143D01*
X155643621Y-136318146D01*
X155484301Y-136384138D01*
X155484288Y-136384145D01*
X155340901Y-136479954D01*
X155340897Y-136479957D01*
X155218957Y-136601897D01*
X155218954Y-136601901D01*
X155123145Y-136745288D01*
X155123138Y-136745301D01*
X155057146Y-136904621D01*
X155057143Y-136904633D01*
X155023500Y-137073766D01*
X149194500Y-137073766D01*
X149194500Y-134533766D01*
X155023500Y-134533766D01*
X155023500Y-134706233D01*
X155057143Y-134875366D01*
X155057146Y-134875378D01*
X155123138Y-135034698D01*
X155123145Y-135034711D01*
X155218954Y-135178098D01*
X155218957Y-135178102D01*
X155340897Y-135300042D01*
X155340901Y-135300045D01*
X155484288Y-135395854D01*
X155484301Y-135395861D01*
X155643621Y-135461853D01*
X155643626Y-135461855D01*
X155812766Y-135495499D01*
X155812769Y-135495500D01*
X155812771Y-135495500D01*
X156735231Y-135495500D01*
X156735232Y-135495499D01*
X156904374Y-135461855D01*
X157063705Y-135395858D01*
X157207099Y-135300045D01*
X157329045Y-135178099D01*
X157424858Y-135034705D01*
X157490855Y-134875374D01*
X157524500Y-134706229D01*
X157524500Y-134533771D01*
X157524500Y-134533768D01*
X157524499Y-134533766D01*
X157490856Y-134364633D01*
X157490855Y-134364626D01*
X157490853Y-134364621D01*
X157424861Y-134205301D01*
X157424854Y-134205288D01*
X157329045Y-134061901D01*
X157329042Y-134061897D01*
X157207102Y-133939957D01*
X157207098Y-133939954D01*
X157063711Y-133844145D01*
X157063698Y-133844138D01*
X156904378Y-133778146D01*
X156904366Y-133778143D01*
X156735232Y-133744500D01*
X156735229Y-133744500D01*
X155812771Y-133744500D01*
X155812768Y-133744500D01*
X155643633Y-133778143D01*
X155643621Y-133778146D01*
X155484301Y-133844138D01*
X155484288Y-133844145D01*
X155340901Y-133939954D01*
X155340897Y-133939957D01*
X155218957Y-134061897D01*
X155218954Y-134061901D01*
X155123145Y-134205288D01*
X155123138Y-134205301D01*
X155057146Y-134364621D01*
X155057143Y-134364633D01*
X155023500Y-134533766D01*
X149194500Y-134533766D01*
X149194500Y-131993766D01*
X155023500Y-131993766D01*
X155023500Y-132166233D01*
X155057143Y-132335366D01*
X155057146Y-132335378D01*
X155123138Y-132494698D01*
X155123145Y-132494711D01*
X155218954Y-132638098D01*
X155218957Y-132638102D01*
X155340897Y-132760042D01*
X155340901Y-132760045D01*
X155484288Y-132855854D01*
X155484301Y-132855861D01*
X155643621Y-132921853D01*
X155643626Y-132921855D01*
X155812766Y-132955499D01*
X155812769Y-132955500D01*
X155812771Y-132955500D01*
X156735231Y-132955500D01*
X156735232Y-132955499D01*
X156904374Y-132921855D01*
X157063705Y-132855858D01*
X157207099Y-132760045D01*
X157329045Y-132638099D01*
X157424858Y-132494705D01*
X157490855Y-132335374D01*
X157524500Y-132166229D01*
X157524500Y-131993771D01*
X157524500Y-131993768D01*
X157524499Y-131993766D01*
X157490856Y-131824633D01*
X157490855Y-131824626D01*
X157490853Y-131824621D01*
X157424861Y-131665301D01*
X157424854Y-131665288D01*
X157329045Y-131521901D01*
X157329042Y-131521897D01*
X157207102Y-131399957D01*
X157207098Y-131399954D01*
X157063711Y-131304145D01*
X157063698Y-131304138D01*
X156904378Y-131238146D01*
X156904366Y-131238143D01*
X156735232Y-131204500D01*
X156735229Y-131204500D01*
X155812771Y-131204500D01*
X155812768Y-131204500D01*
X155643633Y-131238143D01*
X155643621Y-131238146D01*
X155484301Y-131304138D01*
X155484288Y-131304145D01*
X155340901Y-131399954D01*
X155340897Y-131399957D01*
X155218957Y-131521897D01*
X155218954Y-131521901D01*
X155123145Y-131665288D01*
X155123138Y-131665301D01*
X155057146Y-131824621D01*
X155057143Y-131824633D01*
X155023500Y-131993766D01*
X149194500Y-131993766D01*
X149194500Y-129453766D01*
X155023500Y-129453766D01*
X155023500Y-129626233D01*
X155057143Y-129795366D01*
X155057146Y-129795378D01*
X155123138Y-129954698D01*
X155123145Y-129954711D01*
X155218954Y-130098098D01*
X155218957Y-130098102D01*
X155340897Y-130220042D01*
X155340901Y-130220045D01*
X155484288Y-130315854D01*
X155484301Y-130315861D01*
X155643621Y-130381853D01*
X155643626Y-130381855D01*
X155812766Y-130415499D01*
X155812769Y-130415500D01*
X155812771Y-130415500D01*
X156735231Y-130415500D01*
X156735232Y-130415499D01*
X156904374Y-130381855D01*
X157063705Y-130315858D01*
X157207099Y-130220045D01*
X157329045Y-130098099D01*
X157424858Y-129954705D01*
X157490855Y-129795374D01*
X157524500Y-129626229D01*
X157524500Y-129453771D01*
X157524500Y-129453768D01*
X157524499Y-129453766D01*
X157490856Y-129284633D01*
X157490855Y-129284626D01*
X157490853Y-129284621D01*
X157424861Y-129125301D01*
X157424854Y-129125288D01*
X157329045Y-128981901D01*
X157329042Y-128981897D01*
X157207102Y-128859957D01*
X157207098Y-128859954D01*
X157063711Y-128764145D01*
X157063698Y-128764138D01*
X156904378Y-128698146D01*
X156904366Y-128698143D01*
X156735232Y-128664500D01*
X156735229Y-128664500D01*
X155812771Y-128664500D01*
X155812768Y-128664500D01*
X155643633Y-128698143D01*
X155643621Y-128698146D01*
X155484301Y-128764138D01*
X155484288Y-128764145D01*
X155340901Y-128859954D01*
X155340897Y-128859957D01*
X155218957Y-128981897D01*
X155218954Y-128981901D01*
X155123145Y-129125288D01*
X155123138Y-129125301D01*
X155057146Y-129284621D01*
X155057143Y-129284633D01*
X155023500Y-129453766D01*
X149194500Y-129453766D01*
X149194500Y-126913766D01*
X155023500Y-126913766D01*
X155023500Y-127086233D01*
X155057143Y-127255366D01*
X155057146Y-127255378D01*
X155123138Y-127414698D01*
X155123145Y-127414711D01*
X155218954Y-127558098D01*
X155218957Y-127558102D01*
X155340897Y-127680042D01*
X155340901Y-127680045D01*
X155484288Y-127775854D01*
X155484301Y-127775861D01*
X155643621Y-127841853D01*
X155643626Y-127841855D01*
X155812766Y-127875499D01*
X155812769Y-127875500D01*
X155812771Y-127875500D01*
X156735231Y-127875500D01*
X156735232Y-127875499D01*
X156904374Y-127841855D01*
X157063705Y-127775858D01*
X157207099Y-127680045D01*
X157329045Y-127558099D01*
X157424858Y-127414705D01*
X157490855Y-127255374D01*
X157524500Y-127086229D01*
X157524500Y-126913771D01*
X157524500Y-126913768D01*
X157524499Y-126913766D01*
X157490856Y-126744633D01*
X157490855Y-126744626D01*
X157490853Y-126744621D01*
X157424861Y-126585301D01*
X157424854Y-126585288D01*
X157329045Y-126441901D01*
X157329042Y-126441897D01*
X157207102Y-126319957D01*
X157207098Y-126319954D01*
X157063711Y-126224145D01*
X157063698Y-126224138D01*
X156904378Y-126158146D01*
X156904366Y-126158143D01*
X156735232Y-126124500D01*
X156735229Y-126124500D01*
X155812771Y-126124500D01*
X155812768Y-126124500D01*
X155643633Y-126158143D01*
X155643621Y-126158146D01*
X155484301Y-126224138D01*
X155484288Y-126224145D01*
X155340901Y-126319954D01*
X155340897Y-126319957D01*
X155218957Y-126441897D01*
X155218954Y-126441901D01*
X155123145Y-126585288D01*
X155123138Y-126585301D01*
X155057146Y-126744621D01*
X155057143Y-126744633D01*
X155023500Y-126913766D01*
X149194500Y-126913766D01*
X149194500Y-124373766D01*
X155023500Y-124373766D01*
X155023500Y-124546233D01*
X155057143Y-124715366D01*
X155057146Y-124715378D01*
X155123138Y-124874698D01*
X155123145Y-124874711D01*
X155218954Y-125018098D01*
X155218957Y-125018102D01*
X155340897Y-125140042D01*
X155340901Y-125140045D01*
X155484288Y-125235854D01*
X155484301Y-125235861D01*
X155643621Y-125301853D01*
X155643626Y-125301855D01*
X155812766Y-125335499D01*
X155812769Y-125335500D01*
X155812771Y-125335500D01*
X156735231Y-125335500D01*
X156735232Y-125335499D01*
X156904374Y-125301855D01*
X157063705Y-125235858D01*
X157207099Y-125140045D01*
X157329045Y-125018099D01*
X157424858Y-124874705D01*
X157490855Y-124715374D01*
X157524500Y-124546229D01*
X157524500Y-124373771D01*
X157524500Y-124373768D01*
X157524499Y-124373766D01*
X157490856Y-124204633D01*
X157490855Y-124204626D01*
X157490853Y-124204621D01*
X157424861Y-124045301D01*
X157424854Y-124045288D01*
X157329045Y-123901901D01*
X157329042Y-123901897D01*
X157207102Y-123779957D01*
X157207098Y-123779954D01*
X157063711Y-123684145D01*
X157063698Y-123684138D01*
X156904378Y-123618146D01*
X156904366Y-123618143D01*
X156735232Y-123584500D01*
X156735229Y-123584500D01*
X155812771Y-123584500D01*
X155812768Y-123584500D01*
X155643633Y-123618143D01*
X155643621Y-123618146D01*
X155484301Y-123684138D01*
X155484288Y-123684145D01*
X155340901Y-123779954D01*
X155340897Y-123779957D01*
X155218957Y-123901897D01*
X155218954Y-123901901D01*
X155123145Y-124045288D01*
X155123138Y-124045301D01*
X155057146Y-124204621D01*
X155057143Y-124204633D01*
X155023500Y-124373766D01*
X149194500Y-124373766D01*
X149194500Y-121833766D01*
X155023500Y-121833766D01*
X155023500Y-122006233D01*
X155057143Y-122175366D01*
X155057146Y-122175378D01*
X155123138Y-122334698D01*
X155123145Y-122334711D01*
X155218954Y-122478098D01*
X155218957Y-122478102D01*
X155340897Y-122600042D01*
X155340901Y-122600045D01*
X155484288Y-122695854D01*
X155484301Y-122695861D01*
X155643621Y-122761853D01*
X155643626Y-122761855D01*
X155812766Y-122795499D01*
X155812769Y-122795500D01*
X155812771Y-122795500D01*
X156735231Y-122795500D01*
X156735232Y-122795499D01*
X156904374Y-122761855D01*
X157063705Y-122695858D01*
X157207099Y-122600045D01*
X157329045Y-122478099D01*
X157424858Y-122334705D01*
X157490855Y-122175374D01*
X157524500Y-122006229D01*
X157524500Y-121833771D01*
X157524500Y-121833768D01*
X157524499Y-121833766D01*
X157490856Y-121664633D01*
X157490855Y-121664626D01*
X157490853Y-121664621D01*
X157424861Y-121505301D01*
X157424854Y-121505288D01*
X157329045Y-121361901D01*
X157329042Y-121361897D01*
X157207102Y-121239957D01*
X157207098Y-121239954D01*
X157063711Y-121144145D01*
X157063698Y-121144138D01*
X156904378Y-121078146D01*
X156904366Y-121078143D01*
X156735232Y-121044500D01*
X156735229Y-121044500D01*
X155812771Y-121044500D01*
X155812768Y-121044500D01*
X155643633Y-121078143D01*
X155643621Y-121078146D01*
X155484301Y-121144138D01*
X155484288Y-121144145D01*
X155340901Y-121239954D01*
X155340897Y-121239957D01*
X155218957Y-121361897D01*
X155218954Y-121361901D01*
X155123145Y-121505288D01*
X155123138Y-121505301D01*
X155057146Y-121664621D01*
X155057143Y-121664633D01*
X155023500Y-121833766D01*
X149194500Y-121833766D01*
X149194500Y-119293766D01*
X155023500Y-119293766D01*
X155023500Y-119466233D01*
X155057143Y-119635366D01*
X155057146Y-119635378D01*
X155123138Y-119794698D01*
X155123145Y-119794711D01*
X155218954Y-119938098D01*
X155218957Y-119938102D01*
X155340897Y-120060042D01*
X155340901Y-120060045D01*
X155484288Y-120155854D01*
X155484301Y-120155861D01*
X155643621Y-120221853D01*
X155643626Y-120221855D01*
X155812766Y-120255499D01*
X155812769Y-120255500D01*
X155812771Y-120255500D01*
X156735231Y-120255500D01*
X156735232Y-120255499D01*
X156904374Y-120221855D01*
X157063705Y-120155858D01*
X157207099Y-120060045D01*
X157329045Y-119938099D01*
X157424858Y-119794705D01*
X157490855Y-119635374D01*
X157524500Y-119466229D01*
X157524500Y-119293771D01*
X157524500Y-119293768D01*
X157524499Y-119293766D01*
X157490856Y-119124633D01*
X157490855Y-119124626D01*
X157490853Y-119124621D01*
X157424861Y-118965301D01*
X157424854Y-118965288D01*
X157329045Y-118821901D01*
X157329042Y-118821897D01*
X157207102Y-118699957D01*
X157207098Y-118699954D01*
X157063711Y-118604145D01*
X157063698Y-118604138D01*
X156904378Y-118538146D01*
X156904366Y-118538143D01*
X156735232Y-118504500D01*
X156735229Y-118504500D01*
X155812771Y-118504500D01*
X155812768Y-118504500D01*
X155643633Y-118538143D01*
X155643621Y-118538146D01*
X155484301Y-118604138D01*
X155484288Y-118604145D01*
X155340901Y-118699954D01*
X155340897Y-118699957D01*
X155218957Y-118821897D01*
X155218954Y-118821901D01*
X155123145Y-118965288D01*
X155123138Y-118965301D01*
X155057146Y-119124621D01*
X155057143Y-119124633D01*
X155023500Y-119293766D01*
X149194500Y-119293766D01*
X149194500Y-116753766D01*
X155023500Y-116753766D01*
X155023500Y-116926233D01*
X155057143Y-117095366D01*
X155057146Y-117095378D01*
X155123138Y-117254698D01*
X155123145Y-117254711D01*
X155218954Y-117398098D01*
X155218957Y-117398102D01*
X155340897Y-117520042D01*
X155340901Y-117520045D01*
X155484288Y-117615854D01*
X155484301Y-117615861D01*
X155643621Y-117681853D01*
X155643626Y-117681855D01*
X155812766Y-117715499D01*
X155812769Y-117715500D01*
X155812771Y-117715500D01*
X156735231Y-117715500D01*
X156735232Y-117715499D01*
X156904374Y-117681855D01*
X157063705Y-117615858D01*
X157207099Y-117520045D01*
X157329045Y-117398099D01*
X157424858Y-117254705D01*
X157490855Y-117095374D01*
X157524500Y-116926229D01*
X157524500Y-116753771D01*
X157524500Y-116753768D01*
X157524499Y-116753766D01*
X157490856Y-116584633D01*
X157490855Y-116584626D01*
X157490853Y-116584621D01*
X157424861Y-116425301D01*
X157424854Y-116425288D01*
X157329045Y-116281901D01*
X157329042Y-116281897D01*
X157207102Y-116159957D01*
X157207098Y-116159954D01*
X157063711Y-116064145D01*
X157063698Y-116064138D01*
X156904378Y-115998146D01*
X156904366Y-115998143D01*
X156735232Y-115964500D01*
X156735229Y-115964500D01*
X155812771Y-115964500D01*
X155812768Y-115964500D01*
X155643633Y-115998143D01*
X155643621Y-115998146D01*
X155484301Y-116064138D01*
X155484288Y-116064145D01*
X155340901Y-116159954D01*
X155340897Y-116159957D01*
X155218957Y-116281897D01*
X155218954Y-116281901D01*
X155123145Y-116425288D01*
X155123138Y-116425301D01*
X155057146Y-116584621D01*
X155057143Y-116584633D01*
X155023500Y-116753766D01*
X149194500Y-116753766D01*
X149194500Y-114213766D01*
X155023500Y-114213766D01*
X155023500Y-114386233D01*
X155057143Y-114555366D01*
X155057146Y-114555378D01*
X155123138Y-114714698D01*
X155123145Y-114714711D01*
X155218954Y-114858098D01*
X155218957Y-114858102D01*
X155340897Y-114980042D01*
X155340901Y-114980045D01*
X155484288Y-115075854D01*
X155484301Y-115075861D01*
X155643621Y-115141853D01*
X155643626Y-115141855D01*
X155812766Y-115175499D01*
X155812769Y-115175500D01*
X155812771Y-115175500D01*
X156735231Y-115175500D01*
X156735232Y-115175499D01*
X156904374Y-115141855D01*
X157063705Y-115075858D01*
X157207099Y-114980045D01*
X157329045Y-114858099D01*
X157424858Y-114714705D01*
X157490855Y-114555374D01*
X157524500Y-114386229D01*
X157524500Y-114213771D01*
X157524500Y-114213768D01*
X157524499Y-114213766D01*
X157490856Y-114044633D01*
X157490855Y-114044626D01*
X157490853Y-114044621D01*
X157424861Y-113885301D01*
X157424854Y-113885288D01*
X157329045Y-113741901D01*
X157329042Y-113741897D01*
X157207102Y-113619957D01*
X157207098Y-113619954D01*
X157063711Y-113524145D01*
X157063698Y-113524138D01*
X156904378Y-113458146D01*
X156904366Y-113458143D01*
X156735232Y-113424500D01*
X156735229Y-113424500D01*
X155812771Y-113424500D01*
X155812768Y-113424500D01*
X155643633Y-113458143D01*
X155643621Y-113458146D01*
X155484301Y-113524138D01*
X155484288Y-113524145D01*
X155340901Y-113619954D01*
X155340897Y-113619957D01*
X155218957Y-113741897D01*
X155218954Y-113741901D01*
X155123145Y-113885288D01*
X155123138Y-113885301D01*
X155057146Y-114044621D01*
X155057143Y-114044633D01*
X155023500Y-114213766D01*
X149194500Y-114213766D01*
X149194500Y-113255386D01*
X149214185Y-113188347D01*
X149230819Y-113167705D01*
X149284509Y-113114015D01*
X149356984Y-112988485D01*
X149394500Y-112848475D01*
X149394500Y-112703525D01*
X149356984Y-112563515D01*
X149285698Y-112440045D01*
X149284511Y-112437988D01*
X149284506Y-112437982D01*
X149182017Y-112335493D01*
X149182011Y-112335488D01*
X149056488Y-112263017D01*
X149056489Y-112263017D01*
X149045006Y-112259940D01*
X148916475Y-112225500D01*
X148771525Y-112225500D01*
X148642993Y-112259940D01*
X148631511Y-112263017D01*
X148505988Y-112335488D01*
X148505982Y-112335493D01*
X148403493Y-112437982D01*
X148403488Y-112437988D01*
X148331017Y-112563511D01*
X148331016Y-112563515D01*
X148293500Y-112703525D01*
X148293500Y-112848475D01*
X148331016Y-112988485D01*
X148331017Y-112988488D01*
X148403488Y-113114011D01*
X148403493Y-113114017D01*
X148457181Y-113167705D01*
X148490666Y-113229028D01*
X148493500Y-113255386D01*
X148493500Y-138487456D01*
X148473815Y-138554495D01*
X148457181Y-138575137D01*
X147973137Y-139059181D01*
X147911814Y-139092666D01*
X147885456Y-139095500D01*
X147545386Y-139095500D01*
X147478347Y-139075815D01*
X147457705Y-139059181D01*
X147404017Y-139005493D01*
X147404011Y-139005488D01*
X147278488Y-138933017D01*
X147278489Y-138933017D01*
X147245352Y-138924138D01*
X147138475Y-138895500D01*
X146993525Y-138895500D01*
X146886648Y-138924138D01*
X146853511Y-138933017D01*
X146727988Y-139005488D01*
X146727982Y-139005493D01*
X146625493Y-139107982D01*
X146625488Y-139107988D01*
X146553017Y-139233511D01*
X146553016Y-139233515D01*
X146515500Y-139373525D01*
X141903404Y-139373525D01*
X141892453Y-139347088D01*
X141866861Y-139285301D01*
X141866854Y-139285288D01*
X141771045Y-139141901D01*
X141771042Y-139141897D01*
X141649102Y-139019957D01*
X141649098Y-139019954D01*
X141505711Y-138924145D01*
X141505698Y-138924138D01*
X141346378Y-138858146D01*
X141346366Y-138858143D01*
X141177232Y-138824500D01*
X141177229Y-138824500D01*
X140254771Y-138824500D01*
X140254768Y-138824500D01*
X140085633Y-138858143D01*
X140085621Y-138858146D01*
X139926301Y-138924138D01*
X139926288Y-138924145D01*
X139782901Y-139019954D01*
X139782897Y-139019957D01*
X139660957Y-139141897D01*
X139660954Y-139141901D01*
X139565145Y-139285288D01*
X139565138Y-139285301D01*
X139499146Y-139444621D01*
X139499143Y-139444633D01*
X139465500Y-139613766D01*
X123000000Y-139613766D01*
X123000000Y-137073766D01*
X139465500Y-137073766D01*
X139465500Y-137246233D01*
X139499143Y-137415366D01*
X139499146Y-137415378D01*
X139565138Y-137574698D01*
X139565145Y-137574711D01*
X139660954Y-137718098D01*
X139660957Y-137718102D01*
X139782897Y-137840042D01*
X139782901Y-137840045D01*
X139926288Y-137935854D01*
X139926301Y-137935861D01*
X140085621Y-138001853D01*
X140085626Y-138001855D01*
X140254766Y-138035499D01*
X140254769Y-138035500D01*
X140254771Y-138035500D01*
X141177231Y-138035500D01*
X141177232Y-138035499D01*
X141346374Y-138001855D01*
X141505705Y-137935858D01*
X141649099Y-137840045D01*
X141771045Y-137718099D01*
X141866858Y-137574705D01*
X141932855Y-137415374D01*
X141966500Y-137246229D01*
X141966500Y-137073771D01*
X141966500Y-137073768D01*
X141966499Y-137073766D01*
X141932856Y-136904633D01*
X141932855Y-136904626D01*
X141932853Y-136904621D01*
X141866861Y-136745301D01*
X141866854Y-136745288D01*
X141771045Y-136601901D01*
X141771042Y-136601897D01*
X141649102Y-136479957D01*
X141649098Y-136479954D01*
X141505711Y-136384145D01*
X141505698Y-136384138D01*
X141346378Y-136318146D01*
X141346366Y-136318143D01*
X141177232Y-136284500D01*
X141177229Y-136284500D01*
X140254771Y-136284500D01*
X140254768Y-136284500D01*
X140085633Y-136318143D01*
X140085621Y-136318146D01*
X139926301Y-136384138D01*
X139926288Y-136384145D01*
X139782901Y-136479954D01*
X139782897Y-136479957D01*
X139660957Y-136601897D01*
X139660954Y-136601901D01*
X139565145Y-136745288D01*
X139565138Y-136745301D01*
X139499146Y-136904621D01*
X139499143Y-136904633D01*
X139465500Y-137073766D01*
X123000000Y-137073766D01*
X123000000Y-134533766D01*
X139465500Y-134533766D01*
X139465500Y-134706233D01*
X139499143Y-134875366D01*
X139499146Y-134875378D01*
X139565138Y-135034698D01*
X139565145Y-135034711D01*
X139660954Y-135178098D01*
X139660957Y-135178102D01*
X139782897Y-135300042D01*
X139782901Y-135300045D01*
X139926288Y-135395854D01*
X139926301Y-135395861D01*
X140085621Y-135461853D01*
X140085626Y-135461855D01*
X140254766Y-135495499D01*
X140254769Y-135495500D01*
X140254771Y-135495500D01*
X141177231Y-135495500D01*
X141177232Y-135495499D01*
X141346374Y-135461855D01*
X141505705Y-135395858D01*
X141649099Y-135300045D01*
X141771045Y-135178099D01*
X141866858Y-135034705D01*
X141932855Y-134875374D01*
X141966500Y-134706229D01*
X141966500Y-134533771D01*
X141966500Y-134533768D01*
X141966499Y-134533766D01*
X141932856Y-134364633D01*
X141932855Y-134364626D01*
X141932853Y-134364621D01*
X141866861Y-134205301D01*
X141866854Y-134205288D01*
X141771045Y-134061901D01*
X141771042Y-134061897D01*
X141649102Y-133939957D01*
X141649098Y-133939954D01*
X141505711Y-133844145D01*
X141505698Y-133844138D01*
X141346378Y-133778146D01*
X141346366Y-133778143D01*
X141177232Y-133744500D01*
X141177229Y-133744500D01*
X140254771Y-133744500D01*
X140254768Y-133744500D01*
X140085633Y-133778143D01*
X140085621Y-133778146D01*
X139926301Y-133844138D01*
X139926288Y-133844145D01*
X139782901Y-133939954D01*
X139782897Y-133939957D01*
X139660957Y-134061897D01*
X139660954Y-134061901D01*
X139565145Y-134205288D01*
X139565138Y-134205301D01*
X139499146Y-134364621D01*
X139499143Y-134364633D01*
X139465500Y-134533766D01*
X123000000Y-134533766D01*
X123000000Y-131993766D01*
X139465500Y-131993766D01*
X139465500Y-132166233D01*
X139499143Y-132335366D01*
X139499146Y-132335378D01*
X139565138Y-132494698D01*
X139565145Y-132494711D01*
X139660954Y-132638098D01*
X139660957Y-132638102D01*
X139782897Y-132760042D01*
X139782901Y-132760045D01*
X139926288Y-132855854D01*
X139926301Y-132855861D01*
X140085621Y-132921853D01*
X140085626Y-132921855D01*
X140254766Y-132955499D01*
X140254769Y-132955500D01*
X140254771Y-132955500D01*
X141177231Y-132955500D01*
X141177232Y-132955499D01*
X141346374Y-132921855D01*
X141505705Y-132855858D01*
X141649099Y-132760045D01*
X141771045Y-132638099D01*
X141866858Y-132494705D01*
X141932855Y-132335374D01*
X141966500Y-132166229D01*
X141966500Y-131993771D01*
X141966500Y-131993768D01*
X141966499Y-131993766D01*
X141932856Y-131824633D01*
X141932855Y-131824626D01*
X141932853Y-131824621D01*
X141866861Y-131665301D01*
X141866854Y-131665288D01*
X141771045Y-131521901D01*
X141771042Y-131521897D01*
X141649102Y-131399957D01*
X141649098Y-131399954D01*
X141505711Y-131304145D01*
X141505698Y-131304138D01*
X141346378Y-131238146D01*
X141346366Y-131238143D01*
X141177232Y-131204500D01*
X141177229Y-131204500D01*
X140254771Y-131204500D01*
X140254768Y-131204500D01*
X140085633Y-131238143D01*
X140085621Y-131238146D01*
X139926301Y-131304138D01*
X139926288Y-131304145D01*
X139782901Y-131399954D01*
X139782897Y-131399957D01*
X139660957Y-131521897D01*
X139660954Y-131521901D01*
X139565145Y-131665288D01*
X139565138Y-131665301D01*
X139499146Y-131824621D01*
X139499143Y-131824633D01*
X139465500Y-131993766D01*
X123000000Y-131993766D01*
X123000000Y-129453766D01*
X139465500Y-129453766D01*
X139465500Y-129626233D01*
X139499143Y-129795366D01*
X139499146Y-129795378D01*
X139565138Y-129954698D01*
X139565145Y-129954711D01*
X139660954Y-130098098D01*
X139660957Y-130098102D01*
X139782897Y-130220042D01*
X139782901Y-130220045D01*
X139926288Y-130315854D01*
X139926301Y-130315861D01*
X140085621Y-130381853D01*
X140085626Y-130381855D01*
X140254766Y-130415499D01*
X140254769Y-130415500D01*
X140254771Y-130415500D01*
X141177231Y-130415500D01*
X141177232Y-130415499D01*
X141346374Y-130381855D01*
X141505705Y-130315858D01*
X141649099Y-130220045D01*
X141771045Y-130098099D01*
X141866858Y-129954705D01*
X141932855Y-129795374D01*
X141966500Y-129626229D01*
X141966500Y-129453771D01*
X141966500Y-129453768D01*
X141966499Y-129453766D01*
X141932856Y-129284633D01*
X141932855Y-129284626D01*
X141932853Y-129284621D01*
X141866861Y-129125301D01*
X141866854Y-129125288D01*
X141771045Y-128981901D01*
X141771042Y-128981897D01*
X141649102Y-128859957D01*
X141649098Y-128859954D01*
X141505711Y-128764145D01*
X141505698Y-128764138D01*
X141346378Y-128698146D01*
X141346366Y-128698143D01*
X141177232Y-128664500D01*
X141177229Y-128664500D01*
X140254771Y-128664500D01*
X140254768Y-128664500D01*
X140085633Y-128698143D01*
X140085621Y-128698146D01*
X139926301Y-128764138D01*
X139926288Y-128764145D01*
X139782901Y-128859954D01*
X139782897Y-128859957D01*
X139660957Y-128981897D01*
X139660954Y-128981901D01*
X139565145Y-129125288D01*
X139565138Y-129125301D01*
X139499146Y-129284621D01*
X139499143Y-129284633D01*
X139465500Y-129453766D01*
X123000000Y-129453766D01*
X123000000Y-126913766D01*
X139465500Y-126913766D01*
X139465500Y-127086233D01*
X139499143Y-127255366D01*
X139499146Y-127255378D01*
X139565138Y-127414698D01*
X139565145Y-127414711D01*
X139660954Y-127558098D01*
X139660957Y-127558102D01*
X139782897Y-127680042D01*
X139782901Y-127680045D01*
X139926288Y-127775854D01*
X139926301Y-127775861D01*
X140085621Y-127841853D01*
X140085626Y-127841855D01*
X140254766Y-127875499D01*
X140254769Y-127875500D01*
X140254771Y-127875500D01*
X141177231Y-127875500D01*
X141177232Y-127875499D01*
X141346374Y-127841855D01*
X141505705Y-127775858D01*
X141649099Y-127680045D01*
X141771045Y-127558099D01*
X141866858Y-127414705D01*
X141932855Y-127255374D01*
X141966500Y-127086229D01*
X141966500Y-126913771D01*
X141966500Y-126913768D01*
X141966499Y-126913766D01*
X141932856Y-126744633D01*
X141932855Y-126744626D01*
X141932853Y-126744621D01*
X141866861Y-126585301D01*
X141866854Y-126585288D01*
X141771045Y-126441901D01*
X141771042Y-126441897D01*
X141649102Y-126319957D01*
X141649098Y-126319954D01*
X141505711Y-126224145D01*
X141505698Y-126224138D01*
X141346378Y-126158146D01*
X141346366Y-126158143D01*
X141177232Y-126124500D01*
X141177229Y-126124500D01*
X140254771Y-126124500D01*
X140254768Y-126124500D01*
X140085633Y-126158143D01*
X140085621Y-126158146D01*
X139926301Y-126224138D01*
X139926288Y-126224145D01*
X139782901Y-126319954D01*
X139782897Y-126319957D01*
X139660957Y-126441897D01*
X139660954Y-126441901D01*
X139565145Y-126585288D01*
X139565138Y-126585301D01*
X139499146Y-126744621D01*
X139499143Y-126744633D01*
X139465500Y-126913766D01*
X123000000Y-126913766D01*
X123000000Y-124373766D01*
X139465500Y-124373766D01*
X139465500Y-124546233D01*
X139499143Y-124715366D01*
X139499146Y-124715378D01*
X139565138Y-124874698D01*
X139565145Y-124874711D01*
X139660954Y-125018098D01*
X139660957Y-125018102D01*
X139782897Y-125140042D01*
X139782901Y-125140045D01*
X139926288Y-125235854D01*
X139926301Y-125235861D01*
X140085621Y-125301853D01*
X140085626Y-125301855D01*
X140254766Y-125335499D01*
X140254769Y-125335500D01*
X140254771Y-125335500D01*
X141177231Y-125335500D01*
X141177232Y-125335499D01*
X141346374Y-125301855D01*
X141505705Y-125235858D01*
X141649099Y-125140045D01*
X141771045Y-125018099D01*
X141866858Y-124874705D01*
X141932855Y-124715374D01*
X141966500Y-124546229D01*
X141966500Y-124373771D01*
X141966500Y-124373768D01*
X141966499Y-124373766D01*
X141932856Y-124204633D01*
X141932855Y-124204626D01*
X141932853Y-124204621D01*
X141866861Y-124045301D01*
X141866854Y-124045288D01*
X141771045Y-123901901D01*
X141771042Y-123901897D01*
X141649102Y-123779957D01*
X141649098Y-123779954D01*
X141505711Y-123684145D01*
X141505698Y-123684138D01*
X141346378Y-123618146D01*
X141346366Y-123618143D01*
X141177232Y-123584500D01*
X141177229Y-123584500D01*
X140254771Y-123584500D01*
X140254768Y-123584500D01*
X140085633Y-123618143D01*
X140085621Y-123618146D01*
X139926301Y-123684138D01*
X139926288Y-123684145D01*
X139782901Y-123779954D01*
X139782897Y-123779957D01*
X139660957Y-123901897D01*
X139660954Y-123901901D01*
X139565145Y-124045288D01*
X139565138Y-124045301D01*
X139499146Y-124204621D01*
X139499143Y-124204633D01*
X139465500Y-124373766D01*
X123000000Y-124373766D01*
X123000000Y-121833766D01*
X139465500Y-121833766D01*
X139465500Y-122006233D01*
X139499143Y-122175366D01*
X139499146Y-122175378D01*
X139565138Y-122334698D01*
X139565145Y-122334711D01*
X139660954Y-122478098D01*
X139660957Y-122478102D01*
X139782897Y-122600042D01*
X139782901Y-122600045D01*
X139926288Y-122695854D01*
X139926301Y-122695861D01*
X140085621Y-122761853D01*
X140085626Y-122761855D01*
X140254766Y-122795499D01*
X140254769Y-122795500D01*
X140254771Y-122795500D01*
X141177231Y-122795500D01*
X141177232Y-122795499D01*
X141346374Y-122761855D01*
X141505705Y-122695858D01*
X141649099Y-122600045D01*
X141771045Y-122478099D01*
X141866858Y-122334705D01*
X141932855Y-122175374D01*
X141966500Y-122006229D01*
X141966500Y-121833771D01*
X141966500Y-121833768D01*
X141966499Y-121833766D01*
X141932856Y-121664633D01*
X141932855Y-121664626D01*
X141932853Y-121664621D01*
X141866861Y-121505301D01*
X141866854Y-121505288D01*
X141771045Y-121361901D01*
X141771042Y-121361897D01*
X141649102Y-121239957D01*
X141649098Y-121239954D01*
X141505711Y-121144145D01*
X141505698Y-121144138D01*
X141346378Y-121078146D01*
X141346366Y-121078143D01*
X141177232Y-121044500D01*
X141177229Y-121044500D01*
X140254771Y-121044500D01*
X140254768Y-121044500D01*
X140085633Y-121078143D01*
X140085621Y-121078146D01*
X139926301Y-121144138D01*
X139926288Y-121144145D01*
X139782901Y-121239954D01*
X139782897Y-121239957D01*
X139660957Y-121361897D01*
X139660954Y-121361901D01*
X139565145Y-121505288D01*
X139565138Y-121505301D01*
X139499146Y-121664621D01*
X139499143Y-121664633D01*
X139465500Y-121833766D01*
X123000000Y-121833766D01*
X123000000Y-119293766D01*
X139465500Y-119293766D01*
X139465500Y-119466233D01*
X139499143Y-119635366D01*
X139499146Y-119635378D01*
X139565138Y-119794698D01*
X139565145Y-119794711D01*
X139660954Y-119938098D01*
X139660957Y-119938102D01*
X139782897Y-120060042D01*
X139782901Y-120060045D01*
X139926288Y-120155854D01*
X139926301Y-120155861D01*
X140085621Y-120221853D01*
X140085626Y-120221855D01*
X140254766Y-120255499D01*
X140254769Y-120255500D01*
X140254771Y-120255500D01*
X141177231Y-120255500D01*
X141177232Y-120255499D01*
X141346374Y-120221855D01*
X141505705Y-120155858D01*
X141649099Y-120060045D01*
X141771045Y-119938099D01*
X141866858Y-119794705D01*
X141932855Y-119635374D01*
X141966500Y-119466229D01*
X141966500Y-119293771D01*
X141966500Y-119293768D01*
X141966499Y-119293766D01*
X141932856Y-119124633D01*
X141932855Y-119124626D01*
X141932853Y-119124621D01*
X141866861Y-118965301D01*
X141866854Y-118965288D01*
X141771045Y-118821901D01*
X141771042Y-118821897D01*
X141649102Y-118699957D01*
X141649098Y-118699954D01*
X141505711Y-118604145D01*
X141505698Y-118604138D01*
X141346378Y-118538146D01*
X141346366Y-118538143D01*
X141177232Y-118504500D01*
X141177229Y-118504500D01*
X140254771Y-118504500D01*
X140254768Y-118504500D01*
X140085633Y-118538143D01*
X140085621Y-118538146D01*
X139926301Y-118604138D01*
X139926288Y-118604145D01*
X139782901Y-118699954D01*
X139782897Y-118699957D01*
X139660957Y-118821897D01*
X139660954Y-118821901D01*
X139565145Y-118965288D01*
X139565138Y-118965301D01*
X139499146Y-119124621D01*
X139499143Y-119124633D01*
X139465500Y-119293766D01*
X123000000Y-119293766D01*
X123000000Y-116753766D01*
X139465500Y-116753766D01*
X139465500Y-116926233D01*
X139499143Y-117095366D01*
X139499146Y-117095378D01*
X139565138Y-117254698D01*
X139565145Y-117254711D01*
X139660954Y-117398098D01*
X139660957Y-117398102D01*
X139782897Y-117520042D01*
X139782901Y-117520045D01*
X139926288Y-117615854D01*
X139926301Y-117615861D01*
X140085621Y-117681853D01*
X140085626Y-117681855D01*
X140254766Y-117715499D01*
X140254769Y-117715500D01*
X140254771Y-117715500D01*
X141177231Y-117715500D01*
X141177232Y-117715499D01*
X141346374Y-117681855D01*
X141505705Y-117615858D01*
X141649099Y-117520045D01*
X141771045Y-117398099D01*
X141866858Y-117254705D01*
X141932855Y-117095374D01*
X141966500Y-116926229D01*
X141966500Y-116753771D01*
X141966500Y-116753768D01*
X141966499Y-116753766D01*
X141932856Y-116584633D01*
X141932855Y-116584626D01*
X141932853Y-116584621D01*
X141866861Y-116425301D01*
X141866854Y-116425288D01*
X141771045Y-116281901D01*
X141771042Y-116281897D01*
X141649102Y-116159957D01*
X141649098Y-116159954D01*
X141505711Y-116064145D01*
X141505698Y-116064138D01*
X141346378Y-115998146D01*
X141346366Y-115998143D01*
X141177232Y-115964500D01*
X141177229Y-115964500D01*
X140254771Y-115964500D01*
X140254768Y-115964500D01*
X140085633Y-115998143D01*
X140085621Y-115998146D01*
X139926301Y-116064138D01*
X139926288Y-116064145D01*
X139782901Y-116159954D01*
X139782897Y-116159957D01*
X139660957Y-116281897D01*
X139660954Y-116281901D01*
X139565145Y-116425288D01*
X139565138Y-116425301D01*
X139499146Y-116584621D01*
X139499143Y-116584633D01*
X139465500Y-116753766D01*
X123000000Y-116753766D01*
X123000000Y-114213766D01*
X139465500Y-114213766D01*
X139465500Y-114386233D01*
X139499143Y-114555366D01*
X139499146Y-114555378D01*
X139565138Y-114714698D01*
X139565145Y-114714711D01*
X139660954Y-114858098D01*
X139660957Y-114858102D01*
X139782897Y-114980042D01*
X139782901Y-114980045D01*
X139926288Y-115075854D01*
X139926301Y-115075861D01*
X140085621Y-115141853D01*
X140085626Y-115141855D01*
X140254766Y-115175499D01*
X140254769Y-115175500D01*
X140254771Y-115175500D01*
X141177231Y-115175500D01*
X141177232Y-115175499D01*
X141346374Y-115141855D01*
X141505705Y-115075858D01*
X141649099Y-114980045D01*
X141771045Y-114858099D01*
X141866858Y-114714705D01*
X141932855Y-114555374D01*
X141966500Y-114386229D01*
X141966500Y-114213771D01*
X141966500Y-114213768D01*
X141966499Y-114213766D01*
X141932856Y-114044633D01*
X141932855Y-114044626D01*
X141932853Y-114044621D01*
X141866861Y-113885301D01*
X141866854Y-113885288D01*
X141771045Y-113741901D01*
X141771042Y-113741897D01*
X141649102Y-113619957D01*
X141649098Y-113619954D01*
X141505711Y-113524145D01*
X141505698Y-113524138D01*
X141346378Y-113458146D01*
X141346366Y-113458143D01*
X141177232Y-113424500D01*
X141177229Y-113424500D01*
X140254771Y-113424500D01*
X140254768Y-113424500D01*
X140085633Y-113458143D01*
X140085621Y-113458146D01*
X139926301Y-113524138D01*
X139926288Y-113524145D01*
X139782901Y-113619954D01*
X139782897Y-113619957D01*
X139660957Y-113741897D01*
X139660954Y-113741901D01*
X139565145Y-113885288D01*
X139565138Y-113885301D01*
X139499146Y-114044621D01*
X139499143Y-114044633D01*
X139465500Y-114213766D01*
X123000000Y-114213766D01*
X123000000Y-111673766D01*
X139465500Y-111673766D01*
X139465500Y-111846233D01*
X139499143Y-112015366D01*
X139499146Y-112015378D01*
X139565138Y-112174698D01*
X139565145Y-112174711D01*
X139660954Y-112318098D01*
X139660957Y-112318102D01*
X139782897Y-112440042D01*
X139782901Y-112440045D01*
X139926288Y-112535854D01*
X139926301Y-112535861D01*
X140085621Y-112601853D01*
X140085626Y-112601855D01*
X140254766Y-112635499D01*
X140254769Y-112635500D01*
X140254771Y-112635500D01*
X141177231Y-112635500D01*
X141177232Y-112635499D01*
X141346374Y-112601855D01*
X141505705Y-112535858D01*
X141649099Y-112440045D01*
X141771045Y-112318099D01*
X141866858Y-112174705D01*
X141932855Y-112015374D01*
X141966500Y-111846229D01*
X141966500Y-111673771D01*
X141966500Y-111673768D01*
X141966499Y-111673766D01*
X155023500Y-111673766D01*
X155023500Y-111846233D01*
X155057143Y-112015366D01*
X155057146Y-112015378D01*
X155123138Y-112174698D01*
X155123145Y-112174711D01*
X155218954Y-112318098D01*
X155218957Y-112318102D01*
X155340897Y-112440042D01*
X155340901Y-112440045D01*
X155484288Y-112535854D01*
X155484301Y-112535861D01*
X155643621Y-112601853D01*
X155643626Y-112601855D01*
X155812766Y-112635499D01*
X155812769Y-112635500D01*
X155812771Y-112635500D01*
X156735231Y-112635500D01*
X156735232Y-112635499D01*
X156904374Y-112601855D01*
X157063705Y-112535858D01*
X157207099Y-112440045D01*
X157329045Y-112318099D01*
X157424858Y-112174705D01*
X157490855Y-112015374D01*
X157524500Y-111846229D01*
X157524500Y-111673771D01*
X157524500Y-111673768D01*
X157524499Y-111673766D01*
X157490856Y-111504633D01*
X157490855Y-111504626D01*
X157490853Y-111504621D01*
X157424861Y-111345301D01*
X157424854Y-111345288D01*
X157329045Y-111201901D01*
X157329042Y-111201897D01*
X157207102Y-111079957D01*
X157207098Y-111079954D01*
X157063711Y-110984145D01*
X157063698Y-110984138D01*
X156904378Y-110918146D01*
X156904366Y-110918143D01*
X156735232Y-110884500D01*
X156735229Y-110884500D01*
X155812771Y-110884500D01*
X155812768Y-110884500D01*
X155643633Y-110918143D01*
X155643621Y-110918146D01*
X155484301Y-110984138D01*
X155484288Y-110984145D01*
X155340901Y-111079954D01*
X155340897Y-111079957D01*
X155218957Y-111201897D01*
X155218954Y-111201901D01*
X155123145Y-111345288D01*
X155123138Y-111345301D01*
X155057146Y-111504621D01*
X155057143Y-111504633D01*
X155023500Y-111673766D01*
X141966499Y-111673766D01*
X141932856Y-111504633D01*
X141932855Y-111504626D01*
X141932853Y-111504621D01*
X141866861Y-111345301D01*
X141866854Y-111345288D01*
X141771045Y-111201901D01*
X141771042Y-111201897D01*
X141649102Y-111079957D01*
X141649098Y-111079954D01*
X141505711Y-110984145D01*
X141505698Y-110984138D01*
X141346378Y-110918146D01*
X141346366Y-110918143D01*
X141177232Y-110884500D01*
X141177229Y-110884500D01*
X140254771Y-110884500D01*
X140254768Y-110884500D01*
X140085633Y-110918143D01*
X140085621Y-110918146D01*
X139926301Y-110984138D01*
X139926288Y-110984145D01*
X139782901Y-111079954D01*
X139782897Y-111079957D01*
X139660957Y-111201897D01*
X139660954Y-111201901D01*
X139565145Y-111345288D01*
X139565138Y-111345301D01*
X139499146Y-111504621D01*
X139499143Y-111504633D01*
X139465500Y-111673766D01*
X123000000Y-111673766D01*
X123000000Y-109133766D01*
X139465500Y-109133766D01*
X139465500Y-109306233D01*
X139499143Y-109475366D01*
X139499146Y-109475378D01*
X139565138Y-109634698D01*
X139565145Y-109634711D01*
X139660954Y-109778098D01*
X139660957Y-109778102D01*
X139782897Y-109900042D01*
X139782901Y-109900045D01*
X139926288Y-109995854D01*
X139926301Y-109995861D01*
X140085621Y-110061853D01*
X140085626Y-110061855D01*
X140254766Y-110095499D01*
X140254769Y-110095500D01*
X140254771Y-110095500D01*
X141177231Y-110095500D01*
X141177232Y-110095499D01*
X141346374Y-110061855D01*
X141505705Y-109995858D01*
X141649099Y-109900045D01*
X141771045Y-109778099D01*
X141866858Y-109634705D01*
X141932855Y-109475374D01*
X141966500Y-109306229D01*
X141966500Y-109133771D01*
X141966500Y-109133768D01*
X141966499Y-109133766D01*
X155023500Y-109133766D01*
X155023500Y-109306233D01*
X155057143Y-109475366D01*
X155057146Y-109475378D01*
X155123138Y-109634698D01*
X155123145Y-109634711D01*
X155218954Y-109778098D01*
X155218957Y-109778102D01*
X155340897Y-109900042D01*
X155340901Y-109900045D01*
X155484288Y-109995854D01*
X155484301Y-109995861D01*
X155643621Y-110061853D01*
X155643626Y-110061855D01*
X155812766Y-110095499D01*
X155812769Y-110095500D01*
X155812771Y-110095500D01*
X156735231Y-110095500D01*
X156735232Y-110095499D01*
X156904374Y-110061855D01*
X157063705Y-109995858D01*
X157207099Y-109900045D01*
X157329045Y-109778099D01*
X157424858Y-109634705D01*
X157490855Y-109475374D01*
X157524500Y-109306229D01*
X157524500Y-109133771D01*
X157524500Y-109133768D01*
X157524499Y-109133766D01*
X157490856Y-108964633D01*
X157490855Y-108964626D01*
X157490853Y-108964621D01*
X157424861Y-108805301D01*
X157424854Y-108805288D01*
X157329045Y-108661901D01*
X157329042Y-108661897D01*
X157207102Y-108539957D01*
X157207098Y-108539954D01*
X157063711Y-108444145D01*
X157063698Y-108444138D01*
X156904378Y-108378146D01*
X156904366Y-108378143D01*
X156735232Y-108344500D01*
X156735229Y-108344500D01*
X155812771Y-108344500D01*
X155812768Y-108344500D01*
X155643633Y-108378143D01*
X155643621Y-108378146D01*
X155484301Y-108444138D01*
X155484288Y-108444145D01*
X155340901Y-108539954D01*
X155340897Y-108539957D01*
X155218957Y-108661897D01*
X155218954Y-108661901D01*
X155123145Y-108805288D01*
X155123138Y-108805301D01*
X155057146Y-108964621D01*
X155057143Y-108964633D01*
X155023500Y-109133766D01*
X141966499Y-109133766D01*
X141932856Y-108964633D01*
X141932855Y-108964626D01*
X141932853Y-108964621D01*
X141866861Y-108805301D01*
X141866854Y-108805288D01*
X141771045Y-108661901D01*
X141771042Y-108661897D01*
X141649102Y-108539957D01*
X141649098Y-108539954D01*
X141505711Y-108444145D01*
X141505698Y-108444138D01*
X141346378Y-108378146D01*
X141346366Y-108378143D01*
X141177232Y-108344500D01*
X141177229Y-108344500D01*
X140254771Y-108344500D01*
X140254768Y-108344500D01*
X140085633Y-108378143D01*
X140085621Y-108378146D01*
X139926301Y-108444138D01*
X139926288Y-108444145D01*
X139782901Y-108539954D01*
X139782897Y-108539957D01*
X139660957Y-108661897D01*
X139660954Y-108661901D01*
X139565145Y-108805288D01*
X139565138Y-108805301D01*
X139499146Y-108964621D01*
X139499143Y-108964633D01*
X139465500Y-109133766D01*
X123000000Y-109133766D01*
X123000000Y-106593766D01*
X139465500Y-106593766D01*
X139465500Y-106766233D01*
X139499143Y-106935366D01*
X139499146Y-106935378D01*
X139565138Y-107094698D01*
X139565145Y-107094711D01*
X139660954Y-107238098D01*
X139660957Y-107238102D01*
X139782897Y-107360042D01*
X139782901Y-107360045D01*
X139926288Y-107455854D01*
X139926301Y-107455861D01*
X140085621Y-107521853D01*
X140085626Y-107521855D01*
X140254766Y-107555499D01*
X140254769Y-107555500D01*
X140254771Y-107555500D01*
X141177231Y-107555500D01*
X141177232Y-107555499D01*
X141346374Y-107521855D01*
X141505705Y-107455858D01*
X141649099Y-107360045D01*
X141771045Y-107238099D01*
X141866858Y-107094705D01*
X141932855Y-106935374D01*
X141966500Y-106766229D01*
X141966500Y-106593771D01*
X141966500Y-106593768D01*
X141966499Y-106593766D01*
X155023500Y-106593766D01*
X155023500Y-106766233D01*
X155057143Y-106935366D01*
X155057146Y-106935378D01*
X155123138Y-107094698D01*
X155123145Y-107094711D01*
X155218954Y-107238098D01*
X155218957Y-107238102D01*
X155340897Y-107360042D01*
X155340901Y-107360045D01*
X155484288Y-107455854D01*
X155484301Y-107455861D01*
X155643621Y-107521853D01*
X155643626Y-107521855D01*
X155812766Y-107555499D01*
X155812769Y-107555500D01*
X155812771Y-107555500D01*
X156735231Y-107555500D01*
X156735232Y-107555499D01*
X156904374Y-107521855D01*
X157063705Y-107455858D01*
X157207099Y-107360045D01*
X157329045Y-107238099D01*
X157424858Y-107094705D01*
X157490855Y-106935374D01*
X157524500Y-106766229D01*
X157524500Y-106593771D01*
X157524500Y-106593768D01*
X157524499Y-106593766D01*
X157490856Y-106424633D01*
X157490855Y-106424626D01*
X157490853Y-106424621D01*
X157424861Y-106265301D01*
X157424854Y-106265288D01*
X157329045Y-106121901D01*
X157329042Y-106121897D01*
X157207102Y-105999957D01*
X157207098Y-105999954D01*
X157063711Y-105904145D01*
X157063698Y-105904138D01*
X156904378Y-105838146D01*
X156904366Y-105838143D01*
X156735232Y-105804500D01*
X156735229Y-105804500D01*
X155812771Y-105804500D01*
X155812768Y-105804500D01*
X155643633Y-105838143D01*
X155643621Y-105838146D01*
X155484301Y-105904138D01*
X155484288Y-105904145D01*
X155340901Y-105999954D01*
X155340897Y-105999957D01*
X155218957Y-106121897D01*
X155218954Y-106121901D01*
X155123145Y-106265288D01*
X155123138Y-106265301D01*
X155057146Y-106424621D01*
X155057143Y-106424633D01*
X155023500Y-106593766D01*
X141966499Y-106593766D01*
X141932856Y-106424633D01*
X141932855Y-106424626D01*
X141932853Y-106424621D01*
X141866861Y-106265301D01*
X141866854Y-106265288D01*
X141771045Y-106121901D01*
X141771042Y-106121897D01*
X141649102Y-105999957D01*
X141649098Y-105999954D01*
X141505711Y-105904145D01*
X141505698Y-105904138D01*
X141346378Y-105838146D01*
X141346366Y-105838143D01*
X141177232Y-105804500D01*
X141177229Y-105804500D01*
X140254771Y-105804500D01*
X140254768Y-105804500D01*
X140085633Y-105838143D01*
X140085621Y-105838146D01*
X139926301Y-105904138D01*
X139926288Y-105904145D01*
X139782901Y-105999954D01*
X139782897Y-105999957D01*
X139660957Y-106121897D01*
X139660954Y-106121901D01*
X139565145Y-106265288D01*
X139565138Y-106265301D01*
X139499146Y-106424621D01*
X139499143Y-106424633D01*
X139465500Y-106593766D01*
X123000000Y-106593766D01*
X123000000Y-104053766D01*
X139465500Y-104053766D01*
X139465500Y-104226233D01*
X139499143Y-104395366D01*
X139499146Y-104395378D01*
X139565138Y-104554698D01*
X139565145Y-104554711D01*
X139660954Y-104698098D01*
X139660957Y-104698102D01*
X139782897Y-104820042D01*
X139782901Y-104820045D01*
X139926288Y-104915854D01*
X139926301Y-104915861D01*
X140085621Y-104981853D01*
X140085626Y-104981855D01*
X140254766Y-105015499D01*
X140254769Y-105015500D01*
X140254771Y-105015500D01*
X141177231Y-105015500D01*
X141177232Y-105015499D01*
X141346374Y-104981855D01*
X141505705Y-104915858D01*
X141649099Y-104820045D01*
X141771045Y-104698099D01*
X141866858Y-104554705D01*
X141932855Y-104395374D01*
X141966500Y-104226229D01*
X141966500Y-104053771D01*
X141966500Y-104053768D01*
X141966499Y-104053766D01*
X155023500Y-104053766D01*
X155023500Y-104226233D01*
X155057143Y-104395366D01*
X155057146Y-104395378D01*
X155123138Y-104554698D01*
X155123145Y-104554711D01*
X155218954Y-104698098D01*
X155218957Y-104698102D01*
X155340897Y-104820042D01*
X155340901Y-104820045D01*
X155484288Y-104915854D01*
X155484301Y-104915861D01*
X155643621Y-104981853D01*
X155643626Y-104981855D01*
X155812766Y-105015499D01*
X155812769Y-105015500D01*
X155812771Y-105015500D01*
X156735231Y-105015500D01*
X156735232Y-105015499D01*
X156904374Y-104981855D01*
X157063705Y-104915858D01*
X157207099Y-104820045D01*
X157329045Y-104698099D01*
X157424858Y-104554705D01*
X157490855Y-104395374D01*
X157524500Y-104226229D01*
X157524500Y-104053771D01*
X157524500Y-104053768D01*
X157524499Y-104053766D01*
X157490856Y-103884633D01*
X157490855Y-103884626D01*
X157490853Y-103884621D01*
X157424861Y-103725301D01*
X157424854Y-103725288D01*
X157329045Y-103581901D01*
X157329042Y-103581897D01*
X157207102Y-103459957D01*
X157207098Y-103459954D01*
X157063711Y-103364145D01*
X157063698Y-103364138D01*
X156904378Y-103298146D01*
X156904366Y-103298143D01*
X156735232Y-103264500D01*
X156735229Y-103264500D01*
X155812771Y-103264500D01*
X155812768Y-103264500D01*
X155643633Y-103298143D01*
X155643621Y-103298146D01*
X155484301Y-103364138D01*
X155484288Y-103364145D01*
X155340901Y-103459954D01*
X155340897Y-103459957D01*
X155218957Y-103581897D01*
X155218954Y-103581901D01*
X155123145Y-103725288D01*
X155123138Y-103725301D01*
X155057146Y-103884621D01*
X155057143Y-103884633D01*
X155023500Y-104053766D01*
X141966499Y-104053766D01*
X141932856Y-103884633D01*
X141932855Y-103884626D01*
X141932853Y-103884621D01*
X141866861Y-103725301D01*
X141866854Y-103725288D01*
X141771045Y-103581901D01*
X141771042Y-103581897D01*
X141649102Y-103459957D01*
X141649098Y-103459954D01*
X141505711Y-103364145D01*
X141505698Y-103364138D01*
X141346378Y-103298146D01*
X141346366Y-103298143D01*
X141177232Y-103264500D01*
X141177229Y-103264500D01*
X140254771Y-103264500D01*
X140254768Y-103264500D01*
X140085633Y-103298143D01*
X140085621Y-103298146D01*
X139926301Y-103364138D01*
X139926288Y-103364145D01*
X139782901Y-103459954D01*
X139782897Y-103459957D01*
X139660957Y-103581897D01*
X139660954Y-103581901D01*
X139565145Y-103725288D01*
X139565138Y-103725301D01*
X139499146Y-103884621D01*
X139499143Y-103884633D01*
X139465500Y-104053766D01*
X123000000Y-104053766D01*
X123000000Y-101349999D01*
X139498585Y-101349999D01*
X139498586Y-101350000D01*
X140369590Y-101350000D01*
X140319963Y-101435956D01*
X140291000Y-101544048D01*
X140291000Y-101655952D01*
X140319963Y-101764044D01*
X140369590Y-101850000D01*
X139498586Y-101850000D01*
X139499624Y-101855223D01*
X139499626Y-101855230D01*
X139565581Y-102014461D01*
X139565588Y-102014474D01*
X139661342Y-102157779D01*
X139661345Y-102157783D01*
X139783216Y-102279654D01*
X139783220Y-102279657D01*
X139926525Y-102375411D01*
X139926538Y-102375418D01*
X140085767Y-102441372D01*
X140085779Y-102441375D01*
X140254815Y-102474999D01*
X140254818Y-102475000D01*
X140466000Y-102475000D01*
X140466000Y-101946409D01*
X140551956Y-101996037D01*
X140660048Y-102025000D01*
X140771952Y-102025000D01*
X140880044Y-101996037D01*
X140966000Y-101946409D01*
X140966000Y-102475000D01*
X141177182Y-102475000D01*
X141177184Y-102474999D01*
X141346220Y-102441375D01*
X141346232Y-102441372D01*
X141505461Y-102375418D01*
X141505474Y-102375411D01*
X141648779Y-102279657D01*
X141648783Y-102279654D01*
X141770654Y-102157783D01*
X141770657Y-102157779D01*
X141866411Y-102014474D01*
X141866418Y-102014461D01*
X141932373Y-101855230D01*
X141932375Y-101855223D01*
X141933414Y-101850000D01*
X141062410Y-101850000D01*
X141112037Y-101764044D01*
X141141000Y-101655952D01*
X141141000Y-101544048D01*
X141132886Y-101513766D01*
X155023500Y-101513766D01*
X155023500Y-101686233D01*
X155057143Y-101855366D01*
X155057146Y-101855378D01*
X155123138Y-102014698D01*
X155123145Y-102014711D01*
X155218954Y-102158098D01*
X155218957Y-102158102D01*
X155340897Y-102280042D01*
X155340901Y-102280045D01*
X155484288Y-102375854D01*
X155484301Y-102375861D01*
X155642460Y-102441372D01*
X155643626Y-102441855D01*
X155810252Y-102474999D01*
X155812766Y-102475499D01*
X155812769Y-102475500D01*
X155812771Y-102475500D01*
X156735231Y-102475500D01*
X156735232Y-102475499D01*
X156904374Y-102441855D01*
X157063705Y-102375858D01*
X157207099Y-102280045D01*
X157329045Y-102158099D01*
X157424858Y-102014705D01*
X157490855Y-101855374D01*
X157524500Y-101686229D01*
X157524500Y-101513771D01*
X157524500Y-101513768D01*
X157524499Y-101513766D01*
X157490855Y-101344626D01*
X157424959Y-101185538D01*
X157424861Y-101185301D01*
X157424854Y-101185288D01*
X157329045Y-101041901D01*
X157329042Y-101041897D01*
X157207102Y-100919957D01*
X157207098Y-100919954D01*
X157063711Y-100824145D01*
X157063698Y-100824138D01*
X156904378Y-100758146D01*
X156904366Y-100758143D01*
X156735232Y-100724500D01*
X156735229Y-100724500D01*
X155812771Y-100724500D01*
X155812768Y-100724500D01*
X155643633Y-100758143D01*
X155643621Y-100758146D01*
X155484301Y-100824138D01*
X155484288Y-100824145D01*
X155340901Y-100919954D01*
X155340897Y-100919957D01*
X155218957Y-101041897D01*
X155218954Y-101041901D01*
X155123145Y-101185288D01*
X155123138Y-101185301D01*
X155057146Y-101344621D01*
X155057143Y-101344633D01*
X155023500Y-101513766D01*
X141132886Y-101513766D01*
X141112037Y-101435956D01*
X141062410Y-101350000D01*
X141933414Y-101350000D01*
X141933414Y-101349999D01*
X141932375Y-101344776D01*
X141932373Y-101344769D01*
X141866418Y-101185538D01*
X141866411Y-101185525D01*
X141770657Y-101042220D01*
X141770654Y-101042216D01*
X141648783Y-100920345D01*
X141648779Y-100920342D01*
X141505474Y-100824588D01*
X141505461Y-100824581D01*
X141346232Y-100758627D01*
X141346220Y-100758624D01*
X141177183Y-100725000D01*
X140966000Y-100725000D01*
X140966000Y-101253590D01*
X140880044Y-101203963D01*
X140771952Y-101175000D01*
X140660048Y-101175000D01*
X140551956Y-101203963D01*
X140466000Y-101253590D01*
X140466000Y-100725000D01*
X140254817Y-100725000D01*
X140085779Y-100758624D01*
X140085767Y-100758627D01*
X139926538Y-100824581D01*
X139926525Y-100824588D01*
X139783220Y-100920342D01*
X139783216Y-100920345D01*
X139661345Y-101042216D01*
X139661342Y-101042220D01*
X139565588Y-101185525D01*
X139565581Y-101185538D01*
X139499626Y-101344769D01*
X139499624Y-101344776D01*
X139498585Y-101349999D01*
X123000000Y-101349999D01*
X123000000Y-70006092D01*
X123000597Y-69993938D01*
X123002819Y-69971376D01*
X123018018Y-69817056D01*
X123022757Y-69793232D01*
X123072577Y-69628994D01*
X123081875Y-69606549D01*
X123162775Y-69455195D01*
X123176272Y-69434995D01*
X123285149Y-69302328D01*
X123302328Y-69285149D01*
X123434995Y-69176272D01*
X123455195Y-69162775D01*
X123606549Y-69081875D01*
X123628994Y-69072577D01*
X123793232Y-69022757D01*
X123817056Y-69018018D01*
X123993939Y-69000597D01*
X124006093Y-69000000D01*
X126918116Y-69000000D01*
X126985155Y-69019685D01*
G37*
G04 #@! TD.AperFunction*
M02*
