%TF.GenerationSoftware,KiCad,Pcbnew,7.0.8*%
%TF.CreationDate,2023-11-19T20:47:23+01:00*%
%TF.ProjectId,ProtoHu_revA_layer2,50726f74-6f48-4755-9f72-6576415f6c61,rev?*%
%TF.SameCoordinates,Original*%
%TF.FileFunction,Legend,Top*%
%TF.FilePolarity,Positive*%
%FSLAX46Y46*%
G04 Gerber Fmt 4.6, Leading zero omitted, Abs format (unit mm)*
G04 Created by KiCad (PCBNEW 7.0.8) date 2023-11-19 20:47:23*
%MOMM*%
%LPD*%
G01*
G04 APERTURE LIST*
%ADD10C,0.000000*%
%ADD11C,0.200000*%
%ADD12C,0.150000*%
G04 APERTURE END LIST*
D10*
G36*
X169441863Y-140572083D02*
G01*
X169841864Y-140438757D01*
X169841864Y-139138759D01*
X170278335Y-138943336D01*
X170512329Y-138839364D01*
X170741861Y-138738758D01*
X170741861Y-140136270D01*
X172091856Y-139688751D01*
X172094362Y-142685416D01*
X172093962Y-142702114D01*
X172092775Y-142718723D01*
X172090823Y-142735224D01*
X172088125Y-142751599D01*
X172084703Y-142767831D01*
X172080578Y-142783901D01*
X172075770Y-142799791D01*
X172070300Y-142815483D01*
X172064188Y-142830958D01*
X172057456Y-142846198D01*
X172050125Y-142861187D01*
X172042214Y-142875904D01*
X172033745Y-142890332D01*
X172024739Y-142904453D01*
X172015216Y-142918249D01*
X172005197Y-142931701D01*
X171983754Y-142957503D01*
X171960577Y-142981713D01*
X171935831Y-143004186D01*
X171909682Y-143024778D01*
X171882296Y-143043342D01*
X171868192Y-143051818D01*
X171853840Y-143059733D01*
X171839263Y-143067069D01*
X171824480Y-143073807D01*
X171809512Y-143079929D01*
X171794381Y-143085418D01*
X170831261Y-143425578D01*
X170813180Y-143431686D01*
X170795190Y-143437201D01*
X170777309Y-143442110D01*
X170759554Y-143446399D01*
X170750000Y-143448381D01*
X170741940Y-143450053D01*
X170724487Y-143453059D01*
X170707209Y-143455404D01*
X170690124Y-143457073D01*
X170673249Y-143458052D01*
X170656600Y-143458329D01*
X170640195Y-143457888D01*
X170624051Y-143456717D01*
X170608183Y-143454801D01*
X170592610Y-143452127D01*
X170577347Y-143448681D01*
X170562412Y-143444449D01*
X170547822Y-143439418D01*
X170533593Y-143433573D01*
X170519743Y-143426901D01*
X170506287Y-143419388D01*
X170493244Y-143411019D01*
X170480630Y-143401783D01*
X170468461Y-143391664D01*
X170456755Y-143380649D01*
X170445528Y-143368724D01*
X170434797Y-143355875D01*
X170424580Y-143342088D01*
X170414892Y-143327351D01*
X170405752Y-143311648D01*
X170397175Y-143294966D01*
X170389178Y-143277292D01*
X170381779Y-143258611D01*
X170380600Y-143281048D01*
X170378898Y-143302769D01*
X170376682Y-143323783D01*
X170373960Y-143344100D01*
X170370740Y-143363731D01*
X170367030Y-143382686D01*
X170362837Y-143400974D01*
X170358169Y-143418606D01*
X170353035Y-143435592D01*
X170347443Y-143451942D01*
X170341399Y-143467665D01*
X170334913Y-143482773D01*
X170327992Y-143497274D01*
X170320643Y-143511180D01*
X170312876Y-143524500D01*
X170304697Y-143537243D01*
X170296116Y-143549421D01*
X170287138Y-143561044D01*
X170277774Y-143572121D01*
X170268030Y-143582662D01*
X170257914Y-143592677D01*
X170247435Y-143602178D01*
X170236599Y-143611172D01*
X170225416Y-143619672D01*
X170213893Y-143627686D01*
X170202038Y-143635225D01*
X170189859Y-143642298D01*
X170177364Y-143648917D01*
X170164560Y-143655090D01*
X170151456Y-143660829D01*
X170124379Y-143671041D01*
X169441863Y-143902874D01*
X169041861Y-144038744D01*
X169013913Y-144047331D01*
X168985999Y-144054133D01*
X168958174Y-144059193D01*
X168930495Y-144062553D01*
X168903018Y-144064256D01*
X168875798Y-144064344D01*
X168848891Y-144062859D01*
X168822355Y-144059845D01*
X168796244Y-144055343D01*
X168770614Y-144049395D01*
X168745522Y-144042045D01*
X168721023Y-144033334D01*
X168697173Y-144023306D01*
X168674029Y-144012001D01*
X168651647Y-143999464D01*
X168630082Y-143985736D01*
X168609390Y-143970859D01*
X168589627Y-143954876D01*
X168570850Y-143937830D01*
X168553113Y-143919763D01*
X168536475Y-143900717D01*
X168520989Y-143880735D01*
X168506712Y-143859858D01*
X168493701Y-143838130D01*
X168482011Y-143815594D01*
X168471697Y-143792290D01*
X168462817Y-143768262D01*
X168455426Y-143743552D01*
X168449580Y-143718203D01*
X168445335Y-143692257D01*
X168442747Y-143665756D01*
X168441872Y-143638743D01*
X168441872Y-142752725D01*
X169441863Y-142752725D01*
X169841864Y-142624800D01*
X169841864Y-142250016D01*
X170750000Y-142250016D01*
X171150001Y-142122091D01*
X171150001Y-141122075D01*
X170750000Y-141250000D01*
X170750000Y-142250016D01*
X169841864Y-142250016D01*
X169841864Y-141624783D01*
X169441863Y-141752708D01*
X169441863Y-142752725D01*
X168441872Y-142752725D01*
X168441872Y-139088762D01*
X169441863Y-138709379D01*
X169441863Y-140572083D01*
G37*
D11*
X157357143Y-92850400D02*
X157071429Y-92755161D01*
X157071429Y-92755161D02*
X156595238Y-92755161D01*
X156595238Y-92755161D02*
X156404762Y-92850400D01*
X156404762Y-92850400D02*
X156309524Y-92945638D01*
X156309524Y-92945638D02*
X156214286Y-93136114D01*
X156214286Y-93136114D02*
X156214286Y-93326590D01*
X156214286Y-93326590D02*
X156309524Y-93517066D01*
X156309524Y-93517066D02*
X156404762Y-93612304D01*
X156404762Y-93612304D02*
X156595238Y-93707542D01*
X156595238Y-93707542D02*
X156976191Y-93802780D01*
X156976191Y-93802780D02*
X157166667Y-93898019D01*
X157166667Y-93898019D02*
X157261905Y-93993257D01*
X157261905Y-93993257D02*
X157357143Y-94183733D01*
X157357143Y-94183733D02*
X157357143Y-94374209D01*
X157357143Y-94374209D02*
X157261905Y-94564685D01*
X157261905Y-94564685D02*
X157166667Y-94659923D01*
X157166667Y-94659923D02*
X156976191Y-94755161D01*
X156976191Y-94755161D02*
X156500000Y-94755161D01*
X156500000Y-94755161D02*
X156214286Y-94659923D01*
X155452381Y-92850400D02*
X155166667Y-92755161D01*
X155166667Y-92755161D02*
X154690476Y-92755161D01*
X154690476Y-92755161D02*
X154500000Y-92850400D01*
X154500000Y-92850400D02*
X154404762Y-92945638D01*
X154404762Y-92945638D02*
X154309524Y-93136114D01*
X154309524Y-93136114D02*
X154309524Y-93326590D01*
X154309524Y-93326590D02*
X154404762Y-93517066D01*
X154404762Y-93517066D02*
X154500000Y-93612304D01*
X154500000Y-93612304D02*
X154690476Y-93707542D01*
X154690476Y-93707542D02*
X155071429Y-93802780D01*
X155071429Y-93802780D02*
X155261905Y-93898019D01*
X155261905Y-93898019D02*
X155357143Y-93993257D01*
X155357143Y-93993257D02*
X155452381Y-94183733D01*
X155452381Y-94183733D02*
X155452381Y-94374209D01*
X155452381Y-94374209D02*
X155357143Y-94564685D01*
X155357143Y-94564685D02*
X155261905Y-94659923D01*
X155261905Y-94659923D02*
X155071429Y-94755161D01*
X155071429Y-94755161D02*
X154595238Y-94755161D01*
X154595238Y-94755161D02*
X154309524Y-94659923D01*
X153738095Y-94755161D02*
X152595238Y-94755161D01*
X153166667Y-92755161D02*
X153166667Y-94755161D01*
X152119047Y-94755161D02*
X150880952Y-94755161D01*
X150880952Y-94755161D02*
X151547619Y-93993257D01*
X151547619Y-93993257D02*
X151261904Y-93993257D01*
X151261904Y-93993257D02*
X151071428Y-93898019D01*
X151071428Y-93898019D02*
X150976190Y-93802780D01*
X150976190Y-93802780D02*
X150880952Y-93612304D01*
X150880952Y-93612304D02*
X150880952Y-93136114D01*
X150880952Y-93136114D02*
X150976190Y-92945638D01*
X150976190Y-92945638D02*
X151071428Y-92850400D01*
X151071428Y-92850400D02*
X151261904Y-92755161D01*
X151261904Y-92755161D02*
X151833333Y-92755161D01*
X151833333Y-92755161D02*
X152023809Y-92850400D01*
X152023809Y-92850400D02*
X152119047Y-92945638D01*
X149928571Y-92755161D02*
X149547619Y-92755161D01*
X149547619Y-92755161D02*
X149357142Y-92850400D01*
X149357142Y-92850400D02*
X149261904Y-92945638D01*
X149261904Y-92945638D02*
X149071428Y-93231352D01*
X149071428Y-93231352D02*
X148976190Y-93612304D01*
X148976190Y-93612304D02*
X148976190Y-94374209D01*
X148976190Y-94374209D02*
X149071428Y-94564685D01*
X149071428Y-94564685D02*
X149166666Y-94659923D01*
X149166666Y-94659923D02*
X149357142Y-94755161D01*
X149357142Y-94755161D02*
X149738095Y-94755161D01*
X149738095Y-94755161D02*
X149928571Y-94659923D01*
X149928571Y-94659923D02*
X150023809Y-94564685D01*
X150023809Y-94564685D02*
X150119047Y-94374209D01*
X150119047Y-94374209D02*
X150119047Y-93898019D01*
X150119047Y-93898019D02*
X150023809Y-93707542D01*
X150023809Y-93707542D02*
X149928571Y-93612304D01*
X149928571Y-93612304D02*
X149738095Y-93517066D01*
X149738095Y-93517066D02*
X149357142Y-93517066D01*
X149357142Y-93517066D02*
X149166666Y-93612304D01*
X149166666Y-93612304D02*
X149071428Y-93707542D01*
X149071428Y-93707542D02*
X148976190Y-93898019D01*
X148214285Y-92850400D02*
X147928571Y-92755161D01*
X147928571Y-92755161D02*
X147452380Y-92755161D01*
X147452380Y-92755161D02*
X147261904Y-92850400D01*
X147261904Y-92850400D02*
X147166666Y-92945638D01*
X147166666Y-92945638D02*
X147071428Y-93136114D01*
X147071428Y-93136114D02*
X147071428Y-93326590D01*
X147071428Y-93326590D02*
X147166666Y-93517066D01*
X147166666Y-93517066D02*
X147261904Y-93612304D01*
X147261904Y-93612304D02*
X147452380Y-93707542D01*
X147452380Y-93707542D02*
X147833333Y-93802780D01*
X147833333Y-93802780D02*
X148023809Y-93898019D01*
X148023809Y-93898019D02*
X148119047Y-93993257D01*
X148119047Y-93993257D02*
X148214285Y-94183733D01*
X148214285Y-94183733D02*
X148214285Y-94374209D01*
X148214285Y-94374209D02*
X148119047Y-94564685D01*
X148119047Y-94564685D02*
X148023809Y-94659923D01*
X148023809Y-94659923D02*
X147833333Y-94755161D01*
X147833333Y-94755161D02*
X147357142Y-94755161D01*
X147357142Y-94755161D02*
X147071428Y-94659923D01*
X145547618Y-93802780D02*
X146214285Y-93802780D01*
X146214285Y-92755161D02*
X146214285Y-94755161D01*
X146214285Y-94755161D02*
X145261904Y-94755161D01*
X144119047Y-94755161D02*
X143928570Y-94755161D01*
X143928570Y-94755161D02*
X143738094Y-94659923D01*
X143738094Y-94659923D02*
X143642856Y-94564685D01*
X143642856Y-94564685D02*
X143547618Y-94374209D01*
X143547618Y-94374209D02*
X143452380Y-93993257D01*
X143452380Y-93993257D02*
X143452380Y-93517066D01*
X143452380Y-93517066D02*
X143547618Y-93136114D01*
X143547618Y-93136114D02*
X143642856Y-92945638D01*
X143642856Y-92945638D02*
X143738094Y-92850400D01*
X143738094Y-92850400D02*
X143928570Y-92755161D01*
X143928570Y-92755161D02*
X144119047Y-92755161D01*
X144119047Y-92755161D02*
X144309523Y-92850400D01*
X144309523Y-92850400D02*
X144404761Y-92945638D01*
X144404761Y-92945638D02*
X144499999Y-93136114D01*
X144499999Y-93136114D02*
X144595237Y-93517066D01*
X144595237Y-93517066D02*
X144595237Y-93993257D01*
X144595237Y-93993257D02*
X144499999Y-94374209D01*
X144499999Y-94374209D02*
X144404761Y-94564685D01*
X144404761Y-94564685D02*
X144309523Y-94659923D01*
X144309523Y-94659923D02*
X144119047Y-94755161D01*
X141738094Y-94088495D02*
X141738094Y-92755161D01*
X142214285Y-94850400D02*
X142690475Y-93421828D01*
X142690475Y-93421828D02*
X141452380Y-93421828D01*
X140309523Y-94755161D02*
X140119046Y-94755161D01*
X140119046Y-94755161D02*
X139928570Y-94659923D01*
X139928570Y-94659923D02*
X139833332Y-94564685D01*
X139833332Y-94564685D02*
X139738094Y-94374209D01*
X139738094Y-94374209D02*
X139642856Y-93993257D01*
X139642856Y-93993257D02*
X139642856Y-93517066D01*
X139642856Y-93517066D02*
X139738094Y-93136114D01*
X139738094Y-93136114D02*
X139833332Y-92945638D01*
X139833332Y-92945638D02*
X139928570Y-92850400D01*
X139928570Y-92850400D02*
X140119046Y-92755161D01*
X140119046Y-92755161D02*
X140309523Y-92755161D01*
X140309523Y-92755161D02*
X140499999Y-92850400D01*
X140499999Y-92850400D02*
X140595237Y-92945638D01*
X140595237Y-92945638D02*
X140690475Y-93136114D01*
X140690475Y-93136114D02*
X140785713Y-93517066D01*
X140785713Y-93517066D02*
X140785713Y-93993257D01*
X140785713Y-93993257D02*
X140690475Y-94374209D01*
X140690475Y-94374209D02*
X140595237Y-94564685D01*
X140595237Y-94564685D02*
X140499999Y-94659923D01*
X140499999Y-94659923D02*
X140309523Y-94755161D01*
D12*
X169826723Y-136091792D02*
X169231485Y-136425125D01*
X169826723Y-136663220D02*
X168576723Y-136663220D01*
X168576723Y-136663220D02*
X168576723Y-136282268D01*
X168576723Y-136282268D02*
X168636247Y-136187030D01*
X168636247Y-136187030D02*
X168695771Y-136139411D01*
X168695771Y-136139411D02*
X168814819Y-136091792D01*
X168814819Y-136091792D02*
X168993390Y-136091792D01*
X168993390Y-136091792D02*
X169112438Y-136139411D01*
X169112438Y-136139411D02*
X169171961Y-136187030D01*
X169171961Y-136187030D02*
X169231485Y-136282268D01*
X169231485Y-136282268D02*
X169231485Y-136663220D01*
X169767200Y-135282268D02*
X169826723Y-135377506D01*
X169826723Y-135377506D02*
X169826723Y-135567982D01*
X169826723Y-135567982D02*
X169767200Y-135663220D01*
X169767200Y-135663220D02*
X169648152Y-135710839D01*
X169648152Y-135710839D02*
X169171961Y-135710839D01*
X169171961Y-135710839D02*
X169052914Y-135663220D01*
X169052914Y-135663220D02*
X168993390Y-135567982D01*
X168993390Y-135567982D02*
X168993390Y-135377506D01*
X168993390Y-135377506D02*
X169052914Y-135282268D01*
X169052914Y-135282268D02*
X169171961Y-135234649D01*
X169171961Y-135234649D02*
X169291009Y-135234649D01*
X169291009Y-135234649D02*
X169410057Y-135710839D01*
X168993390Y-134901315D02*
X169826723Y-134663220D01*
X169826723Y-134663220D02*
X168993390Y-134425125D01*
X169826723Y-132758458D02*
X169826723Y-133329886D01*
X169826723Y-133044172D02*
X168576723Y-133044172D01*
X168576723Y-133044172D02*
X168755295Y-133139410D01*
X168755295Y-133139410D02*
X168874342Y-133234648D01*
X168874342Y-133234648D02*
X168933866Y-133329886D01*
X169707676Y-132329886D02*
X169767200Y-132282267D01*
X169767200Y-132282267D02*
X169826723Y-132329886D01*
X169826723Y-132329886D02*
X169767200Y-132377505D01*
X169767200Y-132377505D02*
X169707676Y-132329886D01*
X169707676Y-132329886D02*
X169826723Y-132329886D01*
X168576723Y-131663220D02*
X168576723Y-131567982D01*
X168576723Y-131567982D02*
X168636247Y-131472744D01*
X168636247Y-131472744D02*
X168695771Y-131425125D01*
X168695771Y-131425125D02*
X168814819Y-131377506D01*
X168814819Y-131377506D02*
X169052914Y-131329887D01*
X169052914Y-131329887D02*
X169350533Y-131329887D01*
X169350533Y-131329887D02*
X169588628Y-131377506D01*
X169588628Y-131377506D02*
X169707676Y-131425125D01*
X169707676Y-131425125D02*
X169767200Y-131472744D01*
X169767200Y-131472744D02*
X169826723Y-131567982D01*
X169826723Y-131567982D02*
X169826723Y-131663220D01*
X169826723Y-131663220D02*
X169767200Y-131758458D01*
X169767200Y-131758458D02*
X169707676Y-131806077D01*
X169707676Y-131806077D02*
X169588628Y-131853696D01*
X169588628Y-131853696D02*
X169350533Y-131901315D01*
X169350533Y-131901315D02*
X169052914Y-131901315D01*
X169052914Y-131901315D02*
X168814819Y-131853696D01*
X168814819Y-131853696D02*
X168695771Y-131806077D01*
X168695771Y-131806077D02*
X168636247Y-131758458D01*
X168636247Y-131758458D02*
X168576723Y-131663220D01*
X169826723Y-130139410D02*
X168576723Y-130139410D01*
X169052914Y-130139410D02*
X168993390Y-130044172D01*
X168993390Y-130044172D02*
X168993390Y-129853696D01*
X168993390Y-129853696D02*
X169052914Y-129758458D01*
X169052914Y-129758458D02*
X169112438Y-129710839D01*
X169112438Y-129710839D02*
X169231485Y-129663220D01*
X169231485Y-129663220D02*
X169588628Y-129663220D01*
X169588628Y-129663220D02*
X169707676Y-129710839D01*
X169707676Y-129710839D02*
X169767200Y-129758458D01*
X169767200Y-129758458D02*
X169826723Y-129853696D01*
X169826723Y-129853696D02*
X169826723Y-130044172D01*
X169826723Y-130044172D02*
X169767200Y-130139410D01*
X168993390Y-129329886D02*
X169826723Y-129091791D01*
X168993390Y-128853696D02*
X169826723Y-129091791D01*
X169826723Y-129091791D02*
X170124342Y-129187029D01*
X170124342Y-129187029D02*
X170183866Y-129234648D01*
X170183866Y-129234648D02*
X170243390Y-129329886D01*
X169707676Y-127139410D02*
X169767200Y-127187029D01*
X169767200Y-127187029D02*
X169826723Y-127329886D01*
X169826723Y-127329886D02*
X169826723Y-127425124D01*
X169826723Y-127425124D02*
X169767200Y-127567981D01*
X169767200Y-127567981D02*
X169648152Y-127663219D01*
X169648152Y-127663219D02*
X169529104Y-127710838D01*
X169529104Y-127710838D02*
X169291009Y-127758457D01*
X169291009Y-127758457D02*
X169112438Y-127758457D01*
X169112438Y-127758457D02*
X168874342Y-127710838D01*
X168874342Y-127710838D02*
X168755295Y-127663219D01*
X168755295Y-127663219D02*
X168636247Y-127567981D01*
X168636247Y-127567981D02*
X168576723Y-127425124D01*
X168576723Y-127425124D02*
X168576723Y-127329886D01*
X168576723Y-127329886D02*
X168636247Y-127187029D01*
X168636247Y-127187029D02*
X168695771Y-127139410D01*
X169826723Y-126567981D02*
X169767200Y-126663219D01*
X169767200Y-126663219D02*
X169707676Y-126710838D01*
X169707676Y-126710838D02*
X169588628Y-126758457D01*
X169588628Y-126758457D02*
X169231485Y-126758457D01*
X169231485Y-126758457D02*
X169112438Y-126710838D01*
X169112438Y-126710838D02*
X169052914Y-126663219D01*
X169052914Y-126663219D02*
X168993390Y-126567981D01*
X168993390Y-126567981D02*
X168993390Y-126425124D01*
X168993390Y-126425124D02*
X169052914Y-126329886D01*
X169052914Y-126329886D02*
X169112438Y-126282267D01*
X169112438Y-126282267D02*
X169231485Y-126234648D01*
X169231485Y-126234648D02*
X169588628Y-126234648D01*
X169588628Y-126234648D02*
X169707676Y-126282267D01*
X169707676Y-126282267D02*
X169767200Y-126329886D01*
X169767200Y-126329886D02*
X169826723Y-126425124D01*
X169826723Y-126425124D02*
X169826723Y-126567981D01*
X169767200Y-125853695D02*
X169826723Y-125758457D01*
X169826723Y-125758457D02*
X169826723Y-125567981D01*
X169826723Y-125567981D02*
X169767200Y-125472743D01*
X169767200Y-125472743D02*
X169648152Y-125425124D01*
X169648152Y-125425124D02*
X169588628Y-125425124D01*
X169588628Y-125425124D02*
X169469580Y-125472743D01*
X169469580Y-125472743D02*
X169410057Y-125567981D01*
X169410057Y-125567981D02*
X169410057Y-125710838D01*
X169410057Y-125710838D02*
X169350533Y-125806076D01*
X169350533Y-125806076D02*
X169231485Y-125853695D01*
X169231485Y-125853695D02*
X169171961Y-125853695D01*
X169171961Y-125853695D02*
X169052914Y-125806076D01*
X169052914Y-125806076D02*
X168993390Y-125710838D01*
X168993390Y-125710838D02*
X168993390Y-125567981D01*
X168993390Y-125567981D02*
X169052914Y-125472743D01*
X169826723Y-124567981D02*
X169171961Y-124567981D01*
X169171961Y-124567981D02*
X169052914Y-124615600D01*
X169052914Y-124615600D02*
X168993390Y-124710838D01*
X168993390Y-124710838D02*
X168993390Y-124901314D01*
X168993390Y-124901314D02*
X169052914Y-124996552D01*
X169767200Y-124567981D02*
X169826723Y-124663219D01*
X169826723Y-124663219D02*
X169826723Y-124901314D01*
X169826723Y-124901314D02*
X169767200Y-124996552D01*
X169767200Y-124996552D02*
X169648152Y-125044171D01*
X169648152Y-125044171D02*
X169529104Y-125044171D01*
X169529104Y-125044171D02*
X169410057Y-124996552D01*
X169410057Y-124996552D02*
X169350533Y-124901314D01*
X169350533Y-124901314D02*
X169350533Y-124663219D01*
X169350533Y-124663219D02*
X169291009Y-124567981D01*
X169826723Y-124091790D02*
X168993390Y-124091790D01*
X169112438Y-124091790D02*
X169052914Y-124044171D01*
X169052914Y-124044171D02*
X168993390Y-123948933D01*
X168993390Y-123948933D02*
X168993390Y-123806076D01*
X168993390Y-123806076D02*
X169052914Y-123710838D01*
X169052914Y-123710838D02*
X169171961Y-123663219D01*
X169171961Y-123663219D02*
X169826723Y-123663219D01*
X169171961Y-123663219D02*
X169052914Y-123615600D01*
X169052914Y-123615600D02*
X168993390Y-123520362D01*
X168993390Y-123520362D02*
X168993390Y-123377505D01*
X168993390Y-123377505D02*
X169052914Y-123282266D01*
X169052914Y-123282266D02*
X169171961Y-123234647D01*
X169171961Y-123234647D02*
X169826723Y-123234647D01*
X169826723Y-121996552D02*
X168576723Y-121996552D01*
X169826723Y-121567981D02*
X169171961Y-121567981D01*
X169171961Y-121567981D02*
X169052914Y-121615600D01*
X169052914Y-121615600D02*
X168993390Y-121710838D01*
X168993390Y-121710838D02*
X168993390Y-121853695D01*
X168993390Y-121853695D02*
X169052914Y-121948933D01*
X169052914Y-121948933D02*
X169112438Y-121996552D01*
X168993390Y-121234647D02*
X168993390Y-120853695D01*
X168576723Y-121091790D02*
X169648152Y-121091790D01*
X169648152Y-121091790D02*
X169767200Y-121044171D01*
X169767200Y-121044171D02*
X169826723Y-120948933D01*
X169826723Y-120948933D02*
X169826723Y-120853695D01*
X168993390Y-120663218D02*
X168993390Y-120282266D01*
X168576723Y-120520361D02*
X169648152Y-120520361D01*
X169648152Y-120520361D02*
X169767200Y-120472742D01*
X169767200Y-120472742D02*
X169826723Y-120377504D01*
X169826723Y-120377504D02*
X169826723Y-120282266D01*
X168993390Y-119948932D02*
X170243390Y-119948932D01*
X169052914Y-119948932D02*
X168993390Y-119853694D01*
X168993390Y-119853694D02*
X168993390Y-119663218D01*
X168993390Y-119663218D02*
X169052914Y-119567980D01*
X169052914Y-119567980D02*
X169112438Y-119520361D01*
X169112438Y-119520361D02*
X169231485Y-119472742D01*
X169231485Y-119472742D02*
X169588628Y-119472742D01*
X169588628Y-119472742D02*
X169707676Y-119520361D01*
X169707676Y-119520361D02*
X169767200Y-119567980D01*
X169767200Y-119567980D02*
X169826723Y-119663218D01*
X169826723Y-119663218D02*
X169826723Y-119853694D01*
X169826723Y-119853694D02*
X169767200Y-119948932D01*
X169767200Y-119091789D02*
X169826723Y-118996551D01*
X169826723Y-118996551D02*
X169826723Y-118806075D01*
X169826723Y-118806075D02*
X169767200Y-118710837D01*
X169767200Y-118710837D02*
X169648152Y-118663218D01*
X169648152Y-118663218D02*
X169588628Y-118663218D01*
X169588628Y-118663218D02*
X169469580Y-118710837D01*
X169469580Y-118710837D02*
X169410057Y-118806075D01*
X169410057Y-118806075D02*
X169410057Y-118948932D01*
X169410057Y-118948932D02*
X169350533Y-119044170D01*
X169350533Y-119044170D02*
X169231485Y-119091789D01*
X169231485Y-119091789D02*
X169171961Y-119091789D01*
X169171961Y-119091789D02*
X169052914Y-119044170D01*
X169052914Y-119044170D02*
X168993390Y-118948932D01*
X168993390Y-118948932D02*
X168993390Y-118806075D01*
X168993390Y-118806075D02*
X169052914Y-118710837D01*
X169707676Y-118234646D02*
X169767200Y-118187027D01*
X169767200Y-118187027D02*
X169826723Y-118234646D01*
X169826723Y-118234646D02*
X169767200Y-118282265D01*
X169767200Y-118282265D02*
X169707676Y-118234646D01*
X169707676Y-118234646D02*
X169826723Y-118234646D01*
X169052914Y-118234646D02*
X169112438Y-118187027D01*
X169112438Y-118187027D02*
X169171961Y-118234646D01*
X169171961Y-118234646D02*
X169112438Y-118282265D01*
X169112438Y-118282265D02*
X169052914Y-118234646D01*
X169052914Y-118234646D02*
X169171961Y-118234646D01*
X168517200Y-117044171D02*
X170124342Y-117901313D01*
X168517200Y-115996552D02*
X170124342Y-116853694D01*
X168993390Y-115234647D02*
X170005295Y-115234647D01*
X170005295Y-115234647D02*
X170124342Y-115282266D01*
X170124342Y-115282266D02*
X170183866Y-115329885D01*
X170183866Y-115329885D02*
X170243390Y-115425123D01*
X170243390Y-115425123D02*
X170243390Y-115567980D01*
X170243390Y-115567980D02*
X170183866Y-115663218D01*
X169767200Y-115234647D02*
X169826723Y-115329885D01*
X169826723Y-115329885D02*
X169826723Y-115520361D01*
X169826723Y-115520361D02*
X169767200Y-115615599D01*
X169767200Y-115615599D02*
X169707676Y-115663218D01*
X169707676Y-115663218D02*
X169588628Y-115710837D01*
X169588628Y-115710837D02*
X169231485Y-115710837D01*
X169231485Y-115710837D02*
X169112438Y-115663218D01*
X169112438Y-115663218D02*
X169052914Y-115615599D01*
X169052914Y-115615599D02*
X168993390Y-115520361D01*
X168993390Y-115520361D02*
X168993390Y-115329885D01*
X168993390Y-115329885D02*
X169052914Y-115234647D01*
X169826723Y-114758456D02*
X168993390Y-114758456D01*
X168576723Y-114758456D02*
X168636247Y-114806075D01*
X168636247Y-114806075D02*
X168695771Y-114758456D01*
X168695771Y-114758456D02*
X168636247Y-114710837D01*
X168636247Y-114710837D02*
X168576723Y-114758456D01*
X168576723Y-114758456D02*
X168695771Y-114758456D01*
X168993390Y-114425123D02*
X168993390Y-114044171D01*
X168576723Y-114282266D02*
X169648152Y-114282266D01*
X169648152Y-114282266D02*
X169767200Y-114234647D01*
X169767200Y-114234647D02*
X169826723Y-114139409D01*
X169826723Y-114139409D02*
X169826723Y-114044171D01*
X169826723Y-113710837D02*
X168576723Y-113710837D01*
X169826723Y-113282266D02*
X169171961Y-113282266D01*
X169171961Y-113282266D02*
X169052914Y-113329885D01*
X169052914Y-113329885D02*
X168993390Y-113425123D01*
X168993390Y-113425123D02*
X168993390Y-113567980D01*
X168993390Y-113567980D02*
X169052914Y-113663218D01*
X169052914Y-113663218D02*
X169112438Y-113710837D01*
X168993390Y-112377504D02*
X169826723Y-112377504D01*
X168993390Y-112806075D02*
X169648152Y-112806075D01*
X169648152Y-112806075D02*
X169767200Y-112758456D01*
X169767200Y-112758456D02*
X169826723Y-112663218D01*
X169826723Y-112663218D02*
X169826723Y-112520361D01*
X169826723Y-112520361D02*
X169767200Y-112425123D01*
X169767200Y-112425123D02*
X169707676Y-112377504D01*
X169826723Y-111901313D02*
X168576723Y-111901313D01*
X169052914Y-111901313D02*
X168993390Y-111806075D01*
X168993390Y-111806075D02*
X168993390Y-111615599D01*
X168993390Y-111615599D02*
X169052914Y-111520361D01*
X169052914Y-111520361D02*
X169112438Y-111472742D01*
X169112438Y-111472742D02*
X169231485Y-111425123D01*
X169231485Y-111425123D02*
X169588628Y-111425123D01*
X169588628Y-111425123D02*
X169707676Y-111472742D01*
X169707676Y-111472742D02*
X169767200Y-111520361D01*
X169767200Y-111520361D02*
X169826723Y-111615599D01*
X169826723Y-111615599D02*
X169826723Y-111806075D01*
X169826723Y-111806075D02*
X169767200Y-111901313D01*
X169707676Y-110996551D02*
X169767200Y-110948932D01*
X169767200Y-110948932D02*
X169826723Y-110996551D01*
X169826723Y-110996551D02*
X169767200Y-111044170D01*
X169767200Y-111044170D02*
X169707676Y-110996551D01*
X169707676Y-110996551D02*
X169826723Y-110996551D01*
X169767200Y-110091790D02*
X169826723Y-110187028D01*
X169826723Y-110187028D02*
X169826723Y-110377504D01*
X169826723Y-110377504D02*
X169767200Y-110472742D01*
X169767200Y-110472742D02*
X169707676Y-110520361D01*
X169707676Y-110520361D02*
X169588628Y-110567980D01*
X169588628Y-110567980D02*
X169231485Y-110567980D01*
X169231485Y-110567980D02*
X169112438Y-110520361D01*
X169112438Y-110520361D02*
X169052914Y-110472742D01*
X169052914Y-110472742D02*
X168993390Y-110377504D01*
X168993390Y-110377504D02*
X168993390Y-110187028D01*
X168993390Y-110187028D02*
X169052914Y-110091790D01*
X169826723Y-109520361D02*
X169767200Y-109615599D01*
X169767200Y-109615599D02*
X169707676Y-109663218D01*
X169707676Y-109663218D02*
X169588628Y-109710837D01*
X169588628Y-109710837D02*
X169231485Y-109710837D01*
X169231485Y-109710837D02*
X169112438Y-109663218D01*
X169112438Y-109663218D02*
X169052914Y-109615599D01*
X169052914Y-109615599D02*
X168993390Y-109520361D01*
X168993390Y-109520361D02*
X168993390Y-109377504D01*
X168993390Y-109377504D02*
X169052914Y-109282266D01*
X169052914Y-109282266D02*
X169112438Y-109234647D01*
X169112438Y-109234647D02*
X169231485Y-109187028D01*
X169231485Y-109187028D02*
X169588628Y-109187028D01*
X169588628Y-109187028D02*
X169707676Y-109234647D01*
X169707676Y-109234647D02*
X169767200Y-109282266D01*
X169767200Y-109282266D02*
X169826723Y-109377504D01*
X169826723Y-109377504D02*
X169826723Y-109520361D01*
X169826723Y-108758456D02*
X168993390Y-108758456D01*
X169112438Y-108758456D02*
X169052914Y-108710837D01*
X169052914Y-108710837D02*
X168993390Y-108615599D01*
X168993390Y-108615599D02*
X168993390Y-108472742D01*
X168993390Y-108472742D02*
X169052914Y-108377504D01*
X169052914Y-108377504D02*
X169171961Y-108329885D01*
X169171961Y-108329885D02*
X169826723Y-108329885D01*
X169171961Y-108329885D02*
X169052914Y-108282266D01*
X169052914Y-108282266D02*
X168993390Y-108187028D01*
X168993390Y-108187028D02*
X168993390Y-108044171D01*
X168993390Y-108044171D02*
X169052914Y-107948932D01*
X169052914Y-107948932D02*
X169171961Y-107901313D01*
X169171961Y-107901313D02*
X169826723Y-107901313D01*
X168517200Y-106710838D02*
X170124342Y-107567980D01*
X169171961Y-106044171D02*
X169231485Y-105901314D01*
X169231485Y-105901314D02*
X169291009Y-105853695D01*
X169291009Y-105853695D02*
X169410057Y-105806076D01*
X169410057Y-105806076D02*
X169588628Y-105806076D01*
X169588628Y-105806076D02*
X169707676Y-105853695D01*
X169707676Y-105853695D02*
X169767200Y-105901314D01*
X169767200Y-105901314D02*
X169826723Y-105996552D01*
X169826723Y-105996552D02*
X169826723Y-106377504D01*
X169826723Y-106377504D02*
X168576723Y-106377504D01*
X168576723Y-106377504D02*
X168576723Y-106044171D01*
X168576723Y-106044171D02*
X168636247Y-105948933D01*
X168636247Y-105948933D02*
X168695771Y-105901314D01*
X168695771Y-105901314D02*
X168814819Y-105853695D01*
X168814819Y-105853695D02*
X168933866Y-105853695D01*
X168933866Y-105853695D02*
X169052914Y-105901314D01*
X169052914Y-105901314D02*
X169112438Y-105948933D01*
X169112438Y-105948933D02*
X169171961Y-106044171D01*
X169171961Y-106044171D02*
X169171961Y-106377504D01*
X169826723Y-105234647D02*
X169767200Y-105329885D01*
X169767200Y-105329885D02*
X169707676Y-105377504D01*
X169707676Y-105377504D02*
X169588628Y-105425123D01*
X169588628Y-105425123D02*
X169231485Y-105425123D01*
X169231485Y-105425123D02*
X169112438Y-105377504D01*
X169112438Y-105377504D02*
X169052914Y-105329885D01*
X169052914Y-105329885D02*
X168993390Y-105234647D01*
X168993390Y-105234647D02*
X168993390Y-105091790D01*
X168993390Y-105091790D02*
X169052914Y-104996552D01*
X169052914Y-104996552D02*
X169112438Y-104948933D01*
X169112438Y-104948933D02*
X169231485Y-104901314D01*
X169231485Y-104901314D02*
X169588628Y-104901314D01*
X169588628Y-104901314D02*
X169707676Y-104948933D01*
X169707676Y-104948933D02*
X169767200Y-104996552D01*
X169767200Y-104996552D02*
X169826723Y-105091790D01*
X169826723Y-105091790D02*
X169826723Y-105234647D01*
X169826723Y-104044171D02*
X169171961Y-104044171D01*
X169171961Y-104044171D02*
X169052914Y-104091790D01*
X169052914Y-104091790D02*
X168993390Y-104187028D01*
X168993390Y-104187028D02*
X168993390Y-104377504D01*
X168993390Y-104377504D02*
X169052914Y-104472742D01*
X169767200Y-104044171D02*
X169826723Y-104139409D01*
X169826723Y-104139409D02*
X169826723Y-104377504D01*
X169826723Y-104377504D02*
X169767200Y-104472742D01*
X169767200Y-104472742D02*
X169648152Y-104520361D01*
X169648152Y-104520361D02*
X169529104Y-104520361D01*
X169529104Y-104520361D02*
X169410057Y-104472742D01*
X169410057Y-104472742D02*
X169350533Y-104377504D01*
X169350533Y-104377504D02*
X169350533Y-104139409D01*
X169350533Y-104139409D02*
X169291009Y-104044171D01*
X169826723Y-103567980D02*
X168993390Y-103567980D01*
X169231485Y-103567980D02*
X169112438Y-103520361D01*
X169112438Y-103520361D02*
X169052914Y-103472742D01*
X169052914Y-103472742D02*
X168993390Y-103377504D01*
X168993390Y-103377504D02*
X168993390Y-103282266D01*
X169826723Y-102520361D02*
X168576723Y-102520361D01*
X169767200Y-102520361D02*
X169826723Y-102615599D01*
X169826723Y-102615599D02*
X169826723Y-102806075D01*
X169826723Y-102806075D02*
X169767200Y-102901313D01*
X169767200Y-102901313D02*
X169707676Y-102948932D01*
X169707676Y-102948932D02*
X169588628Y-102996551D01*
X169588628Y-102996551D02*
X169231485Y-102996551D01*
X169231485Y-102996551D02*
X169112438Y-102948932D01*
X169112438Y-102948932D02*
X169052914Y-102901313D01*
X169052914Y-102901313D02*
X168993390Y-102806075D01*
X168993390Y-102806075D02*
X168993390Y-102615599D01*
X168993390Y-102615599D02*
X169052914Y-102520361D01*
X169350533Y-102044170D02*
X169350533Y-101282266D01*
X169171961Y-100472742D02*
X169171961Y-100806075D01*
X169826723Y-100806075D02*
X168576723Y-100806075D01*
X168576723Y-100806075D02*
X168576723Y-100329885D01*
X169826723Y-99806075D02*
X169767200Y-99901313D01*
X169767200Y-99901313D02*
X169707676Y-99948932D01*
X169707676Y-99948932D02*
X169588628Y-99996551D01*
X169588628Y-99996551D02*
X169231485Y-99996551D01*
X169231485Y-99996551D02*
X169112438Y-99948932D01*
X169112438Y-99948932D02*
X169052914Y-99901313D01*
X169052914Y-99901313D02*
X168993390Y-99806075D01*
X168993390Y-99806075D02*
X168993390Y-99663218D01*
X168993390Y-99663218D02*
X169052914Y-99567980D01*
X169052914Y-99567980D02*
X169112438Y-99520361D01*
X169112438Y-99520361D02*
X169231485Y-99472742D01*
X169231485Y-99472742D02*
X169588628Y-99472742D01*
X169588628Y-99472742D02*
X169707676Y-99520361D01*
X169707676Y-99520361D02*
X169767200Y-99567980D01*
X169767200Y-99567980D02*
X169826723Y-99663218D01*
X169826723Y-99663218D02*
X169826723Y-99806075D01*
X169826723Y-98901313D02*
X169767200Y-98996551D01*
X169767200Y-98996551D02*
X169648152Y-99044170D01*
X169648152Y-99044170D02*
X168576723Y-99044170D01*
X169826723Y-98520360D02*
X168576723Y-98520360D01*
X169350533Y-98425122D02*
X169826723Y-98139408D01*
X168993390Y-98139408D02*
X169469580Y-98520360D01*
X168517200Y-96996551D02*
X170124342Y-97853693D01*
X169826723Y-96663217D02*
X168576723Y-96663217D01*
X168576723Y-96663217D02*
X168576723Y-96282265D01*
X168576723Y-96282265D02*
X168636247Y-96187027D01*
X168636247Y-96187027D02*
X168695771Y-96139408D01*
X168695771Y-96139408D02*
X168814819Y-96091789D01*
X168814819Y-96091789D02*
X168993390Y-96091789D01*
X168993390Y-96091789D02*
X169112438Y-96139408D01*
X169112438Y-96139408D02*
X169171961Y-96187027D01*
X169171961Y-96187027D02*
X169231485Y-96282265D01*
X169231485Y-96282265D02*
X169231485Y-96663217D01*
X169826723Y-95663217D02*
X168993390Y-95663217D01*
X169231485Y-95663217D02*
X169112438Y-95615598D01*
X169112438Y-95615598D02*
X169052914Y-95567979D01*
X169052914Y-95567979D02*
X168993390Y-95472741D01*
X168993390Y-95472741D02*
X168993390Y-95377503D01*
X169826723Y-94901312D02*
X169767200Y-94996550D01*
X169767200Y-94996550D02*
X169707676Y-95044169D01*
X169707676Y-95044169D02*
X169588628Y-95091788D01*
X169588628Y-95091788D02*
X169231485Y-95091788D01*
X169231485Y-95091788D02*
X169112438Y-95044169D01*
X169112438Y-95044169D02*
X169052914Y-94996550D01*
X169052914Y-94996550D02*
X168993390Y-94901312D01*
X168993390Y-94901312D02*
X168993390Y-94758455D01*
X168993390Y-94758455D02*
X169052914Y-94663217D01*
X169052914Y-94663217D02*
X169112438Y-94615598D01*
X169112438Y-94615598D02*
X169231485Y-94567979D01*
X169231485Y-94567979D02*
X169588628Y-94567979D01*
X169588628Y-94567979D02*
X169707676Y-94615598D01*
X169707676Y-94615598D02*
X169767200Y-94663217D01*
X169767200Y-94663217D02*
X169826723Y-94758455D01*
X169826723Y-94758455D02*
X169826723Y-94901312D01*
X168993390Y-94282264D02*
X168993390Y-93901312D01*
X168576723Y-94139407D02*
X169648152Y-94139407D01*
X169648152Y-94139407D02*
X169767200Y-94091788D01*
X169767200Y-94091788D02*
X169826723Y-93996550D01*
X169826723Y-93996550D02*
X169826723Y-93901312D01*
X169826723Y-93425121D02*
X169767200Y-93520359D01*
X169767200Y-93520359D02*
X169707676Y-93567978D01*
X169707676Y-93567978D02*
X169588628Y-93615597D01*
X169588628Y-93615597D02*
X169231485Y-93615597D01*
X169231485Y-93615597D02*
X169112438Y-93567978D01*
X169112438Y-93567978D02*
X169052914Y-93520359D01*
X169052914Y-93520359D02*
X168993390Y-93425121D01*
X168993390Y-93425121D02*
X168993390Y-93282264D01*
X168993390Y-93282264D02*
X169052914Y-93187026D01*
X169052914Y-93187026D02*
X169112438Y-93139407D01*
X169112438Y-93139407D02*
X169231485Y-93091788D01*
X169231485Y-93091788D02*
X169588628Y-93091788D01*
X169588628Y-93091788D02*
X169707676Y-93139407D01*
X169707676Y-93139407D02*
X169767200Y-93187026D01*
X169767200Y-93187026D02*
X169826723Y-93282264D01*
X169826723Y-93282264D02*
X169826723Y-93425121D01*
X169826723Y-92663216D02*
X168576723Y-92663216D01*
X169171961Y-92663216D02*
X169171961Y-92091788D01*
X169826723Y-92091788D02*
X168576723Y-92091788D01*
X168993390Y-91187026D02*
X169826723Y-91187026D01*
X168993390Y-91615597D02*
X169648152Y-91615597D01*
X169648152Y-91615597D02*
X169767200Y-91567978D01*
X169767200Y-91567978D02*
X169826723Y-91472740D01*
X169826723Y-91472740D02*
X169826723Y-91329883D01*
X169826723Y-91329883D02*
X169767200Y-91234645D01*
X169767200Y-91234645D02*
X169707676Y-91187026D01*
X169350533Y-90710835D02*
X169350533Y-89948931D01*
X169826723Y-88901312D02*
X169231485Y-89234645D01*
X169826723Y-89472740D02*
X168576723Y-89472740D01*
X168576723Y-89472740D02*
X168576723Y-89091788D01*
X168576723Y-89091788D02*
X168636247Y-88996550D01*
X168636247Y-88996550D02*
X168695771Y-88948931D01*
X168695771Y-88948931D02*
X168814819Y-88901312D01*
X168814819Y-88901312D02*
X168993390Y-88901312D01*
X168993390Y-88901312D02*
X169112438Y-88948931D01*
X169112438Y-88948931D02*
X169171961Y-88996550D01*
X169171961Y-88996550D02*
X169231485Y-89091788D01*
X169231485Y-89091788D02*
X169231485Y-89472740D01*
X169767200Y-88091788D02*
X169826723Y-88187026D01*
X169826723Y-88187026D02*
X169826723Y-88377502D01*
X169826723Y-88377502D02*
X169767200Y-88472740D01*
X169767200Y-88472740D02*
X169648152Y-88520359D01*
X169648152Y-88520359D02*
X169171961Y-88520359D01*
X169171961Y-88520359D02*
X169052914Y-88472740D01*
X169052914Y-88472740D02*
X168993390Y-88377502D01*
X168993390Y-88377502D02*
X168993390Y-88187026D01*
X168993390Y-88187026D02*
X169052914Y-88091788D01*
X169052914Y-88091788D02*
X169171961Y-88044169D01*
X169171961Y-88044169D02*
X169291009Y-88044169D01*
X169291009Y-88044169D02*
X169410057Y-88520359D01*
X169826723Y-87187026D02*
X168576723Y-87187026D01*
X169767200Y-87187026D02*
X169826723Y-87282264D01*
X169826723Y-87282264D02*
X169826723Y-87472740D01*
X169826723Y-87472740D02*
X169767200Y-87567978D01*
X169767200Y-87567978D02*
X169707676Y-87615597D01*
X169707676Y-87615597D02*
X169588628Y-87663216D01*
X169588628Y-87663216D02*
X169231485Y-87663216D01*
X169231485Y-87663216D02*
X169112438Y-87615597D01*
X169112438Y-87615597D02*
X169052914Y-87567978D01*
X169052914Y-87567978D02*
X168993390Y-87472740D01*
X168993390Y-87472740D02*
X168993390Y-87282264D01*
X168993390Y-87282264D02*
X169052914Y-87187026D01*
X168993390Y-86282264D02*
X169826723Y-86282264D01*
X168993390Y-86710835D02*
X169648152Y-86710835D01*
X169648152Y-86710835D02*
X169767200Y-86663216D01*
X169767200Y-86663216D02*
X169826723Y-86567978D01*
X169826723Y-86567978D02*
X169826723Y-86425121D01*
X169826723Y-86425121D02*
X169767200Y-86329883D01*
X169767200Y-86329883D02*
X169707676Y-86282264D01*
X169826723Y-85901311D02*
X168993390Y-85377502D01*
X168993390Y-85901311D02*
X169826723Y-85377502D01*
X171184461Y-136329887D02*
X171243985Y-136187030D01*
X171243985Y-136187030D02*
X171303509Y-136139411D01*
X171303509Y-136139411D02*
X171422557Y-136091792D01*
X171422557Y-136091792D02*
X171601128Y-136091792D01*
X171601128Y-136091792D02*
X171720176Y-136139411D01*
X171720176Y-136139411D02*
X171779700Y-136187030D01*
X171779700Y-136187030D02*
X171839223Y-136282268D01*
X171839223Y-136282268D02*
X171839223Y-136663220D01*
X171839223Y-136663220D02*
X170589223Y-136663220D01*
X170589223Y-136663220D02*
X170589223Y-136329887D01*
X170589223Y-136329887D02*
X170648747Y-136234649D01*
X170648747Y-136234649D02*
X170708271Y-136187030D01*
X170708271Y-136187030D02*
X170827319Y-136139411D01*
X170827319Y-136139411D02*
X170946366Y-136139411D01*
X170946366Y-136139411D02*
X171065414Y-136187030D01*
X171065414Y-136187030D02*
X171124938Y-136234649D01*
X171124938Y-136234649D02*
X171184461Y-136329887D01*
X171184461Y-136329887D02*
X171184461Y-136663220D01*
X171839223Y-135234649D02*
X171184461Y-135234649D01*
X171184461Y-135234649D02*
X171065414Y-135282268D01*
X171065414Y-135282268D02*
X171005890Y-135377506D01*
X171005890Y-135377506D02*
X171005890Y-135567982D01*
X171005890Y-135567982D02*
X171065414Y-135663220D01*
X171779700Y-135234649D02*
X171839223Y-135329887D01*
X171839223Y-135329887D02*
X171839223Y-135567982D01*
X171839223Y-135567982D02*
X171779700Y-135663220D01*
X171779700Y-135663220D02*
X171660652Y-135710839D01*
X171660652Y-135710839D02*
X171541604Y-135710839D01*
X171541604Y-135710839D02*
X171422557Y-135663220D01*
X171422557Y-135663220D02*
X171363033Y-135567982D01*
X171363033Y-135567982D02*
X171363033Y-135329887D01*
X171363033Y-135329887D02*
X171303509Y-135234649D01*
X171779700Y-134806077D02*
X171839223Y-134710839D01*
X171839223Y-134710839D02*
X171839223Y-134520363D01*
X171839223Y-134520363D02*
X171779700Y-134425125D01*
X171779700Y-134425125D02*
X171660652Y-134377506D01*
X171660652Y-134377506D02*
X171601128Y-134377506D01*
X171601128Y-134377506D02*
X171482080Y-134425125D01*
X171482080Y-134425125D02*
X171422557Y-134520363D01*
X171422557Y-134520363D02*
X171422557Y-134663220D01*
X171422557Y-134663220D02*
X171363033Y-134758458D01*
X171363033Y-134758458D02*
X171243985Y-134806077D01*
X171243985Y-134806077D02*
X171184461Y-134806077D01*
X171184461Y-134806077D02*
X171065414Y-134758458D01*
X171065414Y-134758458D02*
X171005890Y-134663220D01*
X171005890Y-134663220D02*
X171005890Y-134520363D01*
X171005890Y-134520363D02*
X171065414Y-134425125D01*
X171779700Y-133567982D02*
X171839223Y-133663220D01*
X171839223Y-133663220D02*
X171839223Y-133853696D01*
X171839223Y-133853696D02*
X171779700Y-133948934D01*
X171779700Y-133948934D02*
X171660652Y-133996553D01*
X171660652Y-133996553D02*
X171184461Y-133996553D01*
X171184461Y-133996553D02*
X171065414Y-133948934D01*
X171065414Y-133948934D02*
X171005890Y-133853696D01*
X171005890Y-133853696D02*
X171005890Y-133663220D01*
X171005890Y-133663220D02*
X171065414Y-133567982D01*
X171065414Y-133567982D02*
X171184461Y-133520363D01*
X171184461Y-133520363D02*
X171303509Y-133520363D01*
X171303509Y-133520363D02*
X171422557Y-133996553D01*
X171839223Y-132663220D02*
X170589223Y-132663220D01*
X171779700Y-132663220D02*
X171839223Y-132758458D01*
X171839223Y-132758458D02*
X171839223Y-132948934D01*
X171839223Y-132948934D02*
X171779700Y-133044172D01*
X171779700Y-133044172D02*
X171720176Y-133091791D01*
X171720176Y-133091791D02*
X171601128Y-133139410D01*
X171601128Y-133139410D02*
X171243985Y-133139410D01*
X171243985Y-133139410D02*
X171124938Y-133091791D01*
X171124938Y-133091791D02*
X171065414Y-133044172D01*
X171065414Y-133044172D02*
X171005890Y-132948934D01*
X171005890Y-132948934D02*
X171005890Y-132758458D01*
X171005890Y-132758458D02*
X171065414Y-132663220D01*
X171839223Y-131282267D02*
X171779700Y-131377505D01*
X171779700Y-131377505D02*
X171720176Y-131425124D01*
X171720176Y-131425124D02*
X171601128Y-131472743D01*
X171601128Y-131472743D02*
X171243985Y-131472743D01*
X171243985Y-131472743D02*
X171124938Y-131425124D01*
X171124938Y-131425124D02*
X171065414Y-131377505D01*
X171065414Y-131377505D02*
X171005890Y-131282267D01*
X171005890Y-131282267D02*
X171005890Y-131139410D01*
X171005890Y-131139410D02*
X171065414Y-131044172D01*
X171065414Y-131044172D02*
X171124938Y-130996553D01*
X171124938Y-130996553D02*
X171243985Y-130948934D01*
X171243985Y-130948934D02*
X171601128Y-130948934D01*
X171601128Y-130948934D02*
X171720176Y-130996553D01*
X171720176Y-130996553D02*
X171779700Y-131044172D01*
X171779700Y-131044172D02*
X171839223Y-131139410D01*
X171839223Y-131139410D02*
X171839223Y-131282267D01*
X171005890Y-130520362D02*
X171839223Y-130520362D01*
X171124938Y-130520362D02*
X171065414Y-130472743D01*
X171065414Y-130472743D02*
X171005890Y-130377505D01*
X171005890Y-130377505D02*
X171005890Y-130234648D01*
X171005890Y-130234648D02*
X171065414Y-130139410D01*
X171065414Y-130139410D02*
X171184461Y-130091791D01*
X171184461Y-130091791D02*
X171839223Y-130091791D01*
X171839223Y-128853695D02*
X170589223Y-128853695D01*
X171839223Y-128425124D02*
X171184461Y-128425124D01*
X171184461Y-128425124D02*
X171065414Y-128472743D01*
X171065414Y-128472743D02*
X171005890Y-128567981D01*
X171005890Y-128567981D02*
X171005890Y-128710838D01*
X171005890Y-128710838D02*
X171065414Y-128806076D01*
X171065414Y-128806076D02*
X171124938Y-128853695D01*
X171005890Y-128091790D02*
X171005890Y-127710838D01*
X170589223Y-127948933D02*
X171660652Y-127948933D01*
X171660652Y-127948933D02*
X171779700Y-127901314D01*
X171779700Y-127901314D02*
X171839223Y-127806076D01*
X171839223Y-127806076D02*
X171839223Y-127710838D01*
X171005890Y-127520361D02*
X171005890Y-127139409D01*
X170589223Y-127377504D02*
X171660652Y-127377504D01*
X171660652Y-127377504D02*
X171779700Y-127329885D01*
X171779700Y-127329885D02*
X171839223Y-127234647D01*
X171839223Y-127234647D02*
X171839223Y-127139409D01*
X171005890Y-126806075D02*
X172255890Y-126806075D01*
X171065414Y-126806075D02*
X171005890Y-126710837D01*
X171005890Y-126710837D02*
X171005890Y-126520361D01*
X171005890Y-126520361D02*
X171065414Y-126425123D01*
X171065414Y-126425123D02*
X171124938Y-126377504D01*
X171124938Y-126377504D02*
X171243985Y-126329885D01*
X171243985Y-126329885D02*
X171601128Y-126329885D01*
X171601128Y-126329885D02*
X171720176Y-126377504D01*
X171720176Y-126377504D02*
X171779700Y-126425123D01*
X171779700Y-126425123D02*
X171839223Y-126520361D01*
X171839223Y-126520361D02*
X171839223Y-126710837D01*
X171839223Y-126710837D02*
X171779700Y-126806075D01*
X171779700Y-125948932D02*
X171839223Y-125853694D01*
X171839223Y-125853694D02*
X171839223Y-125663218D01*
X171839223Y-125663218D02*
X171779700Y-125567980D01*
X171779700Y-125567980D02*
X171660652Y-125520361D01*
X171660652Y-125520361D02*
X171601128Y-125520361D01*
X171601128Y-125520361D02*
X171482080Y-125567980D01*
X171482080Y-125567980D02*
X171422557Y-125663218D01*
X171422557Y-125663218D02*
X171422557Y-125806075D01*
X171422557Y-125806075D02*
X171363033Y-125901313D01*
X171363033Y-125901313D02*
X171243985Y-125948932D01*
X171243985Y-125948932D02*
X171184461Y-125948932D01*
X171184461Y-125948932D02*
X171065414Y-125901313D01*
X171065414Y-125901313D02*
X171005890Y-125806075D01*
X171005890Y-125806075D02*
X171005890Y-125663218D01*
X171005890Y-125663218D02*
X171065414Y-125567980D01*
X171720176Y-125091789D02*
X171779700Y-125044170D01*
X171779700Y-125044170D02*
X171839223Y-125091789D01*
X171839223Y-125091789D02*
X171779700Y-125139408D01*
X171779700Y-125139408D02*
X171720176Y-125091789D01*
X171720176Y-125091789D02*
X171839223Y-125091789D01*
X171065414Y-125091789D02*
X171124938Y-125044170D01*
X171124938Y-125044170D02*
X171184461Y-125091789D01*
X171184461Y-125091789D02*
X171124938Y-125139408D01*
X171124938Y-125139408D02*
X171065414Y-125091789D01*
X171065414Y-125091789D02*
X171184461Y-125091789D01*
X170529700Y-123901314D02*
X172136842Y-124758456D01*
X170529700Y-122853695D02*
X172136842Y-123710837D01*
X171005890Y-122091790D02*
X172017795Y-122091790D01*
X172017795Y-122091790D02*
X172136842Y-122139409D01*
X172136842Y-122139409D02*
X172196366Y-122187028D01*
X172196366Y-122187028D02*
X172255890Y-122282266D01*
X172255890Y-122282266D02*
X172255890Y-122425123D01*
X172255890Y-122425123D02*
X172196366Y-122520361D01*
X171779700Y-122091790D02*
X171839223Y-122187028D01*
X171839223Y-122187028D02*
X171839223Y-122377504D01*
X171839223Y-122377504D02*
X171779700Y-122472742D01*
X171779700Y-122472742D02*
X171720176Y-122520361D01*
X171720176Y-122520361D02*
X171601128Y-122567980D01*
X171601128Y-122567980D02*
X171243985Y-122567980D01*
X171243985Y-122567980D02*
X171124938Y-122520361D01*
X171124938Y-122520361D02*
X171065414Y-122472742D01*
X171065414Y-122472742D02*
X171005890Y-122377504D01*
X171005890Y-122377504D02*
X171005890Y-122187028D01*
X171005890Y-122187028D02*
X171065414Y-122091790D01*
X171839223Y-121615599D02*
X171005890Y-121615599D01*
X170589223Y-121615599D02*
X170648747Y-121663218D01*
X170648747Y-121663218D02*
X170708271Y-121615599D01*
X170708271Y-121615599D02*
X170648747Y-121567980D01*
X170648747Y-121567980D02*
X170589223Y-121615599D01*
X170589223Y-121615599D02*
X170708271Y-121615599D01*
X171005890Y-121282266D02*
X171005890Y-120901314D01*
X170589223Y-121139409D02*
X171660652Y-121139409D01*
X171660652Y-121139409D02*
X171779700Y-121091790D01*
X171779700Y-121091790D02*
X171839223Y-120996552D01*
X171839223Y-120996552D02*
X171839223Y-120901314D01*
X171839223Y-120567980D02*
X170589223Y-120567980D01*
X171839223Y-120139409D02*
X171184461Y-120139409D01*
X171184461Y-120139409D02*
X171065414Y-120187028D01*
X171065414Y-120187028D02*
X171005890Y-120282266D01*
X171005890Y-120282266D02*
X171005890Y-120425123D01*
X171005890Y-120425123D02*
X171065414Y-120520361D01*
X171065414Y-120520361D02*
X171124938Y-120567980D01*
X171005890Y-119234647D02*
X171839223Y-119234647D01*
X171005890Y-119663218D02*
X171660652Y-119663218D01*
X171660652Y-119663218D02*
X171779700Y-119615599D01*
X171779700Y-119615599D02*
X171839223Y-119520361D01*
X171839223Y-119520361D02*
X171839223Y-119377504D01*
X171839223Y-119377504D02*
X171779700Y-119282266D01*
X171779700Y-119282266D02*
X171720176Y-119234647D01*
X171839223Y-118758456D02*
X170589223Y-118758456D01*
X171065414Y-118758456D02*
X171005890Y-118663218D01*
X171005890Y-118663218D02*
X171005890Y-118472742D01*
X171005890Y-118472742D02*
X171065414Y-118377504D01*
X171065414Y-118377504D02*
X171124938Y-118329885D01*
X171124938Y-118329885D02*
X171243985Y-118282266D01*
X171243985Y-118282266D02*
X171601128Y-118282266D01*
X171601128Y-118282266D02*
X171720176Y-118329885D01*
X171720176Y-118329885D02*
X171779700Y-118377504D01*
X171779700Y-118377504D02*
X171839223Y-118472742D01*
X171839223Y-118472742D02*
X171839223Y-118663218D01*
X171839223Y-118663218D02*
X171779700Y-118758456D01*
X171720176Y-117853694D02*
X171779700Y-117806075D01*
X171779700Y-117806075D02*
X171839223Y-117853694D01*
X171839223Y-117853694D02*
X171779700Y-117901313D01*
X171779700Y-117901313D02*
X171720176Y-117853694D01*
X171720176Y-117853694D02*
X171839223Y-117853694D01*
X171779700Y-116948933D02*
X171839223Y-117044171D01*
X171839223Y-117044171D02*
X171839223Y-117234647D01*
X171839223Y-117234647D02*
X171779700Y-117329885D01*
X171779700Y-117329885D02*
X171720176Y-117377504D01*
X171720176Y-117377504D02*
X171601128Y-117425123D01*
X171601128Y-117425123D02*
X171243985Y-117425123D01*
X171243985Y-117425123D02*
X171124938Y-117377504D01*
X171124938Y-117377504D02*
X171065414Y-117329885D01*
X171065414Y-117329885D02*
X171005890Y-117234647D01*
X171005890Y-117234647D02*
X171005890Y-117044171D01*
X171005890Y-117044171D02*
X171065414Y-116948933D01*
X171839223Y-116377504D02*
X171779700Y-116472742D01*
X171779700Y-116472742D02*
X171720176Y-116520361D01*
X171720176Y-116520361D02*
X171601128Y-116567980D01*
X171601128Y-116567980D02*
X171243985Y-116567980D01*
X171243985Y-116567980D02*
X171124938Y-116520361D01*
X171124938Y-116520361D02*
X171065414Y-116472742D01*
X171065414Y-116472742D02*
X171005890Y-116377504D01*
X171005890Y-116377504D02*
X171005890Y-116234647D01*
X171005890Y-116234647D02*
X171065414Y-116139409D01*
X171065414Y-116139409D02*
X171124938Y-116091790D01*
X171124938Y-116091790D02*
X171243985Y-116044171D01*
X171243985Y-116044171D02*
X171601128Y-116044171D01*
X171601128Y-116044171D02*
X171720176Y-116091790D01*
X171720176Y-116091790D02*
X171779700Y-116139409D01*
X171779700Y-116139409D02*
X171839223Y-116234647D01*
X171839223Y-116234647D02*
X171839223Y-116377504D01*
X171839223Y-115615599D02*
X171005890Y-115615599D01*
X171124938Y-115615599D02*
X171065414Y-115567980D01*
X171065414Y-115567980D02*
X171005890Y-115472742D01*
X171005890Y-115472742D02*
X171005890Y-115329885D01*
X171005890Y-115329885D02*
X171065414Y-115234647D01*
X171065414Y-115234647D02*
X171184461Y-115187028D01*
X171184461Y-115187028D02*
X171839223Y-115187028D01*
X171184461Y-115187028D02*
X171065414Y-115139409D01*
X171065414Y-115139409D02*
X171005890Y-115044171D01*
X171005890Y-115044171D02*
X171005890Y-114901314D01*
X171005890Y-114901314D02*
X171065414Y-114806075D01*
X171065414Y-114806075D02*
X171184461Y-114758456D01*
X171184461Y-114758456D02*
X171839223Y-114758456D01*
X170529700Y-113567981D02*
X172136842Y-114425123D01*
X171839223Y-112806076D02*
X170589223Y-112806076D01*
X171779700Y-112806076D02*
X171839223Y-112901314D01*
X171839223Y-112901314D02*
X171839223Y-113091790D01*
X171839223Y-113091790D02*
X171779700Y-113187028D01*
X171779700Y-113187028D02*
X171720176Y-113234647D01*
X171720176Y-113234647D02*
X171601128Y-113282266D01*
X171601128Y-113282266D02*
X171243985Y-113282266D01*
X171243985Y-113282266D02*
X171124938Y-113234647D01*
X171124938Y-113234647D02*
X171065414Y-113187028D01*
X171065414Y-113187028D02*
X171005890Y-113091790D01*
X171005890Y-113091790D02*
X171005890Y-112901314D01*
X171005890Y-112901314D02*
X171065414Y-112806076D01*
X171779700Y-112377504D02*
X171839223Y-112282266D01*
X171839223Y-112282266D02*
X171839223Y-112091790D01*
X171839223Y-112091790D02*
X171779700Y-111996552D01*
X171779700Y-111996552D02*
X171660652Y-111948933D01*
X171660652Y-111948933D02*
X171601128Y-111948933D01*
X171601128Y-111948933D02*
X171482080Y-111996552D01*
X171482080Y-111996552D02*
X171422557Y-112091790D01*
X171422557Y-112091790D02*
X171422557Y-112234647D01*
X171422557Y-112234647D02*
X171363033Y-112329885D01*
X171363033Y-112329885D02*
X171243985Y-112377504D01*
X171243985Y-112377504D02*
X171184461Y-112377504D01*
X171184461Y-112377504D02*
X171065414Y-112329885D01*
X171065414Y-112329885D02*
X171005890Y-112234647D01*
X171005890Y-112234647D02*
X171005890Y-112091790D01*
X171005890Y-112091790D02*
X171065414Y-111996552D01*
X171839223Y-111520361D02*
X170589223Y-111520361D01*
X171839223Y-111091790D02*
X171184461Y-111091790D01*
X171184461Y-111091790D02*
X171065414Y-111139409D01*
X171065414Y-111139409D02*
X171005890Y-111234647D01*
X171005890Y-111234647D02*
X171005890Y-111377504D01*
X171005890Y-111377504D02*
X171065414Y-111472742D01*
X171065414Y-111472742D02*
X171124938Y-111520361D01*
X171839223Y-110187028D02*
X171184461Y-110187028D01*
X171184461Y-110187028D02*
X171065414Y-110234647D01*
X171065414Y-110234647D02*
X171005890Y-110329885D01*
X171005890Y-110329885D02*
X171005890Y-110520361D01*
X171005890Y-110520361D02*
X171065414Y-110615599D01*
X171779700Y-110187028D02*
X171839223Y-110282266D01*
X171839223Y-110282266D02*
X171839223Y-110520361D01*
X171839223Y-110520361D02*
X171779700Y-110615599D01*
X171779700Y-110615599D02*
X171660652Y-110663218D01*
X171660652Y-110663218D02*
X171541604Y-110663218D01*
X171541604Y-110663218D02*
X171422557Y-110615599D01*
X171422557Y-110615599D02*
X171363033Y-110520361D01*
X171363033Y-110520361D02*
X171363033Y-110282266D01*
X171363033Y-110282266D02*
X171303509Y-110187028D01*
X171839223Y-109282266D02*
X170589223Y-109282266D01*
X171779700Y-109282266D02*
X171839223Y-109377504D01*
X171839223Y-109377504D02*
X171839223Y-109567980D01*
X171839223Y-109567980D02*
X171779700Y-109663218D01*
X171779700Y-109663218D02*
X171720176Y-109710837D01*
X171720176Y-109710837D02*
X171601128Y-109758456D01*
X171601128Y-109758456D02*
X171243985Y-109758456D01*
X171243985Y-109758456D02*
X171124938Y-109710837D01*
X171124938Y-109710837D02*
X171065414Y-109663218D01*
X171065414Y-109663218D02*
X171005890Y-109567980D01*
X171005890Y-109567980D02*
X171005890Y-109377504D01*
X171005890Y-109377504D02*
X171065414Y-109282266D01*
X171839223Y-108663218D02*
X171779700Y-108758456D01*
X171779700Y-108758456D02*
X171720176Y-108806075D01*
X171720176Y-108806075D02*
X171601128Y-108853694D01*
X171601128Y-108853694D02*
X171243985Y-108853694D01*
X171243985Y-108853694D02*
X171124938Y-108806075D01*
X171124938Y-108806075D02*
X171065414Y-108758456D01*
X171065414Y-108758456D02*
X171005890Y-108663218D01*
X171005890Y-108663218D02*
X171005890Y-108520361D01*
X171005890Y-108520361D02*
X171065414Y-108425123D01*
X171065414Y-108425123D02*
X171124938Y-108377504D01*
X171124938Y-108377504D02*
X171243985Y-108329885D01*
X171243985Y-108329885D02*
X171601128Y-108329885D01*
X171601128Y-108329885D02*
X171720176Y-108377504D01*
X171720176Y-108377504D02*
X171779700Y-108425123D01*
X171779700Y-108425123D02*
X171839223Y-108520361D01*
X171839223Y-108520361D02*
X171839223Y-108663218D01*
X171005890Y-108044170D02*
X171005890Y-107663218D01*
X171839223Y-107901313D02*
X170767795Y-107901313D01*
X170767795Y-107901313D02*
X170648747Y-107853694D01*
X170648747Y-107853694D02*
X170589223Y-107758456D01*
X170589223Y-107758456D02*
X170589223Y-107663218D01*
X171005890Y-107472741D02*
X171005890Y-107091789D01*
X171839223Y-107329884D02*
X170767795Y-107329884D01*
X170767795Y-107329884D02*
X170648747Y-107282265D01*
X170648747Y-107282265D02*
X170589223Y-107187027D01*
X170589223Y-107187027D02*
X170589223Y-107091789D01*
X170529700Y-106044170D02*
X172136842Y-106901312D01*
X171839223Y-105710836D02*
X170589223Y-105710836D01*
X170589223Y-105710836D02*
X170589223Y-105329884D01*
X170589223Y-105329884D02*
X170648747Y-105234646D01*
X170648747Y-105234646D02*
X170708271Y-105187027D01*
X170708271Y-105187027D02*
X170827319Y-105139408D01*
X170827319Y-105139408D02*
X171005890Y-105139408D01*
X171005890Y-105139408D02*
X171124938Y-105187027D01*
X171124938Y-105187027D02*
X171184461Y-105234646D01*
X171184461Y-105234646D02*
X171243985Y-105329884D01*
X171243985Y-105329884D02*
X171243985Y-105710836D01*
X171839223Y-104710836D02*
X171005890Y-104710836D01*
X171243985Y-104710836D02*
X171124938Y-104663217D01*
X171124938Y-104663217D02*
X171065414Y-104615598D01*
X171065414Y-104615598D02*
X171005890Y-104520360D01*
X171005890Y-104520360D02*
X171005890Y-104425122D01*
X171839223Y-103948931D02*
X171779700Y-104044169D01*
X171779700Y-104044169D02*
X171720176Y-104091788D01*
X171720176Y-104091788D02*
X171601128Y-104139407D01*
X171601128Y-104139407D02*
X171243985Y-104139407D01*
X171243985Y-104139407D02*
X171124938Y-104091788D01*
X171124938Y-104091788D02*
X171065414Y-104044169D01*
X171065414Y-104044169D02*
X171005890Y-103948931D01*
X171005890Y-103948931D02*
X171005890Y-103806074D01*
X171005890Y-103806074D02*
X171065414Y-103710836D01*
X171065414Y-103710836D02*
X171124938Y-103663217D01*
X171124938Y-103663217D02*
X171243985Y-103615598D01*
X171243985Y-103615598D02*
X171601128Y-103615598D01*
X171601128Y-103615598D02*
X171720176Y-103663217D01*
X171720176Y-103663217D02*
X171779700Y-103710836D01*
X171779700Y-103710836D02*
X171839223Y-103806074D01*
X171839223Y-103806074D02*
X171839223Y-103948931D01*
X171005890Y-103329883D02*
X171005890Y-102948931D01*
X170589223Y-103187026D02*
X171660652Y-103187026D01*
X171660652Y-103187026D02*
X171779700Y-103139407D01*
X171779700Y-103139407D02*
X171839223Y-103044169D01*
X171839223Y-103044169D02*
X171839223Y-102948931D01*
X171839223Y-102472740D02*
X171779700Y-102567978D01*
X171779700Y-102567978D02*
X171720176Y-102615597D01*
X171720176Y-102615597D02*
X171601128Y-102663216D01*
X171601128Y-102663216D02*
X171243985Y-102663216D01*
X171243985Y-102663216D02*
X171124938Y-102615597D01*
X171124938Y-102615597D02*
X171065414Y-102567978D01*
X171065414Y-102567978D02*
X171005890Y-102472740D01*
X171005890Y-102472740D02*
X171005890Y-102329883D01*
X171005890Y-102329883D02*
X171065414Y-102234645D01*
X171065414Y-102234645D02*
X171124938Y-102187026D01*
X171124938Y-102187026D02*
X171243985Y-102139407D01*
X171243985Y-102139407D02*
X171601128Y-102139407D01*
X171601128Y-102139407D02*
X171720176Y-102187026D01*
X171720176Y-102187026D02*
X171779700Y-102234645D01*
X171779700Y-102234645D02*
X171839223Y-102329883D01*
X171839223Y-102329883D02*
X171839223Y-102472740D01*
X171839223Y-101710835D02*
X170589223Y-101710835D01*
X171184461Y-101710835D02*
X171184461Y-101139407D01*
X171839223Y-101139407D02*
X170589223Y-101139407D01*
X171005890Y-100234645D02*
X171839223Y-100234645D01*
X171005890Y-100663216D02*
X171660652Y-100663216D01*
X171660652Y-100663216D02*
X171779700Y-100615597D01*
X171779700Y-100615597D02*
X171839223Y-100520359D01*
X171839223Y-100520359D02*
X171839223Y-100377502D01*
X171839223Y-100377502D02*
X171779700Y-100282264D01*
X171779700Y-100282264D02*
X171720176Y-100234645D01*
X171958271Y-99996550D02*
X171958271Y-99234645D01*
X171839223Y-98996549D02*
X171005890Y-98996549D01*
X171243985Y-98996549D02*
X171124938Y-98948930D01*
X171124938Y-98948930D02*
X171065414Y-98901311D01*
X171065414Y-98901311D02*
X171005890Y-98806073D01*
X171005890Y-98806073D02*
X171005890Y-98710835D01*
X171779700Y-97996549D02*
X171839223Y-98091787D01*
X171839223Y-98091787D02*
X171839223Y-98282263D01*
X171839223Y-98282263D02*
X171779700Y-98377501D01*
X171779700Y-98377501D02*
X171660652Y-98425120D01*
X171660652Y-98425120D02*
X171184461Y-98425120D01*
X171184461Y-98425120D02*
X171065414Y-98377501D01*
X171065414Y-98377501D02*
X171005890Y-98282263D01*
X171005890Y-98282263D02*
X171005890Y-98091787D01*
X171005890Y-98091787D02*
X171065414Y-97996549D01*
X171065414Y-97996549D02*
X171184461Y-97948930D01*
X171184461Y-97948930D02*
X171303509Y-97948930D01*
X171303509Y-97948930D02*
X171422557Y-98425120D01*
X171005890Y-97615596D02*
X171839223Y-97377501D01*
X171839223Y-97377501D02*
X171005890Y-97139406D01*
X171482080Y-96806072D02*
X171482080Y-96329882D01*
X171839223Y-96901310D02*
X170589223Y-96567977D01*
X170589223Y-96567977D02*
X171839223Y-96234644D01*
X170886842Y-94329881D02*
X170827319Y-94425120D01*
X170827319Y-94425120D02*
X170827319Y-94615596D01*
X170827319Y-94615596D02*
X170886842Y-94710834D01*
X170886842Y-94710834D02*
X171005890Y-94806072D01*
X171005890Y-94806072D02*
X171124938Y-94853691D01*
X171124938Y-94853691D02*
X171363033Y-94853691D01*
X171363033Y-94853691D02*
X171482080Y-94806072D01*
X171482080Y-94806072D02*
X171601128Y-94710834D01*
X171601128Y-94710834D02*
X171660652Y-94615596D01*
X171660652Y-94615596D02*
X171660652Y-94425120D01*
X171660652Y-94425120D02*
X171601128Y-94329881D01*
X170410652Y-94520358D02*
X170470176Y-94758453D01*
X170470176Y-94758453D02*
X170648747Y-94996548D01*
X170648747Y-94996548D02*
X170946366Y-95139405D01*
X170946366Y-95139405D02*
X171243985Y-95187024D01*
X171243985Y-95187024D02*
X171541604Y-95139405D01*
X171541604Y-95139405D02*
X171839223Y-94996548D01*
X171839223Y-94996548D02*
X172017795Y-94758453D01*
X172017795Y-94758453D02*
X172077319Y-94520358D01*
X172077319Y-94520358D02*
X172017795Y-94282262D01*
X172017795Y-94282262D02*
X171839223Y-94044167D01*
X171839223Y-94044167D02*
X171541604Y-93901310D01*
X171541604Y-93901310D02*
X171243985Y-93853691D01*
X171243985Y-93853691D02*
X170946366Y-93901310D01*
X170946366Y-93901310D02*
X170648747Y-94044167D01*
X170648747Y-94044167D02*
X170470176Y-94282262D01*
X170470176Y-94282262D02*
X170410652Y-94520358D01*
X170708271Y-93472738D02*
X170648747Y-93425119D01*
X170648747Y-93425119D02*
X170589223Y-93329881D01*
X170589223Y-93329881D02*
X170589223Y-93091786D01*
X170589223Y-93091786D02*
X170648747Y-92996548D01*
X170648747Y-92996548D02*
X170708271Y-92948929D01*
X170708271Y-92948929D02*
X170827319Y-92901310D01*
X170827319Y-92901310D02*
X170946366Y-92901310D01*
X170946366Y-92901310D02*
X171124938Y-92948929D01*
X171124938Y-92948929D02*
X171839223Y-93520357D01*
X171839223Y-93520357D02*
X171839223Y-92901310D01*
X170589223Y-92282262D02*
X170589223Y-92187024D01*
X170589223Y-92187024D02*
X170648747Y-92091786D01*
X170648747Y-92091786D02*
X170708271Y-92044167D01*
X170708271Y-92044167D02*
X170827319Y-91996548D01*
X170827319Y-91996548D02*
X171065414Y-91948929D01*
X171065414Y-91948929D02*
X171363033Y-91948929D01*
X171363033Y-91948929D02*
X171601128Y-91996548D01*
X171601128Y-91996548D02*
X171720176Y-92044167D01*
X171720176Y-92044167D02*
X171779700Y-92091786D01*
X171779700Y-92091786D02*
X171839223Y-92187024D01*
X171839223Y-92187024D02*
X171839223Y-92282262D01*
X171839223Y-92282262D02*
X171779700Y-92377500D01*
X171779700Y-92377500D02*
X171720176Y-92425119D01*
X171720176Y-92425119D02*
X171601128Y-92472738D01*
X171601128Y-92472738D02*
X171363033Y-92520357D01*
X171363033Y-92520357D02*
X171065414Y-92520357D01*
X171065414Y-92520357D02*
X170827319Y-92472738D01*
X170827319Y-92472738D02*
X170708271Y-92425119D01*
X170708271Y-92425119D02*
X170648747Y-92377500D01*
X170648747Y-92377500D02*
X170589223Y-92282262D01*
X171839223Y-90996548D02*
X171839223Y-91567976D01*
X171839223Y-91282262D02*
X170589223Y-91282262D01*
X170589223Y-91282262D02*
X170767795Y-91377500D01*
X170767795Y-91377500D02*
X170886842Y-91472738D01*
X170886842Y-91472738D02*
X170946366Y-91567976D01*
X171839223Y-90520357D02*
X171839223Y-90329881D01*
X171839223Y-90329881D02*
X171779700Y-90234643D01*
X171779700Y-90234643D02*
X171720176Y-90187024D01*
X171720176Y-90187024D02*
X171541604Y-90091786D01*
X171541604Y-90091786D02*
X171303509Y-90044167D01*
X171303509Y-90044167D02*
X170827319Y-90044167D01*
X170827319Y-90044167D02*
X170708271Y-90091786D01*
X170708271Y-90091786D02*
X170648747Y-90139405D01*
X170648747Y-90139405D02*
X170589223Y-90234643D01*
X170589223Y-90234643D02*
X170589223Y-90425119D01*
X170589223Y-90425119D02*
X170648747Y-90520357D01*
X170648747Y-90520357D02*
X170708271Y-90567976D01*
X170708271Y-90567976D02*
X170827319Y-90615595D01*
X170827319Y-90615595D02*
X171124938Y-90615595D01*
X171124938Y-90615595D02*
X171243985Y-90567976D01*
X171243985Y-90567976D02*
X171303509Y-90520357D01*
X171303509Y-90520357D02*
X171363033Y-90425119D01*
X171363033Y-90425119D02*
X171363033Y-90234643D01*
X171363033Y-90234643D02*
X171303509Y-90139405D01*
X171303509Y-90139405D02*
X171243985Y-90091786D01*
X171243985Y-90091786D02*
X171124938Y-90044167D01*
X171839223Y-88853690D02*
X170589223Y-88853690D01*
X170589223Y-88853690D02*
X170589223Y-88615595D01*
X170589223Y-88615595D02*
X170648747Y-88472738D01*
X170648747Y-88472738D02*
X170767795Y-88377500D01*
X170767795Y-88377500D02*
X170886842Y-88329881D01*
X170886842Y-88329881D02*
X171124938Y-88282262D01*
X171124938Y-88282262D02*
X171303509Y-88282262D01*
X171303509Y-88282262D02*
X171541604Y-88329881D01*
X171541604Y-88329881D02*
X171660652Y-88377500D01*
X171660652Y-88377500D02*
X171779700Y-88472738D01*
X171779700Y-88472738D02*
X171839223Y-88615595D01*
X171839223Y-88615595D02*
X171839223Y-88853690D01*
X171839223Y-87425119D02*
X171184461Y-87425119D01*
X171184461Y-87425119D02*
X171065414Y-87472738D01*
X171065414Y-87472738D02*
X171005890Y-87567976D01*
X171005890Y-87567976D02*
X171005890Y-87758452D01*
X171005890Y-87758452D02*
X171065414Y-87853690D01*
X171779700Y-87425119D02*
X171839223Y-87520357D01*
X171839223Y-87520357D02*
X171839223Y-87758452D01*
X171839223Y-87758452D02*
X171779700Y-87853690D01*
X171779700Y-87853690D02*
X171660652Y-87901309D01*
X171660652Y-87901309D02*
X171541604Y-87901309D01*
X171541604Y-87901309D02*
X171422557Y-87853690D01*
X171422557Y-87853690D02*
X171363033Y-87758452D01*
X171363033Y-87758452D02*
X171363033Y-87520357D01*
X171363033Y-87520357D02*
X171303509Y-87425119D01*
X171005890Y-87044166D02*
X171839223Y-86806071D01*
X171839223Y-86806071D02*
X171005890Y-86567976D01*
X171839223Y-86187023D02*
X171005890Y-86187023D01*
X170589223Y-86187023D02*
X170648747Y-86234642D01*
X170648747Y-86234642D02*
X170708271Y-86187023D01*
X170708271Y-86187023D02*
X170648747Y-86139404D01*
X170648747Y-86139404D02*
X170589223Y-86187023D01*
X170589223Y-86187023D02*
X170708271Y-86187023D01*
X171839223Y-85282262D02*
X170589223Y-85282262D01*
X171779700Y-85282262D02*
X171839223Y-85377500D01*
X171839223Y-85377500D02*
X171839223Y-85567976D01*
X171839223Y-85567976D02*
X171779700Y-85663214D01*
X171779700Y-85663214D02*
X171720176Y-85710833D01*
X171720176Y-85710833D02*
X171601128Y-85758452D01*
X171601128Y-85758452D02*
X171243985Y-85758452D01*
X171243985Y-85758452D02*
X171124938Y-85710833D01*
X171124938Y-85710833D02*
X171065414Y-85663214D01*
X171065414Y-85663214D02*
X171005890Y-85567976D01*
X171005890Y-85567976D02*
X171005890Y-85377500D01*
X171005890Y-85377500D02*
X171065414Y-85282262D01*
X171779700Y-84091785D02*
X171839223Y-83948928D01*
X171839223Y-83948928D02*
X171839223Y-83710833D01*
X171839223Y-83710833D02*
X171779700Y-83615595D01*
X171779700Y-83615595D02*
X171720176Y-83567976D01*
X171720176Y-83567976D02*
X171601128Y-83520357D01*
X171601128Y-83520357D02*
X171482080Y-83520357D01*
X171482080Y-83520357D02*
X171363033Y-83567976D01*
X171363033Y-83567976D02*
X171303509Y-83615595D01*
X171303509Y-83615595D02*
X171243985Y-83710833D01*
X171243985Y-83710833D02*
X171184461Y-83901309D01*
X171184461Y-83901309D02*
X171124938Y-83996547D01*
X171124938Y-83996547D02*
X171065414Y-84044166D01*
X171065414Y-84044166D02*
X170946366Y-84091785D01*
X170946366Y-84091785D02*
X170827319Y-84091785D01*
X170827319Y-84091785D02*
X170708271Y-84044166D01*
X170708271Y-84044166D02*
X170648747Y-83996547D01*
X170648747Y-83996547D02*
X170589223Y-83901309D01*
X170589223Y-83901309D02*
X170589223Y-83663214D01*
X170589223Y-83663214D02*
X170648747Y-83520357D01*
X171839223Y-83091785D02*
X170589223Y-83091785D01*
X171839223Y-82663214D02*
X171184461Y-82663214D01*
X171184461Y-82663214D02*
X171065414Y-82710833D01*
X171065414Y-82710833D02*
X171005890Y-82806071D01*
X171005890Y-82806071D02*
X171005890Y-82948928D01*
X171005890Y-82948928D02*
X171065414Y-83044166D01*
X171065414Y-83044166D02*
X171124938Y-83091785D01*
X171839223Y-81758452D02*
X171184461Y-81758452D01*
X171184461Y-81758452D02*
X171065414Y-81806071D01*
X171065414Y-81806071D02*
X171005890Y-81901309D01*
X171005890Y-81901309D02*
X171005890Y-82091785D01*
X171005890Y-82091785D02*
X171065414Y-82187023D01*
X171779700Y-81758452D02*
X171839223Y-81853690D01*
X171839223Y-81853690D02*
X171839223Y-82091785D01*
X171839223Y-82091785D02*
X171779700Y-82187023D01*
X171779700Y-82187023D02*
X171660652Y-82234642D01*
X171660652Y-82234642D02*
X171541604Y-82234642D01*
X171541604Y-82234642D02*
X171422557Y-82187023D01*
X171422557Y-82187023D02*
X171363033Y-82091785D01*
X171363033Y-82091785D02*
X171363033Y-81853690D01*
X171363033Y-81853690D02*
X171303509Y-81758452D01*
X171839223Y-80853690D02*
X170589223Y-80853690D01*
X171779700Y-80853690D02*
X171839223Y-80948928D01*
X171839223Y-80948928D02*
X171839223Y-81139404D01*
X171839223Y-81139404D02*
X171779700Y-81234642D01*
X171779700Y-81234642D02*
X171720176Y-81282261D01*
X171720176Y-81282261D02*
X171601128Y-81329880D01*
X171601128Y-81329880D02*
X171243985Y-81329880D01*
X171243985Y-81329880D02*
X171124938Y-81282261D01*
X171124938Y-81282261D02*
X171065414Y-81234642D01*
X171065414Y-81234642D02*
X171005890Y-81139404D01*
X171005890Y-81139404D02*
X171005890Y-80948928D01*
X171005890Y-80948928D02*
X171065414Y-80853690D01*
X171839223Y-80234642D02*
X171779700Y-80329880D01*
X171779700Y-80329880D02*
X171720176Y-80377499D01*
X171720176Y-80377499D02*
X171601128Y-80425118D01*
X171601128Y-80425118D02*
X171243985Y-80425118D01*
X171243985Y-80425118D02*
X171124938Y-80377499D01*
X171124938Y-80377499D02*
X171065414Y-80329880D01*
X171065414Y-80329880D02*
X171005890Y-80234642D01*
X171005890Y-80234642D02*
X171005890Y-80091785D01*
X171005890Y-80091785D02*
X171065414Y-79996547D01*
X171065414Y-79996547D02*
X171124938Y-79948928D01*
X171124938Y-79948928D02*
X171243985Y-79901309D01*
X171243985Y-79901309D02*
X171601128Y-79901309D01*
X171601128Y-79901309D02*
X171720176Y-79948928D01*
X171720176Y-79948928D02*
X171779700Y-79996547D01*
X171779700Y-79996547D02*
X171839223Y-80091785D01*
X171839223Y-80091785D02*
X171839223Y-80234642D01*
X171005890Y-79615594D02*
X171005890Y-79234642D01*
X171839223Y-79472737D02*
X170767795Y-79472737D01*
X170767795Y-79472737D02*
X170648747Y-79425118D01*
X170648747Y-79425118D02*
X170589223Y-79329880D01*
X170589223Y-79329880D02*
X170589223Y-79234642D01*
X171005890Y-79044165D02*
X171005890Y-78663213D01*
X171839223Y-78901308D02*
X170767795Y-78901308D01*
X170767795Y-78901308D02*
X170648747Y-78853689D01*
X170648747Y-78853689D02*
X170589223Y-78758451D01*
X170589223Y-78758451D02*
X170589223Y-78663213D01*
M02*
