%TF.GenerationSoftware,KiCad,Pcbnew,7.0.8*%
%TF.CreationDate,2023-11-19T20:47:23+01:00*%
%TF.ProjectId,ProtoHu_revA_layer2,50726f74-6f48-4755-9f72-6576415f6c61,rev?*%
%TF.SameCoordinates,Original*%
%TF.FileFunction,Legend,Bot*%
%TF.FilePolarity,Positive*%
%FSLAX46Y46*%
G04 Gerber Fmt 4.6, Leading zero omitted, Abs format (unit mm)*
G04 Created by KiCad (PCBNEW 7.0.8) date 2023-11-19 20:47:23*
%MOMM*%
%LPD*%
G01*
G04 APERTURE LIST*
%ADD10C,0.150000*%
G04 APERTURE END LIST*
D10*
X153119048Y-73454819D02*
X153119048Y-74169104D01*
X153119048Y-74169104D02*
X153166667Y-74311961D01*
X153166667Y-74311961D02*
X153261905Y-74407200D01*
X153261905Y-74407200D02*
X153404762Y-74454819D01*
X153404762Y-74454819D02*
X153500000Y-74454819D01*
X152166667Y-74454819D02*
X152642857Y-74454819D01*
X152642857Y-74454819D02*
X152642857Y-73454819D01*
X151261905Y-74359580D02*
X151309524Y-74407200D01*
X151309524Y-74407200D02*
X151452381Y-74454819D01*
X151452381Y-74454819D02*
X151547619Y-74454819D01*
X151547619Y-74454819D02*
X151690476Y-74407200D01*
X151690476Y-74407200D02*
X151785714Y-74311961D01*
X151785714Y-74311961D02*
X151833333Y-74216723D01*
X151833333Y-74216723D02*
X151880952Y-74026247D01*
X151880952Y-74026247D02*
X151880952Y-73883390D01*
X151880952Y-73883390D02*
X151833333Y-73692914D01*
X151833333Y-73692914D02*
X151785714Y-73597676D01*
X151785714Y-73597676D02*
X151690476Y-73502438D01*
X151690476Y-73502438D02*
X151547619Y-73454819D01*
X151547619Y-73454819D02*
X151452381Y-73454819D01*
X151452381Y-73454819D02*
X151309524Y-73502438D01*
X151309524Y-73502438D02*
X151261905Y-73550057D01*
X150547619Y-73454819D02*
X150547619Y-74169104D01*
X150547619Y-74169104D02*
X150595238Y-74311961D01*
X150595238Y-74311961D02*
X150690476Y-74407200D01*
X150690476Y-74407200D02*
X150833333Y-74454819D01*
X150833333Y-74454819D02*
X150928571Y-74454819D01*
X149595238Y-74454819D02*
X150071428Y-74454819D01*
X150071428Y-74454819D02*
X150071428Y-73454819D01*
X148690476Y-74359580D02*
X148738095Y-74407200D01*
X148738095Y-74407200D02*
X148880952Y-74454819D01*
X148880952Y-74454819D02*
X148976190Y-74454819D01*
X148976190Y-74454819D02*
X149119047Y-74407200D01*
X149119047Y-74407200D02*
X149214285Y-74311961D01*
X149214285Y-74311961D02*
X149261904Y-74216723D01*
X149261904Y-74216723D02*
X149309523Y-74026247D01*
X149309523Y-74026247D02*
X149309523Y-73883390D01*
X149309523Y-73883390D02*
X149261904Y-73692914D01*
X149261904Y-73692914D02*
X149214285Y-73597676D01*
X149214285Y-73597676D02*
X149119047Y-73502438D01*
X149119047Y-73502438D02*
X148976190Y-73454819D01*
X148976190Y-73454819D02*
X148880952Y-73454819D01*
X148880952Y-73454819D02*
X148738095Y-73502438D01*
X148738095Y-73502438D02*
X148690476Y-73550057D01*
X147976190Y-73454819D02*
X147976190Y-74169104D01*
X147976190Y-74169104D02*
X148023809Y-74311961D01*
X148023809Y-74311961D02*
X148119047Y-74407200D01*
X148119047Y-74407200D02*
X148261904Y-74454819D01*
X148261904Y-74454819D02*
X148357142Y-74454819D01*
X147023809Y-74454819D02*
X147499999Y-74454819D01*
X147499999Y-74454819D02*
X147499999Y-73454819D01*
X146119047Y-74359580D02*
X146166666Y-74407200D01*
X146166666Y-74407200D02*
X146309523Y-74454819D01*
X146309523Y-74454819D02*
X146404761Y-74454819D01*
X146404761Y-74454819D02*
X146547618Y-74407200D01*
X146547618Y-74407200D02*
X146642856Y-74311961D01*
X146642856Y-74311961D02*
X146690475Y-74216723D01*
X146690475Y-74216723D02*
X146738094Y-74026247D01*
X146738094Y-74026247D02*
X146738094Y-73883390D01*
X146738094Y-73883390D02*
X146690475Y-73692914D01*
X146690475Y-73692914D02*
X146642856Y-73597676D01*
X146642856Y-73597676D02*
X146547618Y-73502438D01*
X146547618Y-73502438D02*
X146404761Y-73454819D01*
X146404761Y-73454819D02*
X146309523Y-73454819D01*
X146309523Y-73454819D02*
X146166666Y-73502438D01*
X146166666Y-73502438D02*
X146119047Y-73550057D01*
X145404761Y-73454819D02*
X145404761Y-74169104D01*
X145404761Y-74169104D02*
X145452380Y-74311961D01*
X145452380Y-74311961D02*
X145547618Y-74407200D01*
X145547618Y-74407200D02*
X145690475Y-74454819D01*
X145690475Y-74454819D02*
X145785713Y-74454819D01*
X144452380Y-74454819D02*
X144928570Y-74454819D01*
X144928570Y-74454819D02*
X144928570Y-73454819D01*
X143547618Y-74359580D02*
X143595237Y-74407200D01*
X143595237Y-74407200D02*
X143738094Y-74454819D01*
X143738094Y-74454819D02*
X143833332Y-74454819D01*
X143833332Y-74454819D02*
X143976189Y-74407200D01*
X143976189Y-74407200D02*
X144071427Y-74311961D01*
X144071427Y-74311961D02*
X144119046Y-74216723D01*
X144119046Y-74216723D02*
X144166665Y-74026247D01*
X144166665Y-74026247D02*
X144166665Y-73883390D01*
X144166665Y-73883390D02*
X144119046Y-73692914D01*
X144119046Y-73692914D02*
X144071427Y-73597676D01*
X144071427Y-73597676D02*
X143976189Y-73502438D01*
X143976189Y-73502438D02*
X143833332Y-73454819D01*
X143833332Y-73454819D02*
X143738094Y-73454819D01*
X143738094Y-73454819D02*
X143595237Y-73502438D01*
X143595237Y-73502438D02*
X143547618Y-73550057D01*
M02*
